<svg width="341" height="60" viewBox="0 0 341 60" fill="none" xmlns="http://www.w3.org/2000/svg">
<rect x="0.249412" y="0.249412" width="280.188" height="59.36" rx="9.72706" fill="white" stroke="#E3DBD8" stroke-width="0.498824"/>
<path d="M101.239 37.192C100.396 37.192 99.6549 36.9947 99.0149 36.6C98.3749 36.2053 97.8736 35.672 97.5109 35C97.1482 34.3173 96.9669 33.5493 96.9669 32.696C96.9669 31.8427 97.1482 31.08 97.5109 30.408C97.8736 29.736 98.3749 29.208 99.0149 28.824C99.6549 28.4293 100.396 28.232 101.239 28.232C101.772 28.232 102.274 28.328 102.743 28.52C103.212 28.712 103.628 28.9733 103.991 29.304C104.354 29.624 104.626 29.9973 104.807 30.424L103.719 30.984C103.506 30.5253 103.18 30.152 102.743 29.864C102.306 29.576 101.804 29.432 101.239 29.432C100.674 29.432 100.162 29.576 99.7029 29.864C99.2549 30.1413 98.8976 30.5307 98.6309 31.032C98.3749 31.5227 98.2469 32.0827 98.2469 32.712C98.2469 33.3307 98.3749 33.8907 98.6309 34.392C98.8976 34.8827 99.2549 35.272 99.7029 35.56C100.162 35.848 100.674 35.992 101.239 35.992C101.804 35.992 102.3 35.848 102.727 35.56C103.164 35.272 103.495 34.888 103.719 34.408L104.807 35C104.626 35.416 104.354 35.7893 103.991 36.12C103.628 36.4507 103.212 36.712 102.743 36.904C102.274 37.096 101.772 37.192 101.239 37.192ZM110.929 37.192C110.118 37.192 109.382 37 108.721 36.616C108.059 36.2213 107.531 35.688 107.137 35.016C106.753 34.3333 106.561 33.56 106.561 32.696C106.561 31.8427 106.753 31.08 107.137 30.408C107.521 29.736 108.038 29.208 108.689 28.824C109.35 28.4293 110.097 28.232 110.929 28.232C111.761 28.232 112.502 28.424 113.153 28.808C113.814 29.192 114.331 29.72 114.705 30.392C115.089 31.064 115.281 31.832 115.281 32.696C115.281 33.5707 115.083 34.3493 114.689 35.032C114.294 35.704 113.766 36.232 113.105 36.616C112.454 37 111.729 37.192 110.929 37.192ZM110.929 35.992C111.505 35.992 112.022 35.848 112.481 35.56C112.95 35.272 113.318 34.8773 113.585 34.376C113.862 33.8747 114.001 33.3147 114.001 32.696C114.001 32.0773 113.862 31.5227 113.585 31.032C113.318 30.5413 112.95 30.152 112.481 29.864C112.022 29.576 111.505 29.432 110.929 29.432C110.353 29.432 109.83 29.576 109.361 29.864C108.902 30.152 108.534 30.5413 108.257 31.032C107.979 31.5227 107.841 32.0773 107.841 32.696C107.841 33.3147 107.979 33.8747 108.257 34.376C108.534 34.8773 108.902 35.272 109.361 35.56C109.83 35.848 110.353 35.992 110.929 35.992ZM117.397 37V28.424H118.597V30.056L118.405 29.816C118.64 29.3147 118.986 28.9253 119.445 28.648C119.914 28.3707 120.426 28.232 120.981 28.232C121.642 28.232 122.24 28.4187 122.773 28.792C123.306 29.1653 123.685 29.6507 123.909 30.248L123.573 30.264C123.786 29.6027 124.154 29.1013 124.677 28.76C125.21 28.408 125.797 28.232 126.437 28.232C127.013 28.232 127.541 28.3707 128.021 28.648C128.512 28.9253 128.901 29.3093 129.189 29.8C129.488 30.28 129.637 30.824 129.637 31.432V37H128.437V31.896C128.437 31.3733 128.341 30.9307 128.149 30.568C127.968 30.2053 127.717 29.928 127.397 29.736C127.077 29.5333 126.709 29.432 126.293 29.432C125.888 29.432 125.52 29.5333 125.189 29.736C124.858 29.928 124.597 30.2107 124.405 30.584C124.213 30.9467 124.117 31.384 124.117 31.896V37H122.917V31.896C122.917 31.3733 122.821 30.9307 122.629 30.568C122.448 30.2053 122.197 29.928 121.877 29.736C121.557 29.5333 121.189 29.432 120.773 29.432C120.357 29.432 119.984 29.5333 119.653 29.736C119.333 29.928 119.077 30.2107 118.885 30.584C118.693 30.9467 118.597 31.384 118.597 31.896V37H117.397ZM131.928 40.2V28.424H133.128V30.344L132.936 30.008C133.278 29.464 133.731 29.032 134.296 28.712C134.872 28.392 135.528 28.232 136.264 28.232C137.075 28.232 137.795 28.4293 138.424 28.824C139.064 29.208 139.566 29.736 139.928 30.408C140.302 31.08 140.488 31.848 140.488 32.712C140.488 33.5653 140.302 34.3333 139.928 35.016C139.566 35.688 139.064 36.2213 138.424 36.616C137.795 37 137.075 37.192 136.264 37.192C135.528 37.192 134.862 37.0267 134.264 36.696C133.678 36.3547 133.235 35.8747 132.936 35.256L133.128 35.08V40.2H131.928ZM136.2 35.992C136.776 35.992 137.288 35.848 137.736 35.56C138.195 35.272 138.552 34.8827 138.808 34.392C139.075 33.8907 139.208 33.3307 139.208 32.712C139.208 32.0827 139.075 31.5227 138.808 31.032C138.552 30.5413 138.195 30.152 137.736 29.864C137.288 29.576 136.776 29.432 136.2 29.432C135.624 29.432 135.102 29.576 134.632 29.864C134.174 30.152 133.806 30.5467 133.528 31.048C133.262 31.5387 133.128 32.0933 133.128 32.712C133.128 33.3307 133.262 33.8907 133.528 34.392C133.806 34.8827 134.174 35.272 134.632 35.56C135.102 35.848 135.624 35.992 136.2 35.992ZM142.6 37V24.888H143.8V37H142.6ZM150.16 37.192C149.36 37.192 148.635 37 147.984 36.616C147.344 36.2213 146.838 35.6827 146.464 35C146.091 34.3173 145.904 33.544 145.904 32.68C145.904 31.816 146.086 31.0533 146.448 30.392C146.811 29.72 147.302 29.192 147.92 28.808C148.55 28.424 149.254 28.232 150.032 28.232C150.651 28.232 151.2 28.3493 151.68 28.584C152.171 28.808 152.587 29.1173 152.928 29.512C153.27 29.896 153.531 30.3333 153.712 30.824C153.894 31.304 153.984 31.8 153.984 32.312C153.984 32.4187 153.979 32.5413 153.968 32.68C153.958 32.808 153.942 32.9413 153.92 33.08H146.672V31.96H153.232L152.656 32.44C152.752 31.8533 152.683 31.3307 152.448 30.872C152.224 30.4027 151.899 30.0347 151.472 29.768C151.046 29.4907 150.566 29.352 150.032 29.352C149.499 29.352 149.003 29.4907 148.544 29.768C148.096 30.0453 147.744 30.4347 147.488 30.936C147.232 31.4267 147.131 32.0133 147.184 32.696C147.131 33.3787 147.238 33.976 147.504 34.488C147.782 34.9893 148.155 35.3787 148.624 35.656C149.104 35.9333 149.616 36.072 150.16 36.072C150.79 36.072 151.318 35.9227 151.744 35.624C152.171 35.3253 152.518 34.952 152.784 34.504L153.808 35.048C153.638 35.432 153.376 35.7893 153.024 36.12C152.672 36.44 152.251 36.7013 151.76 36.904C151.28 37.096 150.747 37.192 150.16 37.192ZM149.344 26.76L150.736 24.36H152.384L150.56 26.76H149.344ZM159.38 37.096C158.612 37.096 158.02 36.872 157.604 36.424C157.188 35.976 156.98 35.336 156.98 34.504V29.624H155.396V28.424H155.796C156.159 28.424 156.447 28.3067 156.66 28.072C156.873 27.8267 156.98 27.5227 156.98 27.16V26.44H158.18V28.424H160.068V29.624H158.18V34.504C158.18 34.792 158.223 35.048 158.308 35.272C158.393 35.4853 158.537 35.656 158.74 35.784C158.953 35.912 159.236 35.976 159.588 35.976C159.673 35.976 159.775 35.9707 159.892 35.96C160.009 35.9493 160.111 35.9387 160.196 35.928V37C160.068 37.032 159.924 37.0533 159.764 37.064C159.604 37.0853 159.476 37.096 159.38 37.096ZM165.895 37.192C165.095 37.192 164.369 37 163.719 36.616C163.079 36.2213 162.572 35.6827 162.199 35C161.825 34.3173 161.639 33.544 161.639 32.68C161.639 31.816 161.82 31.0533 162.183 30.392C162.545 29.72 163.036 29.192 163.655 28.808C164.284 28.424 164.988 28.232 165.767 28.232C166.385 28.232 166.935 28.3493 167.415 28.584C167.905 28.808 168.321 29.1173 168.663 29.512C169.004 29.896 169.265 30.3333 169.447 30.824C169.628 31.304 169.719 31.8 169.719 32.312C169.719 32.4187 169.713 32.5413 169.703 32.68C169.692 32.808 169.676 32.9413 169.655 33.08H162.407V31.96H168.967L168.391 32.44C168.487 31.8533 168.417 31.3307 168.183 30.872C167.959 30.4027 167.633 30.0347 167.207 29.768C166.78 29.4907 166.3 29.352 165.767 29.352C165.233 29.352 164.737 29.4907 164.279 29.768C163.831 30.0453 163.479 30.4347 163.223 30.936C162.967 31.4267 162.865 32.0133 162.919 32.696C162.865 33.3787 162.972 33.976 163.239 34.488C163.516 34.9893 163.889 35.3787 164.359 35.656C164.839 35.9333 165.351 36.072 165.895 36.072C166.524 36.072 167.052 35.9227 167.479 35.624C167.905 35.3253 168.252 34.952 168.519 34.504L169.543 35.048C169.372 35.432 169.111 35.7893 168.759 36.12C168.407 36.44 167.985 36.7013 167.495 36.904C167.015 37.096 166.481 37.192 165.895 37.192ZM170.955 37V35.96L176.123 29.16L176.347 29.624H171.227V28.424H177.403V29.464L172.251 36.264L172.027 35.8H177.435V37H170.955ZM181.741 37V24.888H182.941V37H181.741ZM189.301 37.192C188.501 37.192 187.776 37 187.125 36.616C186.485 36.2213 185.978 35.6827 185.605 35C185.232 34.3173 185.045 33.544 185.045 32.68C185.045 31.816 185.226 31.0533 185.589 30.392C185.952 29.72 186.442 29.192 187.061 28.808C187.69 28.424 188.394 28.232 189.173 28.232C189.792 28.232 190.341 28.3493 190.821 28.584C191.312 28.808 191.728 29.1173 192.069 29.512C192.41 29.896 192.672 30.3333 192.853 30.824C193.034 31.304 193.125 31.8 193.125 32.312C193.125 32.4187 193.12 32.5413 193.109 32.68C193.098 32.808 193.082 32.9413 193.061 33.08H185.813V31.96H192.373L191.797 32.44C191.893 31.8533 191.824 31.3307 191.589 30.872C191.365 30.4027 191.04 30.0347 190.613 29.768C190.186 29.4907 189.706 29.352 189.173 29.352C188.64 29.352 188.144 29.4907 187.685 29.768C187.237 30.0453 186.885 30.4347 186.629 30.936C186.373 31.4267 186.272 32.0133 186.325 32.696C186.272 33.3787 186.378 33.976 186.645 34.488C186.922 34.9893 187.296 35.3787 187.765 35.656C188.245 35.9333 188.757 36.072 189.301 36.072C189.93 36.072 190.458 35.9227 190.885 35.624C191.312 35.3253 191.658 34.952 191.925 34.504L192.949 35.048C192.778 35.432 192.517 35.7893 192.165 36.12C191.813 36.44 191.392 36.7013 190.901 36.904C190.421 37.096 189.888 37.192 189.301 37.192ZM198.84 37V29.624H197.128V28.424H198.84V27.656C198.84 27.0587 198.973 26.5573 199.24 26.152C199.506 25.736 199.858 25.4213 200.296 25.208C200.733 24.9947 201.202 24.888 201.704 24.888C201.81 24.888 201.933 24.8987 202.072 24.92C202.21 24.9307 202.322 24.9467 202.408 24.968V26.056C202.333 26.0347 202.232 26.024 202.104 26.024C201.976 26.0133 201.885 26.008 201.832 26.008C201.32 26.008 200.893 26.1307 200.552 26.376C200.21 26.6213 200.04 27.048 200.04 27.656V28.424H202.136V29.624H200.04V37H198.84ZM207.772 37.192C206.962 37.192 206.226 37 205.564 36.616C204.903 36.2213 204.375 35.688 203.98 35.016C203.596 34.3333 203.404 33.56 203.404 32.696C203.404 31.8427 203.596 31.08 203.98 30.408C204.364 29.736 204.882 29.208 205.532 28.824C206.194 28.4293 206.94 28.232 207.772 28.232C208.604 28.232 209.346 28.424 209.996 28.808C210.658 29.192 211.175 29.72 211.548 30.392C211.932 31.064 212.124 31.832 212.124 32.696C212.124 33.5707 211.927 34.3493 211.532 35.032C211.138 35.704 210.61 36.232 209.948 36.616C209.298 37 208.572 37.192 207.772 37.192ZM207.772 35.992C208.348 35.992 208.866 35.848 209.324 35.56C209.794 35.272 210.162 34.8773 210.428 34.376C210.706 33.8747 210.844 33.3147 210.844 32.696C210.844 32.0773 210.706 31.5227 210.428 31.032C210.162 30.5413 209.794 30.152 209.324 29.864C208.866 29.576 208.348 29.432 207.772 29.432C207.196 29.432 206.674 29.576 206.204 29.864C205.746 30.152 205.378 30.5413 205.1 31.032C204.823 31.5227 204.684 32.0773 204.684 32.696C204.684 33.3147 204.823 33.8747 205.1 34.376C205.378 34.8773 205.746 35.272 206.204 35.56C206.674 35.848 207.196 35.992 207.772 35.992ZM214.241 37V28.424H215.441V29.832L215.281 29.624C215.483 29.2187 215.787 28.8987 216.193 28.664C216.609 28.4293 217.11 28.312 217.697 28.312H218.241V29.512H217.489C216.87 29.512 216.374 29.704 216.001 30.088C215.627 30.472 215.441 31.016 215.441 31.72V37H214.241ZM219.647 37V28.424H220.847V30.056L220.655 29.816C220.89 29.3147 221.236 28.9253 221.695 28.648C222.164 28.3707 222.676 28.232 223.231 28.232C223.892 28.232 224.49 28.4187 225.023 28.792C225.556 29.1653 225.935 29.6507 226.159 30.248L225.823 30.264C226.036 29.6027 226.404 29.1013 226.927 28.76C227.46 28.408 228.047 28.232 228.687 28.232C229.263 28.232 229.791 28.3707 230.271 28.648C230.762 28.9253 231.151 29.3093 231.439 29.8C231.738 30.28 231.887 30.824 231.887 31.432V37H230.687V31.896C230.687 31.3733 230.591 30.9307 230.399 30.568C230.218 30.2053 229.967 29.928 229.647 29.736C229.327 29.5333 228.959 29.432 228.543 29.432C228.138 29.432 227.77 29.5333 227.439 29.736C227.108 29.928 226.847 30.2107 226.655 30.584C226.463 30.9467 226.367 31.384 226.367 31.896V37H225.167V31.896C225.167 31.3733 225.071 30.9307 224.879 30.568C224.698 30.2053 224.447 29.928 224.127 29.736C223.807 29.5333 223.439 29.432 223.023 29.432C222.607 29.432 222.234 29.5333 221.903 29.736C221.583 29.928 221.327 30.2107 221.135 30.584C220.943 30.9467 220.847 31.384 220.847 31.896V37H219.647ZM237.218 37.192C236.621 37.192 236.077 37.0533 235.586 36.776C235.096 36.488 234.706 36.0933 234.418 35.592C234.141 35.08 234.002 34.4933 234.002 33.832V28.424H235.202V33.688C235.202 34.1467 235.293 34.552 235.474 34.904C235.666 35.2453 235.928 35.512 236.258 35.704C236.6 35.896 236.989 35.992 237.426 35.992C237.864 35.992 238.253 35.896 238.594 35.704C238.936 35.5013 239.202 35.2187 239.394 34.856C239.586 34.4827 239.682 34.04 239.682 33.528V28.424H240.882V37H239.682V35.336L239.954 35.4C239.752 35.9547 239.405 36.392 238.914 36.712C238.424 37.032 237.858 37.192 237.218 37.192ZM243.35 37V24.888H244.55V37H243.35ZM249.486 37.192C248.942 37.192 248.457 37.0907 248.03 36.888C247.604 36.6747 247.268 36.3867 247.022 36.024C246.777 35.6613 246.654 35.2453 246.654 34.776C246.654 34.328 246.75 33.9227 246.942 33.56C247.134 33.1867 247.433 32.872 247.838 32.616C248.244 32.36 248.761 32.1787 249.39 32.072L252.75 31.512V32.6L249.678 33.112C249.06 33.2187 248.612 33.416 248.334 33.704C248.068 33.992 247.934 34.3333 247.934 34.728C247.934 35.112 248.084 35.4373 248.382 35.704C248.692 35.9707 249.086 36.104 249.566 36.104C250.153 36.104 250.665 35.9813 251.102 35.736C251.54 35.48 251.881 35.1387 252.126 34.712C252.372 34.2853 252.494 33.8107 252.494 33.288V31.112C252.494 30.6 252.308 30.184 251.934 29.864C251.561 29.544 251.076 29.384 250.478 29.384C249.956 29.384 249.497 29.5173 249.102 29.784C248.708 30.04 248.414 30.376 248.222 30.792L247.134 30.2C247.294 29.8373 247.545 29.5067 247.886 29.208C248.238 28.9093 248.638 28.6747 249.086 28.504C249.534 28.3227 249.998 28.232 250.478 28.232C251.108 28.232 251.662 28.3547 252.142 28.6C252.633 28.8453 253.012 29.1867 253.278 29.624C253.556 30.0507 253.694 30.5467 253.694 31.112V37H252.494V35.288L252.67 35.464C252.521 35.784 252.286 36.0773 251.966 36.344C251.657 36.6 251.289 36.808 250.862 36.968C250.446 37.1173 249.988 37.192 249.486 37.192ZM256.163 37V28.424H257.363V37H256.163ZM256.163 26.84V25.08H257.363V26.84H256.163ZM259.819 37V28.424H261.019V29.832L260.859 29.624C261.062 29.2187 261.366 28.8987 261.771 28.664C262.187 28.4293 262.688 28.312 263.275 28.312H263.819V29.512H263.067C262.448 29.512 261.952 29.704 261.579 30.088C261.206 30.472 261.019 31.016 261.019 31.72V37H259.819ZM269.129 37.192C268.329 37.192 267.604 37 266.953 36.616C266.313 36.2213 265.806 35.6827 265.433 35C265.06 34.3173 264.873 33.544 264.873 32.68C264.873 31.816 265.054 31.0533 265.417 30.392C265.78 29.72 266.27 29.192 266.889 28.808C267.518 28.424 268.222 28.232 269.001 28.232C269.62 28.232 270.169 28.3493 270.649 28.584C271.14 28.808 271.556 29.1173 271.897 29.512C272.238 29.896 272.5 30.3333 272.681 30.824C272.862 31.304 272.953 31.8 272.953 32.312C272.953 32.4187 272.948 32.5413 272.937 32.68C272.926 32.808 272.91 32.9413 272.889 33.08H265.641V31.96H272.201L271.625 32.44C271.721 31.8533 271.652 31.3307 271.417 30.872C271.193 30.4027 270.868 30.0347 270.441 29.768C270.014 29.4907 269.534 29.352 269.001 29.352C268.468 29.352 267.972 29.4907 267.513 29.768C267.065 30.0453 266.713 30.4347 266.457 30.936C266.201 31.4267 266.1 32.0133 266.153 32.696C266.1 33.3787 266.206 33.976 266.473 34.488C266.75 34.9893 267.124 35.3787 267.593 35.656C268.073 35.9333 268.585 36.072 269.129 36.072C269.758 36.072 270.286 35.9227 270.713 35.624C271.14 35.3253 271.486 34.952 271.753 34.504L272.777 35.048C272.606 35.432 272.345 35.7893 271.993 36.12C271.641 36.44 271.22 36.7013 270.729 36.904C270.249 37.096 269.716 37.192 269.129 37.192Z" fill="#00647b"/>
<mask id="path-3-outside-1_3970_262" maskUnits="userSpaceOnUse" x="20" y="11" width="51" height="41" fill="black">
<rect fill="white" x="20" y="11" width="51" height="41"/>
<path d="M36.7 50.6C33.7333 50.6 31.1333 49.8 28.9 48.2C26.6667 46.6 24.9167 44.35 23.65 41.45C22.4167 38.55 21.8 35.1833 21.8 31.35C21.8 27.4833 22.4167 24.1167 23.65 21.25C24.8833 18.3833 26.6167 16.15 28.85 14.55C31.0833 12.95 33.6833 12.15 36.65 12.15C39.6833 12.15 42.3 12.95 44.5 14.55C46.7333 16.15 48.4833 18.4 49.75 21.3C51.0167 24.1667 51.65 27.5167 51.65 31.35C51.65 35.1833 51.0167 38.55 49.75 41.45C48.5167 44.3167 46.7833 46.5667 44.55 48.2C42.3167 49.8 39.7 50.6 36.7 50.6ZM36.75 44.4C38.45 44.4 39.9 43.8833 41.1 42.85C42.3 41.7833 43.2167 40.2833 43.85 38.35C44.5167 36.3833 44.85 34.05 44.85 31.35C44.85 28.65 44.5167 26.3333 43.85 24.4C43.2167 22.4333 42.2833 20.9333 41.05 19.9C39.85 18.8667 38.3833 18.35 36.65 18.35C34.9833 18.35 33.55 18.8667 32.35 19.9C31.15 20.9333 30.2167 22.4333 29.55 24.4C28.9167 26.3333 28.6 28.65 28.6 31.35C28.6 34.0167 28.9167 36.3333 29.55 38.3C30.2167 40.2333 31.15 41.7333 32.35 42.8C33.5833 43.8667 35.05 44.4 36.75 44.4ZM63.0504 50V18.55H55.8504V12.75H69.8504V50H63.0504Z"/>
</mask>
<path d="M28.9 48.2L28.3176 49.0129L28.9 48.2ZM23.65 41.45L22.7297 41.8414L22.7336 41.8503L23.65 41.45ZM23.65 21.25L22.7314 20.8548H22.7314L23.65 21.25ZM28.85 14.55L28.2676 13.7371L28.85 14.55ZM44.5 14.55L43.9118 15.3588L43.9176 15.3629L44.5 14.55ZM49.75 21.3L48.8336 21.7003L48.8353 21.7042L49.75 21.3ZM49.75 41.45L48.8336 41.0497L48.8314 41.0548L49.75 41.45ZM44.55 48.2L45.1324 49.013L45.1403 49.0072L44.55 48.2ZM41.1 42.85L41.7525 43.6078L41.7585 43.6026L41.7644 43.5974L41.1 42.85ZM43.85 38.35L42.9029 38.0289L42.8997 38.0387L43.85 38.35ZM43.85 24.4L42.8981 24.7065L42.9013 24.7163L42.9046 24.726L43.85 24.4ZM41.05 19.9L40.3974 20.6578L40.4078 20.6665L41.05 19.9ZM32.35 19.9L31.6975 19.1422L31.6975 19.1422L32.35 19.9ZM29.55 24.4L28.6029 24.0789L28.5997 24.0887L29.55 24.4ZM29.55 38.3L28.5981 38.6065L28.6013 38.6163L28.6046 38.626L29.55 38.3ZM32.35 42.8L31.6856 43.5475L31.6958 43.5564L32.35 42.8ZM36.7 49.6C33.9246 49.6 31.5321 48.8556 29.4824 47.3871L28.3176 49.0129C30.7345 50.7444 33.542 51.6 36.7 51.6V49.6ZM29.4824 47.3871C27.4166 45.9071 25.7721 43.8101 24.5664 41.0497L22.7336 41.8503C24.0613 44.8899 25.9167 47.2929 28.3176 49.0129L29.4824 47.3871ZM24.5702 41.0586C23.3996 38.3061 22.8 35.0772 22.8 31.35H20.8C20.8 35.2894 21.4337 38.7939 22.7298 41.8414L24.5702 41.0586ZM22.8 31.35C22.8 27.5877 23.4002 24.361 24.5686 21.6452L22.7314 20.8548C21.4332 23.8723 20.8 27.379 20.8 31.35H22.8ZM24.5686 21.6452C25.74 18.9226 27.3663 16.8431 29.4324 15.3629L28.2676 13.7371C25.867 15.4569 24.0267 17.8441 22.7314 20.8548L24.5686 21.6452ZM29.4324 15.3629C31.4821 13.8944 33.8746 13.15 36.65 13.15V11.15C33.492 11.15 30.6845 12.0056 28.2676 13.7371L29.4324 15.3629ZM36.65 13.15C39.4975 13.15 41.9023 13.8972 43.9118 15.3587L45.0882 13.7413C42.6977 12.0028 39.8692 11.15 36.65 11.15V13.15ZM43.9176 15.3629C45.9834 16.8429 47.6279 18.9399 48.8336 21.7003L50.6664 20.8997C49.3387 17.8601 47.4833 15.4571 45.0824 13.7371L43.9176 15.3629ZM48.8353 21.7042C50.0346 24.4184 50.65 27.6255 50.65 31.35H52.65C52.65 27.4078 51.9987 23.9149 50.6647 20.8958L48.8353 21.7042ZM50.65 31.35C50.65 35.0741 50.0348 38.2997 48.8336 41.0497L50.6664 41.8503C51.9986 38.8003 52.65 35.2926 52.65 31.35H50.65ZM48.8314 41.0548C47.6595 43.7787 46.031 45.878 43.9597 47.3928L45.1403 49.0072C47.5357 47.2553 49.3738 44.8546 50.6686 41.8452L48.8314 41.0548ZM43.9676 47.3871C41.9198 48.8542 39.5113 49.6 36.7 49.6V51.6C39.8887 51.6 42.7135 50.7458 45.1324 49.0129L43.9676 47.3871ZM36.75 45.4C38.6705 45.4 40.3571 44.8094 41.7525 43.6078L40.4475 42.0922C39.4429 42.9573 38.2296 43.4 36.75 43.4V45.4ZM41.7644 43.5974C43.1275 42.3858 44.1264 40.7185 44.8003 38.6613L42.8997 38.0387C42.3069 39.8481 41.4725 41.1809 40.4356 42.1026L41.7644 43.5974ZM44.7971 38.671C45.5075 36.5752 45.85 34.1282 45.85 31.35H43.85C43.85 33.9718 43.5258 36.1914 42.9029 38.029L44.7971 38.671ZM45.85 31.35C45.85 28.5725 45.5077 26.1397 44.7954 24.074L42.9046 24.726C43.5256 26.5269 43.85 28.7275 43.85 31.35H45.85ZM44.8019 24.0935C44.1269 21.9977 43.1058 20.3179 41.6922 19.1335L40.4078 20.6665C41.4608 21.5488 42.3064 22.869 42.8981 24.7065L44.8019 24.0935ZM41.7025 19.1422C40.3034 17.9374 38.5985 17.35 36.65 17.35V19.35C38.1682 19.35 39.3966 19.7959 40.3975 20.6578L41.7025 19.1422ZM36.65 17.35C34.7575 17.35 33.0891 17.9439 31.6975 19.1422L33.0025 20.6578C34.0109 19.7894 35.2092 19.35 36.65 19.35V17.35ZM31.6975 19.1422C30.3261 20.3231 29.3096 21.9944 28.6029 24.079L30.4971 24.721C31.1238 22.8723 31.9739 21.5436 33.0025 20.6578L31.6975 19.1422ZM28.5997 24.0887C27.9247 26.1493 27.6 28.5767 27.6 31.35H29.6C29.6 28.7233 29.9087 26.5174 30.5003 24.7113L28.5997 24.0887ZM27.6 31.35C27.6 34.0921 27.9252 36.5168 28.5981 38.6065L30.5019 37.9935C29.9081 36.1498 29.6 33.9412 29.6 31.35H27.6ZM28.6046 38.626C29.3122 40.6781 30.3269 42.3396 31.6856 43.5474L33.0144 42.0526C31.9731 41.1271 31.1211 39.7886 30.4954 37.974L28.6046 38.626ZM31.6958 43.5564C33.1192 44.7873 34.8209 45.4 36.75 45.4V43.4C35.2791 43.4 34.0475 42.946 33.0042 42.0436L31.6958 43.5564ZM63.0504 50H62.0504V51H63.0504V50ZM63.0504 18.55H64.0504V17.55H63.0504V18.55ZM55.8504 18.55H54.8504V19.55H55.8504V18.55ZM55.8504 12.75V11.75H54.8504V12.75H55.8504ZM69.8504 12.75H70.8504V11.75H69.8504V12.75ZM69.8504 50V51H70.8504V50H69.8504ZM64.0504 50V18.55H62.0504V50H64.0504ZM63.0504 17.55H55.8504V19.55H63.0504V17.55ZM56.8504 18.55V12.75H54.8504V18.55H56.8504ZM55.8504 13.75H69.8504V11.75H55.8504V13.75ZM68.8504 12.75V50H70.8504V12.75H68.8504ZM69.8504 49H63.0504V51H69.8504V49Z" fill="#00647b" mask="url(#path-3-outside-1_3970_262)"/>
</svg>
