<svg width="285" height="96" viewBox="0 0 285 96" fill="none" xmlns="http://www.w3.org/2000/svg">
<rect x="0.249412" y="0.249412" width="283.401" height="95.5012" rx="9.72706" fill="white" stroke="#E3DBD8" stroke-width="0.498824"/>
<mask id="path-2-outside-1_3970_270" maskUnits="userSpaceOnUse" x="9" y="19" width="63" height="41" fill="black">
<rect fill="white" x="9" y="19" width="63" height="41"/>
<path d="M25.7 58.6C22.7333 58.6 20.1333 57.8 17.9 56.2C15.6667 54.6 13.9167 52.35 12.65 49.45C11.4167 46.55 10.8 43.1833 10.8 39.35C10.8 35.4833 11.4167 32.1167 12.65 29.25C13.8833 26.3833 15.6167 24.15 17.85 22.55C20.0833 20.95 22.6833 20.15 25.65 20.15C28.6833 20.15 31.3 20.95 33.5 22.55C35.7333 24.15 37.4833 26.4 38.75 29.3C40.0167 32.1667 40.65 35.5167 40.65 39.35C40.65 43.1833 40.0167 46.55 38.75 49.45C37.5167 52.3167 35.7833 54.5667 33.55 56.2C31.3167 57.8 28.7 58.6 25.7 58.6ZM25.75 52.4C27.45 52.4 28.9 51.8833 30.1 50.85C31.3 49.7833 32.2167 48.2833 32.85 46.35C33.5167 44.3833 33.85 42.05 33.85 39.35C33.85 36.65 33.5167 34.3333 32.85 32.4C32.2167 30.4333 31.2833 28.9333 30.05 27.9C28.85 26.8667 27.3833 26.35 25.65 26.35C23.9833 26.35 22.55 26.8667 21.35 27.9C20.15 28.9333 19.2167 30.4333 18.55 32.4C17.9167 34.3333 17.6 36.65 17.6 39.35C17.6 42.0167 17.9167 44.3333 18.55 46.3C19.2167 48.2333 20.15 49.7333 21.35 50.8C22.5833 51.8667 24.05 52.4 25.75 52.4ZM45.7004 58V52.85L55.8004 42.3C57.8004 40.2 59.3337 38.5333 60.4004 37.3C61.5004 36.0333 62.2671 34.95 62.7004 34.05C63.1337 33.15 63.3504 32.2333 63.3504 31.3C63.3504 29.7333 62.8504 28.5 61.8504 27.6C60.8837 26.7 59.6337 26.25 58.1004 26.25C56.5004 26.25 55.1171 26.7167 53.9504 27.65C52.7837 28.55 51.9337 29.8833 51.4004 31.65L45.4504 29.8C45.8504 27.8333 46.6671 26.1333 47.9004 24.7C49.1337 23.2333 50.6337 22.1167 52.4004 21.35C54.2004 20.55 56.1004 20.15 58.1004 20.15C60.5004 20.15 62.6004 20.5833 64.4004 21.45C66.2337 22.3167 67.6504 23.5333 68.6504 25.1C69.6837 26.6667 70.2004 28.5 70.2004 30.6C70.2004 31.9333 69.9504 33.25 69.4504 34.55C68.9504 35.85 68.2004 37.1833 67.2004 38.55C66.2004 39.8833 64.9004 41.3833 63.3004 43.05L54.5504 52.25H70.7004V58H45.7004Z"/>
</mask>
<path d="M17.9 56.2L17.3176 57.0129L17.9 56.2ZM12.65 49.45L11.7297 49.8414L11.7336 49.8503L12.65 49.45ZM12.65 29.25L11.7314 28.8548H11.7314L12.65 29.25ZM17.85 22.55L17.2676 21.7371L17.85 22.55ZM33.5 22.55L32.9118 23.3588L32.9176 23.3629L33.5 22.55ZM38.75 29.3L37.8336 29.7003L37.8353 29.7042L38.75 29.3ZM38.75 49.45L37.8336 49.0497L37.8314 49.0548L38.75 49.45ZM33.55 56.2L34.1324 57.013L34.1403 57.0072L33.55 56.2ZM30.1 50.85L30.7525 51.6078L30.7585 51.6026L30.7644 51.5974L30.1 50.85ZM32.85 46.35L31.9029 46.0289L31.8997 46.0387L32.85 46.35ZM32.85 32.4L31.8981 32.7065L31.9013 32.7163L31.9046 32.726L32.85 32.4ZM30.05 27.9L29.3974 28.6578L29.4078 28.6665L30.05 27.9ZM21.35 27.9L20.6975 27.1422L20.6975 27.1422L21.35 27.9ZM18.55 32.4L17.6029 32.0789L17.5997 32.0887L18.55 32.4ZM18.55 46.3L17.5981 46.6065L17.6013 46.6163L17.6046 46.626L18.55 46.3ZM21.35 50.8L20.6856 51.5475L20.6958 51.5564L21.35 50.8ZM25.7 57.6C22.9246 57.6 20.5321 56.8556 18.4824 55.3871L17.3176 57.0129C19.7345 58.7444 22.542 59.6 25.7 59.6V57.6ZM18.4824 55.3871C16.4166 53.9071 14.7721 51.8101 13.5664 49.0497L11.7336 49.8503C13.0613 52.8899 14.9167 55.2929 17.3176 57.0129L18.4824 55.3871ZM13.5702 49.0586C12.3996 46.3061 11.8 43.0772 11.8 39.35H9.8C9.8 43.2894 10.4337 46.7939 11.7298 49.8414L13.5702 49.0586ZM11.8 39.35C11.8 35.5877 12.4002 32.361 13.5686 29.6452L11.7314 28.8548C10.4332 31.8723 9.8 35.379 9.8 39.35H11.8ZM13.5686 29.6452C14.74 26.9226 16.3663 24.8431 18.4324 23.3629L17.2676 21.7371C14.867 23.4569 13.0267 25.8441 11.7314 28.8548L13.5686 29.6452ZM18.4324 23.3629C20.4821 21.8944 22.8746 21.15 25.65 21.15V19.15C22.492 19.15 19.6845 20.0056 17.2676 21.7371L18.4324 23.3629ZM25.65 21.15C28.4975 21.15 30.9023 21.8972 32.9118 23.3587L34.0882 21.7413C31.6977 20.0028 28.8692 19.15 25.65 19.15V21.15ZM32.9176 23.3629C34.9834 24.8429 36.6279 26.9399 37.8336 29.7003L39.6664 28.8997C38.3387 25.8601 36.4833 23.4571 34.0824 21.7371L32.9176 23.3629ZM37.8353 29.7042C39.0346 32.4184 39.65 35.6255 39.65 39.35H41.65C41.65 35.4078 40.9987 31.9149 39.6647 28.8958L37.8353 29.7042ZM39.65 39.35C39.65 43.0741 39.0348 46.2997 37.8336 49.0497L39.6664 49.8503C40.9986 46.8003 41.65 43.2926 41.65 39.35H39.65ZM37.8314 49.0548C36.6595 51.7787 35.031 53.878 32.9597 55.3928L34.1403 57.0072C36.5357 55.2553 38.3738 52.8546 39.6686 49.8452L37.8314 49.0548ZM32.9676 55.3871C30.9198 56.8542 28.5113 57.6 25.7 57.6V59.6C28.8887 59.6 31.7135 58.7458 34.1324 57.0129L32.9676 55.3871ZM25.75 53.4C27.6705 53.4 29.3571 52.8094 30.7525 51.6078L29.4475 50.0922C28.4429 50.9573 27.2296 51.4 25.75 51.4V53.4ZM30.7644 51.5974C32.1275 50.3858 33.1264 48.7185 33.8003 46.6613L31.8997 46.0387C31.3069 47.8481 30.4725 49.1809 29.4356 50.1026L30.7644 51.5974ZM33.7971 46.671C34.5075 44.5752 34.85 42.1282 34.85 39.35H32.85C32.85 41.9718 32.5258 44.1914 31.9029 46.029L33.7971 46.671ZM34.85 39.35C34.85 36.5725 34.5077 34.1397 33.7954 32.074L31.9046 32.726C32.5256 34.5269 32.85 36.7275 32.85 39.35H34.85ZM33.8019 32.0935C33.1269 29.9977 32.1058 28.3179 30.6922 27.1335L29.4078 28.6665C30.4608 29.5488 31.3064 30.869 31.8981 32.7065L33.8019 32.0935ZM30.7025 27.1422C29.3034 25.9374 27.5985 25.35 25.65 25.35V27.35C27.1682 27.35 28.3966 27.7959 29.3975 28.6578L30.7025 27.1422ZM25.65 25.35C23.7575 25.35 22.0891 25.9439 20.6975 27.1422L22.0025 28.6578C23.0109 27.7894 24.2092 27.35 25.65 27.35V25.35ZM20.6975 27.1422C19.3261 28.3231 18.3096 29.9944 17.6029 32.079L19.4971 32.721C20.1238 30.8723 20.9739 29.5436 22.0025 28.6578L20.6975 27.1422ZM17.5997 32.0887C16.9247 34.1493 16.6 36.5767 16.6 39.35H18.6C18.6 36.7233 18.9087 34.5174 19.5003 32.7113L17.5997 32.0887ZM16.6 39.35C16.6 42.0921 16.9252 44.5168 17.5981 46.6065L19.5019 45.9935C18.9081 44.1498 18.6 41.9412 18.6 39.35H16.6ZM17.6046 46.626C18.3122 48.6781 19.3269 50.3396 20.6856 51.5474L22.0144 50.0526C20.9731 49.1271 20.1211 47.7886 19.4954 45.974L17.6046 46.626ZM20.6958 51.5564C22.1192 52.7873 23.8209 53.4 25.75 53.4V51.4C24.2791 51.4 23.0475 50.946 22.0042 50.0436L20.6958 51.5564ZM45.7004 58H44.7004V59H45.7004V58ZM45.7004 52.85L44.978 52.1585L44.7004 52.4485V52.85H45.7004ZM55.8004 42.3L56.5227 42.9915L56.5245 42.9897L55.8004 42.3ZM60.4004 37.3L59.6454 36.6443L59.644 36.6458L60.4004 37.3ZM62.7004 34.05L61.7994 33.6162V33.6162L62.7004 34.05ZM61.8504 27.6L61.169 28.3319L61.1752 28.3376L61.1814 28.3433L61.8504 27.6ZM53.9504 27.65L54.5612 28.4418L54.5682 28.4364L54.5751 28.4309L53.9504 27.65ZM51.4004 31.65L51.1035 32.6049L52.0663 32.9043L52.3577 31.939L51.4004 31.65ZM45.4504 29.8L44.4705 29.6007L44.2903 30.4865L45.1535 30.7549L45.4504 29.8ZM47.9004 24.7L48.6585 25.3523L48.6658 25.3436L47.9004 24.7ZM52.4004 21.35L52.7985 22.2674L52.8065 22.2638L52.4004 21.35ZM64.4004 21.45L63.9666 22.351L63.973 22.3541L64.4004 21.45ZM68.6504 25.1L67.8075 25.638L67.8115 25.6443L67.8156 25.6506L68.6504 25.1ZM67.2004 38.55L68.0004 39.15L68.0074 39.1405L67.2004 38.55ZM63.3004 43.05L62.579 42.3575L62.5758 42.3608L63.3004 43.05ZM54.5504 52.25L53.8258 51.5608L52.2192 53.25H54.5504V52.25ZM70.7004 52.25H71.7004V51.25H70.7004V52.25ZM70.7004 58V59H71.7004V58H70.7004ZM46.7004 58V52.85H44.7004V58H46.7004ZM46.4227 53.5415L56.5227 42.9915L55.078 41.6085L44.978 52.1585L46.4227 53.5415ZM56.5245 42.9897C58.5285 40.8855 60.0746 39.2054 61.1568 37.9541L59.644 36.6458C58.5929 37.8613 57.0723 39.5145 55.0763 41.6103L56.5245 42.9897ZM61.1554 37.9557C62.28 36.6607 63.1122 35.4999 63.6014 34.4838L61.7994 33.6162C61.4219 34.4001 60.7208 35.4059 59.6454 36.6443L61.1554 37.9557ZM63.6014 34.4838C64.0952 33.4582 64.3504 32.3939 64.3504 31.3H62.3504C62.3504 32.0727 62.1722 32.8418 61.7994 33.6162L63.6014 34.4838ZM64.3504 31.3C64.3504 29.5011 63.7654 27.9781 62.5194 26.8567L61.1814 28.3433C61.9354 29.0219 62.3504 29.9656 62.3504 31.3H64.3504ZM62.5318 26.8681C61.3505 25.7683 59.8431 25.25 58.1004 25.25V27.25C59.4244 27.25 60.417 27.6317 61.169 28.3319L62.5318 26.8681ZM58.1004 25.25C56.2906 25.25 54.6827 25.7835 53.3257 26.8691L54.5751 28.4309C55.5514 27.6498 56.7102 27.25 58.1004 27.25V25.25ZM53.3396 26.8582C51.9702 27.9146 51.0213 29.4455 50.4431 31.361L52.3577 31.939C52.8461 30.3211 53.5972 29.1854 54.5612 28.4418L53.3396 26.8582ZM51.6973 30.6951L45.7473 28.8451L45.1535 30.7549L51.1035 32.6049L51.6973 30.6951ZM46.4303 29.9993C46.7984 28.1895 47.5434 26.6481 48.6584 25.3522L47.1424 24.0478C45.7907 25.6186 44.9024 27.4772 44.4705 29.6007L46.4303 29.9993ZM48.6658 25.3436C49.799 23.996 51.173 22.9727 52.7985 22.2673L52.0023 20.4327C50.0944 21.2606 48.4685 22.4707 47.135 24.0564L48.6658 25.3436ZM52.8065 22.2638C54.4767 21.5215 56.2381 21.15 58.1004 21.15V19.15C55.9627 19.15 53.9241 19.5785 51.9943 20.4362L52.8065 22.2638ZM58.1004 21.15C60.38 21.15 62.3264 21.5613 63.9666 22.351L64.8342 20.549C62.8743 19.6054 60.6208 19.15 58.1004 19.15V21.15ZM63.973 22.3541C65.6522 23.1479 66.9179 24.2444 67.8075 25.638L69.4933 24.562C68.3829 22.8222 66.8152 21.4855 64.8278 20.5459L63.973 22.3541ZM67.8156 25.6506C68.7286 27.0348 69.2004 28.6716 69.2004 30.6H71.2004C71.2004 28.3284 70.6388 26.2985 69.4852 24.5494L67.8156 25.6506ZM69.2004 30.6C69.2004 31.8052 68.975 33.0004 68.517 34.191L70.3837 34.909C70.9258 33.4996 71.2004 32.0615 71.2004 30.6H69.2004ZM68.517 34.191C68.0547 35.3931 67.352 36.6493 66.3934 37.9595L68.0074 39.1405C69.0488 37.7173 69.8461 36.3069 70.3837 34.909L68.517 34.191ZM66.4004 37.95C65.4319 39.2413 64.1608 40.7098 62.579 42.3575L64.0218 43.7425C65.64 42.0569 66.9688 40.5254 68.0004 39.15L66.4004 37.95ZM62.5758 42.3608L53.8258 51.5608L55.275 52.9392L64.025 43.7392L62.5758 42.3608ZM54.5504 53.25H70.7004V51.25H54.5504V53.25ZM69.7004 52.25V58H71.7004V52.25H69.7004ZM70.7004 57H45.7004V59H70.7004V57Z" fill="#00647b" mask="url(#path-2-outside-1_3970_270)"/>
<path d="M91.5775 38.192C90.7348 38.192 89.9615 38.0427 89.2575 37.744C88.5535 37.4347 87.9402 37.008 87.4175 36.464C86.9055 35.9093 86.5055 35.2587 86.2175 34.512C85.9295 33.7653 85.7855 32.944 85.7855 32.048C85.7855 31.152 85.9295 30.3307 86.2175 29.584C86.5055 28.8373 86.9055 28.1867 87.4175 27.632C87.9402 27.0773 88.5535 26.6507 89.2575 26.352C89.9615 26.0427 90.7348 25.888 91.5775 25.888C92.3882 25.888 93.1135 26.032 93.7535 26.32C94.4042 26.608 94.9482 26.9813 95.3855 27.44C95.8335 27.888 96.1535 28.3627 96.3455 28.864L95.1455 29.392C94.8468 28.6987 94.3882 28.144 93.7695 27.728C93.1615 27.3013 92.4308 27.088 91.5775 27.088C90.7028 27.088 89.9242 27.296 89.2415 27.712C88.5588 28.128 88.0255 28.7093 87.6415 29.456C87.2575 30.192 87.0655 31.056 87.0655 32.048C87.0655 33.0293 87.2575 33.8933 87.6415 34.64C88.0255 35.3867 88.5588 35.968 89.2415 36.384C89.9242 36.7893 90.7028 36.992 91.5775 36.992C92.4308 36.992 93.1615 36.784 93.7695 36.368C94.3882 35.952 94.8468 35.3973 95.1455 34.704L96.3455 35.232C96.1535 35.7227 95.8335 36.1973 95.3855 36.656C94.9482 37.104 94.4042 37.472 93.7535 37.76C93.1135 38.048 92.3882 38.192 91.5775 38.192ZM98.4615 38V25.888H99.6615V31.088L99.3895 31.024C99.6028 30.4693 99.9495 30.032 100.429 29.712C100.92 29.392 101.485 29.232 102.125 29.232C102.733 29.232 103.277 29.3707 103.757 29.648C104.248 29.9253 104.632 30.3093 104.909 30.8C105.197 31.28 105.341 31.824 105.341 32.432V38H104.141V32.896C104.141 32.3733 104.045 31.9307 103.853 31.568C103.661 31.2053 103.395 30.928 103.053 30.736C102.723 30.5333 102.344 30.432 101.917 30.432C101.491 30.432 101.107 30.5333 100.765 30.736C100.424 30.928 100.152 31.2107 99.9495 31.584C99.7575 31.9467 99.6615 32.384 99.6615 32.896V38H98.4615ZM110.113 38.192C109.569 38.192 109.084 38.0907 108.657 37.888C108.231 37.6747 107.895 37.3867 107.649 37.024C107.404 36.6613 107.281 36.2453 107.281 35.776C107.281 35.328 107.377 34.9227 107.569 34.56C107.761 34.1867 108.06 33.872 108.465 33.616C108.871 33.36 109.388 33.1787 110.017 33.072L113.377 32.512V33.6L110.305 34.112C109.687 34.2187 109.239 34.416 108.961 34.704C108.695 34.992 108.561 35.3333 108.561 35.728C108.561 36.112 108.711 36.4373 109.009 36.704C109.319 36.9707 109.713 37.104 110.193 37.104C110.78 37.104 111.292 36.9813 111.729 36.736C112.167 36.48 112.508 36.1387 112.753 35.712C112.999 35.2853 113.121 34.8107 113.121 34.288V32.112C113.121 31.6 112.935 31.184 112.561 30.864C112.188 30.544 111.703 30.384 111.105 30.384C110.583 30.384 110.124 30.5173 109.729 30.784C109.335 31.04 109.041 31.376 108.849 31.792L107.761 31.2C107.921 30.8373 108.172 30.5067 108.513 30.208C108.865 29.9093 109.265 29.6747 109.713 29.504C110.161 29.3227 110.625 29.232 111.105 29.232C111.735 29.232 112.289 29.3547 112.769 29.6C113.26 29.8453 113.639 30.1867 113.905 30.624C114.183 31.0507 114.321 31.5467 114.321 32.112V38H113.121V36.288L113.297 36.464C113.148 36.784 112.913 37.0773 112.593 37.344C112.284 37.6 111.916 37.808 111.489 37.968C111.073 38.1173 110.615 38.192 110.113 38.192ZM116.79 38V29.424H117.99V30.832L117.83 30.624C118.032 30.2187 118.336 29.8987 118.742 29.664C119.158 29.4293 119.659 29.312 120.246 29.312H120.79V30.512H120.038C119.419 30.512 118.923 30.704 118.55 31.088C118.176 31.472 117.99 32.016 117.99 32.72V38H116.79ZM126.26 41.52C125.673 41.52 125.129 41.4293 124.628 41.248C124.137 41.0667 123.711 40.816 123.348 40.496C122.996 40.1867 122.724 39.824 122.532 39.408L123.636 38.816C123.807 39.2213 124.111 39.5733 124.548 39.872C124.985 40.1707 125.545 40.32 126.228 40.32C126.751 40.32 127.231 40.2187 127.668 40.016C128.105 39.8133 128.457 39.5147 128.724 39.12C128.991 38.7253 129.124 38.24 129.124 37.664V35.76L129.316 35.936C129.017 36.5547 128.575 37.0347 127.988 37.376C127.401 37.7067 126.761 37.872 126.068 37.872C125.268 37.872 124.548 37.68 123.908 37.296C123.268 36.912 122.761 36.3947 122.388 35.744C122.025 35.0827 121.844 34.352 121.844 33.552C121.844 32.7413 122.025 32.0107 122.388 31.36C122.761 30.7093 123.263 30.192 123.892 29.808C124.532 29.424 125.257 29.232 126.068 29.232C126.761 29.232 127.391 29.392 127.956 29.712C128.532 30.032 128.985 30.464 129.316 31.008L129.124 31.344V29.424H130.324V37.664C130.324 38.4 130.148 39.056 129.796 39.632C129.455 40.2187 128.975 40.6773 128.356 41.008C127.748 41.3493 127.049 41.52 126.26 41.52ZM126.132 36.672C126.687 36.672 127.188 36.5333 127.636 36.256C128.084 35.968 128.441 35.5893 128.708 35.12C128.985 34.64 129.124 34.1173 129.124 33.552C129.124 32.9867 128.985 32.4693 128.708 32C128.441 31.52 128.084 31.1413 127.636 30.864C127.188 30.576 126.687 30.432 126.132 30.432C125.567 30.432 125.055 30.576 124.596 30.864C124.137 31.1413 123.775 31.5147 123.508 31.984C123.252 32.4533 123.124 32.976 123.124 33.552C123.124 34.1173 123.252 34.64 123.508 35.12C123.775 35.5893 124.132 35.968 124.58 36.256C125.039 36.5333 125.556 36.672 126.132 36.672ZM136.694 38.192C135.894 38.192 135.168 38 134.518 37.616C133.878 37.2213 133.371 36.6827 132.998 36C132.624 35.3173 132.438 34.544 132.438 33.68C132.438 32.816 132.619 32.0533 132.982 31.392C133.344 30.72 133.835 30.192 134.454 29.808C135.083 29.424 135.787 29.232 136.566 29.232C137.184 29.232 137.734 29.3493 138.214 29.584C138.704 29.808 139.12 30.1173 139.462 30.512C139.803 30.896 140.064 31.3333 140.246 31.824C140.427 32.304 140.518 32.8 140.518 33.312C140.518 33.4187 140.512 33.5413 140.502 33.68C140.491 33.808 140.475 33.9413 140.454 34.08H133.206V32.96H139.766L139.19 33.44C139.286 32.8533 139.216 32.3307 138.982 31.872C138.758 31.4027 138.432 31.0347 138.006 30.768C137.579 30.4907 137.099 30.352 136.566 30.352C136.032 30.352 135.536 30.4907 135.078 30.768C134.63 31.0453 134.278 31.4347 134.022 31.936C133.766 32.4267 133.664 33.0133 133.718 33.696C133.664 34.3787 133.771 34.976 134.038 35.488C134.315 35.9893 134.688 36.3787 135.158 36.656C135.638 36.9333 136.15 37.072 136.694 37.072C137.323 37.072 137.851 36.9227 138.278 36.624C138.704 36.3253 139.051 35.952 139.318 35.504L140.342 36.048C140.171 36.432 139.91 36.7893 139.558 37.12C139.206 37.44 138.784 37.7013 138.294 37.904C137.814 38.096 137.28 38.192 136.694 38.192ZM141.753 38V36.96L146.921 30.16L147.145 30.624H142.025V29.424H148.201V30.464L143.049 37.264L142.825 36.8H148.233V38H141.753ZM152.54 38V25.888H153.74V38H152.54ZM160.1 38.192C159.3 38.192 158.575 38 157.924 37.616C157.284 37.2213 156.777 36.6827 156.404 36C156.031 35.3173 155.844 34.544 155.844 33.68C155.844 32.816 156.025 32.0533 156.388 31.392C156.751 30.72 157.241 30.192 157.86 29.808C158.489 29.424 159.193 29.232 159.972 29.232C160.591 29.232 161.14 29.3493 161.62 29.584C162.111 29.808 162.527 30.1173 162.868 30.512C163.209 30.896 163.471 31.3333 163.652 31.824C163.833 32.304 163.924 32.8 163.924 33.312C163.924 33.4187 163.919 33.5413 163.908 33.68C163.897 33.808 163.881 33.9413 163.86 34.08H156.612V32.96H163.172L162.596 33.44C162.692 32.8533 162.623 32.3307 162.388 31.872C162.164 31.4027 161.839 31.0347 161.412 30.768C160.985 30.4907 160.505 30.352 159.972 30.352C159.439 30.352 158.943 30.4907 158.484 30.768C158.036 31.0453 157.684 31.4347 157.428 31.936C157.172 32.4267 157.071 33.0133 157.124 33.696C157.071 34.3787 157.177 34.976 157.444 35.488C157.721 35.9893 158.095 36.3787 158.564 36.656C159.044 36.9333 159.556 37.072 160.1 37.072C160.729 37.072 161.257 36.9227 161.684 36.624C162.111 36.3253 162.457 35.952 162.724 35.504L163.748 36.048C163.577 36.432 163.316 36.7893 162.964 37.12C162.612 37.44 162.191 37.7013 161.7 37.904C161.22 38.096 160.687 38.192 160.1 38.192ZM169.016 38.192C168.194 38.192 167.474 37.984 166.856 37.568C166.237 37.152 165.789 36.5867 165.512 35.872L166.52 35.392C166.765 35.9147 167.106 36.3307 167.544 36.64C167.992 36.9493 168.482 37.104 169.016 37.104C169.528 37.104 169.96 36.9813 170.312 36.736C170.664 36.48 170.84 36.1493 170.84 35.744C170.84 35.4453 170.754 35.2107 170.584 35.04C170.413 34.8587 170.216 34.72 169.992 34.624C169.768 34.528 169.57 34.4587 169.4 34.416L168.168 34.064C167.378 33.84 166.808 33.5253 166.456 33.12C166.104 32.7147 165.928 32.2453 165.928 31.712C165.928 31.2107 166.056 30.7733 166.312 30.4C166.568 30.0267 166.914 29.7387 167.352 29.536C167.789 29.3333 168.274 29.232 168.808 29.232C169.533 29.232 170.189 29.424 170.776 29.808C171.373 30.1813 171.794 30.704 172.04 31.376L171.016 31.856C170.802 31.376 170.493 31.0027 170.088 30.736C169.693 30.4587 169.25 30.32 168.76 30.32C168.28 30.32 167.896 30.4427 167.608 30.688C167.32 30.9333 167.176 31.2427 167.176 31.616C167.176 31.904 167.25 32.1333 167.4 32.304C167.549 32.4747 167.72 32.6027 167.912 32.688C168.114 32.7733 168.29 32.8373 168.44 32.88L169.864 33.296C170.557 33.4987 171.096 33.8133 171.48 34.24C171.874 34.6667 172.072 35.168 172.072 35.744C172.072 36.2133 171.938 36.6347 171.672 37.008C171.416 37.3813 171.058 37.6747 170.6 37.888C170.141 38.0907 169.613 38.192 169.016 38.192ZM180.771 38.192C179.971 38.192 179.251 38 178.611 37.616C177.971 37.2213 177.464 36.688 177.091 36.016C176.728 35.3333 176.547 34.5653 176.547 33.712C176.547 32.848 176.728 32.08 177.091 31.408C177.464 30.736 177.966 30.208 178.595 29.824C179.235 29.4293 179.96 29.232 180.771 29.232C181.507 29.232 182.163 29.392 182.739 29.712C183.315 30.032 183.768 30.464 184.099 31.008L183.907 31.344V25.888H185.107V38H183.907V36.08L184.099 36.256C183.8 36.8747 183.352 37.3547 182.755 37.696C182.168 38.0267 181.507 38.192 180.771 38.192ZM180.835 36.992C181.411 36.992 181.928 36.848 182.387 36.56C182.856 36.272 183.224 35.8827 183.491 35.392C183.768 34.8907 183.907 34.3307 183.907 33.712C183.907 33.0933 183.768 32.5387 183.491 32.048C183.224 31.5467 182.856 31.152 182.387 30.864C181.928 30.576 181.411 30.432 180.835 30.432C180.27 30.432 179.758 30.576 179.299 30.864C178.84 31.152 178.478 31.5413 178.211 32.032C177.955 32.5227 177.827 33.0827 177.827 33.712C177.827 34.3307 177.955 34.8907 178.211 35.392C178.478 35.8827 178.835 36.272 179.283 36.56C179.742 36.848 180.259 36.992 180.835 36.992ZM191.587 38.192C190.776 38.192 190.04 38 189.379 37.616C188.718 37.2213 188.19 36.688 187.795 36.016C187.411 35.3333 187.219 34.56 187.219 33.696C187.219 32.8427 187.411 32.08 187.795 31.408C188.179 30.736 188.696 30.208 189.347 29.824C190.008 29.4293 190.755 29.232 191.587 29.232C192.419 29.232 193.16 29.424 193.811 29.808C194.472 30.192 194.99 30.72 195.363 31.392C195.747 32.064 195.939 32.832 195.939 33.696C195.939 34.5707 195.742 35.3493 195.347 36.032C194.952 36.704 194.424 37.232 193.763 37.616C193.112 38 192.387 38.192 191.587 38.192ZM191.587 36.992C192.163 36.992 192.68 36.848 193.139 36.56C193.608 36.272 193.976 35.8773 194.243 35.376C194.52 34.8747 194.659 34.3147 194.659 33.696C194.659 33.0773 194.52 32.5227 194.243 32.032C193.976 31.5413 193.608 31.152 193.139 30.864C192.68 30.576 192.163 30.432 191.587 30.432C191.011 30.432 190.488 30.576 190.019 30.864C189.56 31.152 189.192 31.5413 188.915 32.032C188.638 32.5227 188.499 33.0773 188.499 33.696C188.499 34.3147 188.638 34.8747 188.915 35.376C189.192 35.8773 189.56 36.272 190.019 36.56C190.488 36.848 191.011 36.992 191.587 36.992ZM201.975 38.192C201.133 38.192 200.391 37.9947 199.751 37.6C199.111 37.2053 198.61 36.672 198.247 36C197.885 35.3173 197.703 34.5493 197.703 33.696C197.703 32.8427 197.885 32.08 198.247 31.408C198.61 30.736 199.111 30.208 199.751 29.824C200.391 29.4293 201.133 29.232 201.975 29.232C202.509 29.232 203.01 29.328 203.479 29.52C203.949 29.712 204.365 29.9733 204.727 30.304C205.09 30.624 205.362 30.9973 205.543 31.424L204.455 31.984C204.242 31.5253 203.917 31.152 203.479 30.864C203.042 30.576 202.541 30.432 201.975 30.432C201.41 30.432 200.898 30.576 200.439 30.864C199.991 31.1413 199.634 31.5307 199.367 32.032C199.111 32.5227 198.983 33.0827 198.983 33.712C198.983 34.3307 199.111 34.8907 199.367 35.392C199.634 35.8827 199.991 36.272 200.439 36.56C200.898 36.848 201.41 36.992 201.975 36.992C202.541 36.992 203.037 36.848 203.463 36.56C203.901 36.272 204.231 35.888 204.455 35.408L205.543 36C205.362 36.416 205.09 36.7893 204.727 37.12C204.365 37.4507 203.949 37.712 203.479 37.904C203.01 38.096 202.509 38.192 201.975 38.192ZM210.689 38.192C210.092 38.192 209.548 38.0533 209.057 37.776C208.566 37.488 208.177 37.0933 207.889 36.592C207.612 36.08 207.473 35.4933 207.473 34.832V29.424H208.673V34.688C208.673 35.1467 208.764 35.552 208.945 35.904C209.137 36.2453 209.398 36.512 209.729 36.704C210.07 36.896 210.46 36.992 210.897 36.992C211.334 36.992 211.724 36.896 212.065 36.704C212.406 36.5013 212.673 36.2187 212.865 35.856C213.057 35.4827 213.153 35.04 213.153 34.528V29.424H214.353V38H213.153V36.336L213.425 36.4C213.222 36.9547 212.876 37.392 212.385 37.712C211.894 38.032 211.329 38.192 210.689 38.192ZM216.821 38V29.424H218.021V31.056L217.829 30.816C218.064 30.3147 218.41 29.9253 218.869 29.648C219.338 29.3707 219.85 29.232 220.405 29.232C221.066 29.232 221.664 29.4187 222.197 29.792C222.73 30.1653 223.109 30.6507 223.333 31.248L222.997 31.264C223.21 30.6027 223.578 30.1013 224.101 29.76C224.634 29.408 225.221 29.232 225.861 29.232C226.437 29.232 226.965 29.3707 227.445 29.648C227.936 29.9253 228.325 30.3093 228.613 30.8C228.912 31.28 229.061 31.824 229.061 32.432V38H227.861V32.896C227.861 32.3733 227.765 31.9307 227.573 31.568C227.392 31.2053 227.141 30.928 226.821 30.736C226.501 30.5333 226.133 30.432 225.717 30.432C225.312 30.432 224.944 30.5333 224.613 30.736C224.282 30.928 224.021 31.2107 223.829 31.584C223.637 31.9467 223.541 32.384 223.541 32.896V38H222.341V32.896C222.341 32.3733 222.245 31.9307 222.053 31.568C221.872 31.2053 221.621 30.928 221.301 30.736C220.981 30.5333 220.613 30.432 220.197 30.432C219.781 30.432 219.408 30.5333 219.077 30.736C218.757 30.928 218.501 31.2107 218.309 31.584C218.117 31.9467 218.021 32.384 218.021 32.896V38H216.821ZM235.256 38.192C234.456 38.192 233.731 38 233.08 37.616C232.44 37.2213 231.933 36.6827 231.56 36C231.187 35.3173 231 34.544 231 33.68C231 32.816 231.181 32.0533 231.544 31.392C231.907 30.72 232.397 30.192 233.016 29.808C233.645 29.424 234.349 29.232 235.128 29.232C235.747 29.232 236.296 29.3493 236.776 29.584C237.267 29.808 237.683 30.1173 238.024 30.512C238.365 30.896 238.627 31.3333 238.808 31.824C238.989 32.304 239.08 32.8 239.08 33.312C239.08 33.4187 239.075 33.5413 239.064 33.68C239.053 33.808 239.037 33.9413 239.016 34.08H231.768V32.96H238.328L237.752 33.44C237.848 32.8533 237.779 32.3307 237.544 31.872C237.32 31.4027 236.995 31.0347 236.568 30.768C236.141 30.4907 235.661 30.352 235.128 30.352C234.595 30.352 234.099 30.4907 233.64 30.768C233.192 31.0453 232.84 31.4347 232.584 31.936C232.328 32.4267 232.227 33.0133 232.28 33.696C232.227 34.3787 232.333 34.976 232.6 35.488C232.877 35.9893 233.251 36.3787 233.72 36.656C234.2 36.9333 234.712 37.072 235.256 37.072C235.885 37.072 236.413 36.9227 236.84 36.624C237.267 36.3253 237.613 35.952 237.88 35.504L238.904 36.048C238.733 36.432 238.472 36.7893 238.12 37.12C237.768 37.44 237.347 37.7013 236.856 37.904C236.376 38.096 235.843 38.192 235.256 38.192ZM241.196 38V29.424H242.396V31.088L242.124 31.024C242.337 30.4693 242.684 30.032 243.164 29.712C243.655 29.392 244.22 29.232 244.86 29.232C245.468 29.232 246.012 29.3707 246.492 29.648C246.983 29.9253 247.367 30.3093 247.644 30.8C247.932 31.28 248.076 31.824 248.076 32.432V38H246.876V32.896C246.876 32.3733 246.78 31.9307 246.588 31.568C246.407 31.2053 246.145 30.928 245.804 30.736C245.473 30.5333 245.089 30.432 244.652 30.432C244.215 30.432 243.825 30.5333 243.484 30.736C243.143 30.928 242.876 31.2107 242.684 31.584C242.492 31.9467 242.396 32.384 242.396 32.896V38H241.196ZM253.648 38.096C252.88 38.096 252.288 37.872 251.872 37.424C251.456 36.976 251.248 36.336 251.248 35.504V30.624H249.664V29.424H250.064C250.426 29.424 250.714 29.3067 250.928 29.072C251.141 28.8267 251.248 28.5227 251.248 28.16V27.44H252.448V29.424H254.336V30.624H252.448V35.504C252.448 35.792 252.49 36.048 252.576 36.272C252.661 36.4853 252.805 36.656 253.008 36.784C253.221 36.912 253.504 36.976 253.856 36.976C253.941 36.976 254.042 36.9707 254.16 36.96C254.277 36.9493 254.378 36.9387 254.464 36.928V38C254.336 38.032 254.192 38.0533 254.032 38.064C253.872 38.0853 253.744 38.096 253.648 38.096ZM259.547 38.192C258.726 38.192 258.006 37.984 257.387 37.568C256.768 37.152 256.32 36.5867 256.043 35.872L257.051 35.392C257.296 35.9147 257.638 36.3307 258.075 36.64C258.523 36.9493 259.014 37.104 259.547 37.104C260.059 37.104 260.491 36.9813 260.843 36.736C261.195 36.48 261.371 36.1493 261.371 35.744C261.371 35.4453 261.286 35.2107 261.115 35.04C260.944 34.8587 260.747 34.72 260.523 34.624C260.299 34.528 260.102 34.4587 259.931 34.416L258.699 34.064C257.91 33.84 257.339 33.5253 256.987 33.12C256.635 32.7147 256.459 32.2453 256.459 31.712C256.459 31.2107 256.587 30.7733 256.843 30.4C257.099 30.0267 257.446 29.7387 257.883 29.536C258.32 29.3333 258.806 29.232 259.339 29.232C260.064 29.232 260.72 29.424 261.307 29.808C261.904 30.1813 262.326 30.704 262.571 31.376L261.547 31.856C261.334 31.376 261.024 31.0027 260.619 30.736C260.224 30.4587 259.782 30.32 259.291 30.32C258.811 30.32 258.427 30.4427 258.139 30.688C257.851 30.9333 257.707 31.2427 257.707 31.616C257.707 31.904 257.782 32.1333 257.931 32.304C258.08 32.4747 258.251 32.6027 258.443 32.688C258.646 32.7733 258.822 32.8373 258.971 32.88L260.395 33.296C261.088 33.4987 261.627 33.8133 262.011 34.24C262.406 34.6667 262.603 35.168 262.603 35.744C262.603 36.2133 262.47 36.6347 262.203 37.008C261.947 37.3813 261.59 37.6747 261.131 37.888C260.672 38.0907 260.144 38.192 259.547 38.192ZM85.9615 68V59.424H87.1615V61.088L86.8895 61.024C87.1028 60.4693 87.4495 60.032 87.9295 59.712C88.4202 59.392 88.9855 59.232 89.6255 59.232C90.2335 59.232 90.7775 59.3707 91.2575 59.648C91.7482 59.9253 92.1322 60.3093 92.4095 60.8C92.6975 61.28 92.8415 61.824 92.8415 62.432V68H91.6415V62.896C91.6415 62.3733 91.5455 61.9307 91.3535 61.568C91.1722 61.2053 90.9108 60.928 90.5695 60.736C90.2388 60.5333 89.8548 60.432 89.4175 60.432C88.9802 60.432 88.5908 60.5333 88.2495 60.736C87.9082 60.928 87.6415 61.2107 87.4495 61.584C87.2575 61.9467 87.1615 62.384 87.1615 62.896V68H85.9615ZM99.0374 68.192C98.2374 68.192 97.512 68 96.8614 67.616C96.2214 67.2213 95.7147 66.6827 95.3414 66C94.968 65.3173 94.7814 64.544 94.7814 63.68C94.7814 62.816 94.9627 62.0533 95.3254 61.392C95.688 60.72 96.1787 60.192 96.7974 59.808C97.4267 59.424 98.1307 59.232 98.9094 59.232C99.528 59.232 100.077 59.3493 100.557 59.584C101.048 59.808 101.464 60.1173 101.805 60.512C102.147 60.896 102.408 61.3333 102.589 61.824C102.771 62.304 102.861 62.8 102.861 63.312C102.861 63.4187 102.856 63.5413 102.845 63.68C102.835 63.808 102.819 63.9413 102.797 64.08H95.5494V62.96H102.109L101.533 63.44C101.629 62.8533 101.56 62.3307 101.325 61.872C101.101 61.4027 100.776 61.0347 100.349 60.768C99.9227 60.4907 99.4427 60.352 98.9094 60.352C98.376 60.352 97.88 60.4907 97.4214 60.768C96.9734 61.0453 96.6214 61.4347 96.3654 61.936C96.1094 62.4267 96.008 63.0133 96.0614 63.696C96.008 64.3787 96.1147 64.976 96.3814 65.488C96.6587 65.9893 97.032 66.3787 97.5014 66.656C97.9814 66.9333 98.4934 67.072 99.0374 67.072C99.6667 67.072 100.195 66.9227 100.621 66.624C101.048 66.3253 101.395 65.952 101.661 65.504L102.685 66.048C102.515 66.432 102.253 66.7893 101.901 67.12C101.549 67.44 101.128 67.7013 100.637 67.904C100.157 68.096 99.624 68.192 99.0374 68.192ZM98.2214 57.76L99.6134 55.36H101.261L99.4374 57.76H98.2214ZM108.897 68.192C108.054 68.192 107.313 67.9947 106.673 67.6C106.033 67.2053 105.532 66.672 105.169 66C104.806 65.3173 104.625 64.5493 104.625 63.696C104.625 62.8427 104.806 62.08 105.169 61.408C105.532 60.736 106.033 60.208 106.673 59.824C107.313 59.4293 108.054 59.232 108.897 59.232C109.43 59.232 109.932 59.328 110.401 59.52C110.87 59.712 111.286 59.9733 111.649 60.304C112.012 60.624 112.284 60.9973 112.465 61.424L111.377 61.984C111.164 61.5253 110.838 61.152 110.401 60.864C109.964 60.576 109.462 60.432 108.897 60.432C108.332 60.432 107.82 60.576 107.361 60.864C106.913 61.1413 106.556 61.5307 106.289 62.032C106.033 62.5227 105.905 63.0827 105.905 63.712C105.905 64.3307 106.033 64.8907 106.289 65.392C106.556 65.8827 106.913 66.272 107.361 66.56C107.82 66.848 108.332 66.992 108.897 66.992C109.462 66.992 109.958 66.848 110.385 66.56C110.822 66.272 111.153 65.888 111.377 65.408L112.465 66C112.284 66.416 112.012 66.7893 111.649 67.12C111.286 67.4507 110.87 67.712 110.401 67.904C109.932 68.096 109.43 68.192 108.897 68.192ZM118.475 68.192C117.675 68.192 116.95 68 116.299 67.616C115.659 67.2213 115.152 66.6827 114.779 66C114.406 65.3173 114.219 64.544 114.219 63.68C114.219 62.816 114.4 62.0533 114.763 61.392C115.126 60.72 115.616 60.192 116.235 59.808C116.864 59.424 117.568 59.232 118.347 59.232C118.966 59.232 119.515 59.3493 119.995 59.584C120.486 59.808 120.902 60.1173 121.243 60.512C121.584 60.896 121.846 61.3333 122.027 61.824C122.208 62.304 122.299 62.8 122.299 63.312C122.299 63.4187 122.294 63.5413 122.283 63.68C122.272 63.808 122.256 63.9413 122.235 64.08H114.987V62.96H121.547L120.971 63.44C121.067 62.8533 120.998 62.3307 120.763 61.872C120.539 61.4027 120.214 61.0347 119.787 60.768C119.36 60.4907 118.88 60.352 118.347 60.352C117.814 60.352 117.318 60.4907 116.859 60.768C116.411 61.0453 116.059 61.4347 115.803 61.936C115.547 62.4267 115.446 63.0133 115.499 63.696C115.446 64.3787 115.552 64.976 115.819 65.488C116.096 65.9893 116.47 66.3787 116.939 66.656C117.419 66.9333 117.931 67.072 118.475 67.072C119.104 67.072 119.632 66.9227 120.059 66.624C120.486 66.3253 120.832 65.952 121.099 65.504L122.123 66.048C121.952 66.432 121.691 66.7893 121.339 67.12C120.987 67.44 120.566 67.7013 120.075 67.904C119.595 68.096 119.062 68.192 118.475 68.192ZM127.391 68.192C126.569 68.192 125.849 67.984 125.231 67.568C124.612 67.152 124.164 66.5867 123.887 65.872L124.895 65.392C125.14 65.9147 125.481 66.3307 125.919 66.64C126.367 66.9493 126.857 67.104 127.391 67.104C127.903 67.104 128.335 66.9813 128.687 66.736C129.039 66.48 129.215 66.1493 129.215 65.744C129.215 65.4453 129.129 65.2107 128.959 65.04C128.788 64.8587 128.591 64.72 128.367 64.624C128.143 64.528 127.945 64.4587 127.775 64.416L126.543 64.064C125.753 63.84 125.183 63.5253 124.831 63.12C124.479 62.7147 124.303 62.2453 124.303 61.712C124.303 61.2107 124.431 60.7733 124.687 60.4C124.943 60.0267 125.289 59.7387 125.727 59.536C126.164 59.3333 126.649 59.232 127.183 59.232C127.908 59.232 128.564 59.424 129.151 59.808C129.748 60.1813 130.169 60.704 130.415 61.376L129.391 61.856C129.177 61.376 128.868 61.0027 128.463 60.736C128.068 60.4587 127.625 60.32 127.135 60.32C126.655 60.32 126.271 60.4427 125.983 60.688C125.695 60.9333 125.551 61.2427 125.551 61.616C125.551 61.904 125.625 62.1333 125.775 62.304C125.924 62.4747 126.095 62.6027 126.287 62.688C126.489 62.7733 126.665 62.8373 126.815 62.88L128.239 63.296C128.932 63.4987 129.471 63.8133 129.855 64.24C130.249 64.6667 130.447 65.168 130.447 65.744C130.447 66.2133 130.313 66.6347 130.047 67.008C129.791 67.3813 129.433 67.6747 128.975 67.888C128.516 68.0907 127.988 68.192 127.391 68.192ZM135.531 68.192C134.71 68.192 133.99 67.984 133.371 67.568C132.753 67.152 132.305 66.5867 132.027 65.872L133.035 65.392C133.281 65.9147 133.622 66.3307 134.059 66.64C134.507 66.9493 134.998 67.104 135.531 67.104C136.043 67.104 136.475 66.9813 136.827 66.736C137.179 66.48 137.355 66.1493 137.355 65.744C137.355 65.4453 137.27 65.2107 137.099 65.04C136.929 64.8587 136.731 64.72 136.507 64.624C136.283 64.528 136.086 64.4587 135.915 64.416L134.683 64.064C133.894 63.84 133.323 63.5253 132.971 63.12C132.619 62.7147 132.443 62.2453 132.443 61.712C132.443 61.2107 132.571 60.7733 132.827 60.4C133.083 60.0267 133.43 59.7387 133.867 59.536C134.305 59.3333 134.79 59.232 135.323 59.232C136.049 59.232 136.705 59.424 137.291 59.808C137.889 60.1813 138.31 60.704 138.555 61.376L137.531 61.856C137.318 61.376 137.009 61.0027 136.603 60.736C136.209 60.4587 135.766 60.32 135.275 60.32C134.795 60.32 134.411 60.4427 134.123 60.688C133.835 60.9333 133.691 61.2427 133.691 61.616C133.691 61.904 133.766 62.1333 133.915 62.304C134.065 62.4747 134.235 62.6027 134.427 62.688C134.63 62.7733 134.806 62.8373 134.955 62.88L136.379 63.296C137.073 63.4987 137.611 63.8133 137.995 64.24C138.39 64.6667 138.587 65.168 138.587 65.744C138.587 66.2133 138.454 66.6347 138.187 67.008C137.931 67.3813 137.574 67.6747 137.115 67.888C136.657 68.0907 136.129 68.192 135.531 68.192ZM143.176 68.192C142.632 68.192 142.147 68.0907 141.72 67.888C141.293 67.6747 140.957 67.3867 140.712 67.024C140.467 66.6613 140.344 66.2453 140.344 65.776C140.344 65.328 140.44 64.9227 140.632 64.56C140.824 64.1867 141.123 63.872 141.528 63.616C141.933 63.36 142.451 63.1787 143.08 63.072L146.44 62.512V63.6L143.368 64.112C142.749 64.2187 142.301 64.416 142.024 64.704C141.757 64.992 141.624 65.3333 141.624 65.728C141.624 66.112 141.773 66.4373 142.072 66.704C142.381 66.9707 142.776 67.104 143.256 67.104C143.843 67.104 144.355 66.9813 144.792 66.736C145.229 66.48 145.571 66.1387 145.816 65.712C146.061 65.2853 146.184 64.8107 146.184 64.288V62.112C146.184 61.6 145.997 61.184 145.624 60.864C145.251 60.544 144.765 60.384 144.168 60.384C143.645 60.384 143.187 60.5173 142.792 60.784C142.397 61.04 142.104 61.376 141.912 61.792L140.824 61.2C140.984 60.8373 141.235 60.5067 141.576 60.208C141.928 59.9093 142.328 59.6747 142.776 59.504C143.224 59.3227 143.688 59.232 144.168 59.232C144.797 59.232 145.352 59.3547 145.832 59.6C146.323 59.8453 146.701 60.1867 146.968 60.624C147.245 61.0507 147.384 61.5467 147.384 62.112V68H146.184V66.288L146.36 66.464C146.211 66.784 145.976 67.0773 145.656 67.344C145.347 67.6 144.979 67.808 144.552 67.968C144.136 68.1173 143.677 68.192 143.176 68.192ZM149.852 68V59.424H151.052V68H149.852ZM149.852 57.84V56.08H151.052V57.84H149.852ZM153.508 68V59.424H154.708V60.832L154.548 60.624C154.751 60.2187 155.055 59.8987 155.46 59.664C155.876 59.4293 156.378 59.312 156.964 59.312H157.508V60.512H156.756C156.138 60.512 155.642 60.704 155.268 61.088C154.895 61.472 154.708 62.016 154.708 62.72V68H153.508ZM162.819 68.192C162.019 68.192 161.293 68 160.643 67.616C160.003 67.2213 159.496 66.6827 159.123 66C158.749 65.3173 158.563 64.544 158.563 63.68C158.563 62.816 158.744 62.0533 159.107 61.392C159.469 60.72 159.96 60.192 160.579 59.808C161.208 59.424 161.912 59.232 162.691 59.232C163.309 59.232 163.859 59.3493 164.339 59.584C164.829 59.808 165.245 60.1173 165.587 60.512C165.928 60.896 166.189 61.3333 166.371 61.824C166.552 62.304 166.643 62.8 166.643 63.312C166.643 63.4187 166.637 63.5413 166.627 63.68C166.616 63.808 166.6 63.9413 166.579 64.08H159.331V62.96H165.891L165.315 63.44C165.411 62.8533 165.341 62.3307 165.107 61.872C164.883 61.4027 164.557 61.0347 164.131 60.768C163.704 60.4907 163.224 60.352 162.691 60.352C162.157 60.352 161.661 60.4907 161.203 60.768C160.755 61.0453 160.403 61.4347 160.147 61.936C159.891 62.4267 159.789 63.0133 159.843 63.696C159.789 64.3787 159.896 64.976 160.163 65.488C160.44 65.9893 160.813 66.3787 161.283 66.656C161.763 66.9333 162.275 67.072 162.819 67.072C163.448 67.072 163.976 66.9227 164.403 66.624C164.829 66.3253 165.176 65.952 165.443 65.504L166.467 66.048C166.296 66.432 166.035 66.7893 165.683 67.12C165.331 67.44 164.909 67.7013 164.419 67.904C163.939 68.096 163.405 68.192 162.819 68.192ZM171.734 68.192C170.913 68.192 170.193 67.984 169.574 67.568C168.956 67.152 168.508 66.5867 168.23 65.872L169.238 65.392C169.484 65.9147 169.825 66.3307 170.262 66.64C170.71 66.9493 171.201 67.104 171.734 67.104C172.246 67.104 172.678 66.9813 173.03 66.736C173.382 66.48 173.558 66.1493 173.558 65.744C173.558 65.4453 173.473 65.2107 173.302 65.04C173.132 64.8587 172.934 64.72 172.71 64.624C172.486 64.528 172.289 64.4587 172.118 64.416L170.886 64.064C170.097 63.84 169.526 63.5253 169.174 63.12C168.822 62.7147 168.646 62.2453 168.646 61.712C168.646 61.2107 168.774 60.7733 169.03 60.4C169.286 60.0267 169.633 59.7387 170.07 59.536C170.508 59.3333 170.993 59.232 171.526 59.232C172.252 59.232 172.908 59.424 173.494 59.808C174.092 60.1813 174.513 60.704 174.758 61.376L173.734 61.856C173.521 61.376 173.212 61.0027 172.806 60.736C172.412 60.4587 171.969 60.32 171.478 60.32C170.998 60.32 170.614 60.4427 170.326 60.688C170.038 60.9333 169.894 61.2427 169.894 61.616C169.894 61.904 169.969 62.1333 170.118 62.304C170.268 62.4747 170.438 62.6027 170.63 62.688C170.833 62.7733 171.009 62.8373 171.158 62.88L172.582 63.296C173.276 63.4987 173.814 63.8133 174.198 64.24C174.593 64.6667 174.79 65.168 174.79 65.744C174.79 66.2133 174.657 66.6347 174.39 67.008C174.134 67.3813 173.777 67.6747 173.318 67.888C172.86 68.0907 172.332 68.192 171.734 68.192Z" fill="#00647b"/>
</svg>
