<svg width="265" height="91" viewBox="0 0 265 91" fill="none" xmlns="http://www.w3.org/2000/svg">
<rect x="0.249412" y="0.249412" width="264.501" height="90.5012" rx="9.72706" fill="white" stroke="#E3DBD8" stroke-width="0.498824"/>
<mask id="path-2-outside-1_3970_278" maskUnits="userSpaceOnUse" x="5" y="28" width="67" height="41" fill="black">
<rect fill="white" x="5" y="28" width="67" height="41"/>
<path d="M21.7 67.6C18.7333 67.6 16.1333 66.8 13.9 65.2C11.6667 63.6 9.91667 61.35 8.65 58.45C7.41667 55.55 6.8 52.1833 6.8 48.35C6.8 44.4833 7.41667 41.1167 8.65 38.25C9.88333 35.3833 11.6167 33.15 13.85 31.55C16.0833 29.95 18.6833 29.15 21.65 29.15C24.6833 29.15 27.3 29.95 29.5 31.55C31.7333 33.15 33.4833 35.4 34.75 38.3C36.0167 41.1667 36.65 44.5167 36.65 48.35C36.65 52.1833 36.0167 55.55 34.75 58.45C33.5167 61.3167 31.7833 63.5667 29.55 65.2C27.3167 66.8 24.7 67.6 21.7 67.6ZM21.75 61.4C23.45 61.4 24.9 60.8833 26.1 59.85C27.3 58.7833 28.2167 57.2833 28.85 55.35C29.5167 53.3833 29.85 51.05 29.85 48.35C29.85 45.65 29.5167 43.3333 28.85 41.4C28.2167 39.4333 27.2833 37.9333 26.05 36.9C24.85 35.8667 23.3833 35.35 21.65 35.35C19.9833 35.35 18.55 35.8667 17.35 36.9C16.15 37.9333 15.2167 39.4333 14.55 41.4C13.9167 43.3333 13.6 45.65 13.6 48.35C13.6 51.0167 13.9167 53.3333 14.55 55.3C15.2167 57.2333 16.15 58.7333 17.35 59.8C18.5833 60.8667 20.05 61.4 21.75 61.4ZM58.3004 67V58.8H41.2004V53.1L57.9004 29.75H65.0004V53.1H70.4504V58.8H65.0004V67H58.3004ZM46.2004 55.55L45.0004 53.1H58.3004V35.1L60.0504 35.65L46.2004 55.55Z"/>
</mask>
<path d="M13.9 65.2L13.3176 66.0129L13.9 65.2ZM8.65 58.45L7.72972 58.8414L7.7336 58.8503L8.65 58.45ZM8.65 38.25L7.73141 37.8548H7.73141L8.65 38.25ZM13.85 31.55L13.2676 30.7371L13.85 31.55ZM29.5 31.55L28.9118 32.3588L28.9176 32.3629L29.5 31.55ZM34.75 38.3L33.8336 38.7003L33.8353 38.7042L34.75 38.3ZM34.75 58.45L33.8336 58.0497L33.8314 58.0548L34.75 58.45ZM29.55 65.2L30.1324 66.013L30.1403 66.0072L29.55 65.2ZM26.1 59.85L26.7525 60.6078L26.7585 60.6026L26.7644 60.5974L26.1 59.85ZM28.85 55.35L27.9029 55.0289L27.8997 55.0387L28.85 55.35ZM28.85 41.4L27.8981 41.7065L27.9013 41.7163L27.9046 41.726L28.85 41.4ZM26.05 36.9L25.3974 37.6578L25.4078 37.6665L26.05 36.9ZM17.35 36.9L16.6975 36.1422L16.6975 36.1422L17.35 36.9ZM14.55 41.4L13.6029 41.0789L13.5997 41.0887L14.55 41.4ZM14.55 55.3L13.5981 55.6065L13.6013 55.6163L13.6046 55.626L14.55 55.3ZM17.35 59.8L16.6856 60.5475L16.6958 60.5564L17.35 59.8ZM21.7 66.6C18.9246 66.6 16.5321 65.8556 14.4824 64.3871L13.3176 66.0129C15.7345 67.7444 18.542 68.6 21.7 68.6V66.6ZM14.4824 64.3871C12.4166 62.9071 10.7721 60.8101 9.5664 58.0497L7.7336 58.8503C9.06126 61.8899 10.9167 64.2929 13.3176 66.0129L14.4824 64.3871ZM9.57024 58.0586C8.39962 55.3061 7.8 52.0772 7.8 48.35H5.8C5.8 52.2894 6.43372 55.7939 7.72976 58.8414L9.57024 58.0586ZM7.8 48.35C7.8 44.5877 8.40016 41.361 9.56859 38.6452L7.73141 37.8548C6.43317 40.8723 5.8 44.379 5.8 48.35H7.8ZM9.56859 38.6452C10.74 35.9226 12.3663 33.8431 14.4324 32.3629L13.2676 30.7371C10.867 32.4569 9.0267 34.8441 7.73141 37.8548L9.56859 38.6452ZM14.4324 32.3629C16.4821 30.8944 18.8746 30.15 21.65 30.15V28.15C18.492 28.15 15.6845 29.0056 13.2676 30.7371L14.4324 32.3629ZM21.65 30.15C24.4975 30.15 26.9023 30.8972 28.9118 32.3587L30.0882 30.7413C27.6977 29.0028 24.8692 28.15 21.65 28.15V30.15ZM28.9176 32.3629C30.9834 33.8429 32.6279 35.9399 33.8336 38.7003L35.6664 37.8997C34.3387 34.8601 32.4833 32.4571 30.0824 30.7371L28.9176 32.3629ZM33.8353 38.7042C35.0346 41.4184 35.65 44.6255 35.65 48.35H37.65C37.65 44.4078 36.9987 40.9149 35.6647 37.8958L33.8353 38.7042ZM35.65 48.35C35.65 52.0741 35.0348 55.2997 33.8336 58.0497L35.6664 58.8503C36.9986 55.8003 37.65 52.2926 37.65 48.35H35.65ZM33.8314 58.0548C32.6595 60.7787 31.031 62.878 28.9597 64.3928L30.1403 66.0072C32.5357 64.2553 34.3738 61.8546 35.6686 58.8452L33.8314 58.0548ZM28.9676 64.3871C26.9198 65.8542 24.5113 66.6 21.7 66.6V68.6C24.8887 68.6 27.7135 67.7458 30.1324 66.0129L28.9676 64.3871ZM21.75 62.4C23.6705 62.4 25.3571 61.8094 26.7525 60.6078L25.4475 59.0922C24.4429 59.9573 23.2296 60.4 21.75 60.4V62.4ZM26.7644 60.5974C28.1275 59.3858 29.1264 57.7185 29.8003 55.6613L27.8997 55.0387C27.3069 56.8481 26.4725 58.1809 25.4356 59.1026L26.7644 60.5974ZM29.7971 55.671C30.5075 53.5752 30.85 51.1282 30.85 48.35H28.85C28.85 50.9718 28.5258 53.1914 27.9029 55.029L29.7971 55.671ZM30.85 48.35C30.85 45.5725 30.5077 43.1397 29.7954 41.074L27.9046 41.726C28.5256 43.5269 28.85 45.7275 28.85 48.35H30.85ZM29.8019 41.0935C29.1269 38.9977 28.1058 37.3179 26.6922 36.1335L25.4078 37.6665C26.4608 38.5488 27.3064 39.869 27.8981 41.7065L29.8019 41.0935ZM26.7025 36.1422C25.3034 34.9374 23.5985 34.35 21.65 34.35V36.35C23.1682 36.35 24.3966 36.7959 25.3975 37.6578L26.7025 36.1422ZM21.65 34.35C19.7575 34.35 18.0891 34.9439 16.6975 36.1422L18.0025 37.6578C19.0109 36.7894 20.2092 36.35 21.65 36.35V34.35ZM16.6975 36.1422C15.3261 37.3231 14.3096 38.9944 13.6029 41.079L15.4971 41.721C16.1238 39.8723 16.9739 38.5436 18.0025 37.6578L16.6975 36.1422ZM13.5997 41.0887C12.9247 43.1493 12.6 45.5767 12.6 48.35H14.6C14.6 45.7233 14.9087 43.5174 15.5003 41.7113L13.5997 41.0887ZM12.6 48.35C12.6 51.0921 12.9252 53.5168 13.5981 55.6065L15.5019 54.9935C14.9081 53.1498 14.6 50.9412 14.6 48.35H12.6ZM13.6046 55.626C14.3122 57.6781 15.3269 59.3396 16.6856 60.5474L18.0144 59.0526C16.9731 58.1271 16.1211 56.7886 15.4954 54.974L13.6046 55.626ZM16.6958 60.5564C18.1192 61.7873 19.8209 62.4 21.75 62.4V60.4C20.2791 60.4 19.0475 59.946 18.0042 59.0436L16.6958 60.5564ZM58.3004 67H57.3004V68H58.3004V67ZM58.3004 58.8H59.3004V57.8H58.3004V58.8ZM41.2004 58.8H40.2004V59.8H41.2004V58.8ZM41.2004 53.1L40.387 52.5183L40.2004 52.7792V53.1H41.2004ZM57.9004 29.75V28.75H57.3862L57.087 29.1683L57.9004 29.75ZM65.0004 29.75H66.0004V28.75H65.0004V29.75ZM65.0004 53.1H64.0004V54.1H65.0004V53.1ZM70.4504 53.1H71.4504V52.1H70.4504V53.1ZM70.4504 58.8V59.8H71.4504V58.8H70.4504ZM65.0004 58.8V57.8H64.0004V58.8H65.0004ZM65.0004 67V68H66.0004V67H65.0004ZM46.2004 55.55L45.3023 55.9899L46.0501 57.5165L47.0212 56.1212L46.2004 55.55ZM45.0004 53.1V52.1H43.3971L44.1023 53.5399L45.0004 53.1ZM58.3004 53.1V54.1H59.3004V53.1H58.3004ZM58.3004 35.1L58.6002 34.146L57.3004 33.7375V35.1H58.3004ZM60.0504 35.65L60.8712 36.2212L61.6487 35.1041L60.3502 34.696L60.0504 35.65ZM59.3004 67V58.8H57.3004V67H59.3004ZM58.3004 57.8H41.2004V59.8H58.3004V57.8ZM42.2004 58.8V53.1H40.2004V58.8H42.2004ZM42.0138 53.6817L58.7138 30.3317L57.087 29.1683L40.387 52.5183L42.0138 53.6817ZM57.9004 30.75H65.0004V28.75H57.9004V30.75ZM64.0004 29.75V53.1H66.0004V29.75H64.0004ZM65.0004 54.1H70.4504V52.1H65.0004V54.1ZM69.4504 53.1V58.8H71.4504V53.1H69.4504ZM70.4504 57.8H65.0004V59.8H70.4504V57.8ZM64.0004 58.8V67H66.0004V58.8H64.0004ZM65.0004 66H58.3004V68H65.0004V66ZM47.0985 55.1101L45.8985 52.6601L44.1023 53.5399L45.3023 55.9899L47.0985 55.1101ZM45.0004 54.1H58.3004V52.1H45.0004V54.1ZM59.3004 53.1V35.1H57.3004V53.1H59.3004ZM58.0006 36.054L59.7506 36.604L60.3502 34.696L58.6002 34.146L58.0006 36.054ZM59.2296 35.0788L45.3796 54.9788L47.0212 56.1212L60.8712 36.2212L59.2296 35.0788Z" fill="#00647b" mask="url(#path-2-outside-1_3970_278)"/>
<path d="M87.024 53.192C86.192 53.192 85.4133 53.0427 84.688 52.744C83.9733 52.4347 83.344 52.008 82.8 51.464C82.256 50.9093 81.8293 50.2587 81.52 49.512C81.2107 48.7547 81.056 47.928 81.056 47.032C81.056 46.136 81.2107 45.3147 81.52 44.568C81.8293 43.8107 82.256 43.16 82.8 42.616C83.344 42.0613 83.9733 41.6347 84.688 41.336C85.4133 41.0373 86.192 40.888 87.024 40.888C87.856 40.888 88.6293 41.0427 89.344 41.352C90.0693 41.6507 90.704 42.0773 91.248 42.632C91.792 43.176 92.2187 43.8213 92.528 44.568C92.8373 45.3147 92.992 46.136 92.992 47.032C92.992 47.928 92.8373 48.7547 92.528 49.512C92.2187 50.2587 91.792 50.9093 91.248 51.464C90.704 52.008 90.0693 52.4347 89.344 52.744C88.6293 53.0427 87.856 53.192 87.024 53.192ZM87.024 51.992C87.7173 51.992 88.3467 51.864 88.912 51.608C89.488 51.352 89.984 50.9947 90.4 50.536C90.816 50.0773 91.136 49.5493 91.36 48.952C91.5947 48.3547 91.712 47.7147 91.712 47.032C91.712 46.36 91.5947 45.7253 91.36 45.128C91.136 44.5307 90.816 44.0027 90.4 43.544C89.984 43.0853 89.488 42.728 88.912 42.472C88.3467 42.216 87.7173 42.088 87.024 42.088C86.3307 42.088 85.696 42.216 85.12 42.472C84.5547 42.728 84.064 43.0853 83.648 43.544C83.232 44.0027 82.9067 44.5307 82.672 45.128C82.448 45.7253 82.336 46.36 82.336 47.032C82.336 47.7147 82.448 48.3547 82.672 48.952C82.9067 49.5493 83.232 50.0773 83.648 50.536C84.064 50.9947 84.56 51.352 85.136 51.608C85.712 51.864 86.3413 51.992 87.024 51.992ZM99.6149 53.192C98.8789 53.192 98.2122 53.0267 97.6149 52.696C97.0282 52.3547 96.5855 51.8747 96.2869 51.256L96.4789 51.08V53H95.2789V40.888H96.4789V46.344L96.2869 46.008C96.6282 45.464 97.0815 45.032 97.6469 44.712C98.2229 44.392 98.8789 44.232 99.6149 44.232C100.426 44.232 101.146 44.4293 101.775 44.824C102.415 45.208 102.916 45.736 103.279 46.408C103.652 47.08 103.839 47.848 103.839 48.712C103.839 49.5653 103.652 50.3333 103.279 51.016C102.916 51.688 102.415 52.2213 101.775 52.616C101.146 53 100.426 53.192 99.6149 53.192ZM99.5509 51.992C100.127 51.992 100.639 51.848 101.087 51.56C101.546 51.272 101.903 50.8827 102.159 50.392C102.426 49.8907 102.559 49.3307 102.559 48.712C102.559 48.0827 102.426 47.5227 102.159 47.032C101.903 46.5413 101.546 46.152 101.087 45.864C100.639 45.576 100.127 45.432 99.5509 45.432C98.9749 45.432 98.4522 45.576 97.9829 45.864C97.5242 46.152 97.1562 46.5467 96.8789 47.048C96.6122 47.5387 96.4789 48.0933 96.4789 48.712C96.4789 49.3307 96.6122 49.8907 96.8789 50.392C97.1562 50.8827 97.5242 51.272 97.9829 51.56C98.4522 51.848 98.9749 51.992 99.5509 51.992ZM109.075 53.096C108.307 53.096 107.715 52.872 107.299 52.424C106.883 51.976 106.674 51.336 106.674 50.504V45.624H105.09V44.424H105.491C105.853 44.424 106.141 44.3067 106.355 44.072C106.568 43.8267 106.674 43.5227 106.674 43.16V42.44H107.875V44.424H109.763V45.624H107.875V50.504C107.875 50.792 107.917 51.048 108.003 51.272C108.088 51.4853 108.232 51.656 108.435 51.784C108.648 51.912 108.931 51.976 109.283 51.976C109.368 51.976 109.469 51.9707 109.587 51.96C109.704 51.9493 109.805 51.9387 109.891 51.928V53C109.763 53.032 109.619 53.0533 109.459 53.064C109.299 53.0853 109.171 53.096 109.075 53.096ZM115.589 53.192C114.789 53.192 114.064 53 113.413 52.616C112.773 52.2213 112.266 51.6827 111.893 51C111.52 50.3173 111.333 49.544 111.333 48.68C111.333 47.816 111.514 47.0533 111.877 46.392C112.24 45.72 112.73 45.192 113.349 44.808C113.978 44.424 114.682 44.232 115.461 44.232C116.08 44.232 116.629 44.3493 117.109 44.584C117.6 44.808 118.016 45.1173 118.357 45.512C118.698 45.896 118.96 46.3333 119.141 46.824C119.322 47.304 119.413 47.8 119.413 48.312C119.413 48.4187 119.408 48.5413 119.397 48.68C119.386 48.808 119.37 48.9413 119.349 49.08H112.101V47.96H118.661L118.085 48.44C118.181 47.8533 118.112 47.3307 117.877 46.872C117.653 46.4027 117.328 46.0347 116.901 45.768C116.474 45.4907 115.994 45.352 115.461 45.352C114.928 45.352 114.432 45.4907 113.973 45.768C113.525 46.0453 113.173 46.4347 112.917 46.936C112.661 47.4267 112.56 48.0133 112.613 48.696C112.56 49.3787 112.666 49.976 112.933 50.488C113.21 50.9893 113.584 51.3787 114.053 51.656C114.533 51.9333 115.045 52.072 115.589 52.072C116.218 52.072 116.746 51.9227 117.173 51.624C117.6 51.3253 117.946 50.952 118.213 50.504L119.237 51.048C119.066 51.432 118.805 51.7893 118.453 52.12C118.101 52.44 117.68 52.7013 117.189 52.904C116.709 53.096 116.176 53.192 115.589 53.192ZM121.529 53V44.424H122.729V46.088L122.457 46.024C122.67 45.4693 123.017 45.032 123.497 44.712C123.988 44.392 124.553 44.232 125.193 44.232C125.801 44.232 126.345 44.3707 126.825 44.648C127.316 44.9253 127.7 45.3093 127.977 45.8C128.265 46.28 128.409 46.824 128.409 47.432V53H127.209V47.896C127.209 47.3733 127.113 46.9307 126.921 46.568C126.74 46.2053 126.478 45.928 126.137 45.736C125.806 45.5333 125.422 45.432 124.985 45.432C124.548 45.432 124.158 45.5333 123.817 45.736C123.476 45.928 123.209 46.2107 123.017 46.584C122.825 46.9467 122.729 47.384 122.729 47.896V53H121.529ZM134.605 53.192C133.805 53.192 133.079 53 132.429 52.616C131.789 52.2213 131.282 51.6827 130.909 51C130.535 50.3173 130.349 49.544 130.349 48.68C130.349 47.816 130.53 47.0533 130.893 46.392C131.255 45.72 131.746 45.192 132.365 44.808C132.994 44.424 133.698 44.232 134.477 44.232C135.095 44.232 135.645 44.3493 136.125 44.584C136.615 44.808 137.031 45.1173 137.373 45.512C137.714 45.896 137.975 46.3333 138.157 46.824C138.338 47.304 138.429 47.8 138.429 48.312C138.429 48.4187 138.423 48.5413 138.413 48.68C138.402 48.808 138.386 48.9413 138.365 49.08H131.117V47.96H137.677L137.101 48.44C137.197 47.8533 137.127 47.3307 136.893 46.872C136.669 46.4027 136.343 46.0347 135.917 45.768C135.49 45.4907 135.01 45.352 134.477 45.352C133.943 45.352 133.447 45.4907 132.989 45.768C132.541 46.0453 132.189 46.4347 131.933 46.936C131.677 47.4267 131.575 48.0133 131.629 48.696C131.575 49.3787 131.682 49.976 131.949 50.488C132.226 50.9893 132.599 51.3787 133.069 51.656C133.549 51.9333 134.061 52.072 134.605 52.072C135.234 52.072 135.762 51.9227 136.189 51.624C136.615 51.3253 136.962 50.952 137.229 50.504L138.253 51.048C138.082 51.432 137.821 51.7893 137.469 52.12C137.117 52.44 136.695 52.7013 136.205 52.904C135.725 53.096 135.191 53.192 134.605 53.192ZM139.665 53V51.96L144.833 45.16L145.057 45.624H139.937V44.424H146.113V45.464L140.961 52.264L140.737 51.8H146.145V53H139.665ZM152.739 53L149.395 44.424H150.739L153.555 51.944H153.123L155.955 44.424H157.315L153.939 53H152.739ZM162.576 53.192C161.765 53.192 161.029 53 160.368 52.616C159.707 52.2213 159.179 51.688 158.784 51.016C158.4 50.3333 158.208 49.56 158.208 48.696C158.208 47.8427 158.4 47.08 158.784 46.408C159.168 45.736 159.685 45.208 160.336 44.824C160.997 44.4293 161.744 44.232 162.576 44.232C163.408 44.232 164.149 44.424 164.8 44.808C165.461 45.192 165.979 45.72 166.352 46.392C166.736 47.064 166.928 47.832 166.928 48.696C166.928 49.5707 166.731 50.3493 166.336 51.032C165.941 51.704 165.413 52.232 164.752 52.616C164.101 53 163.376 53.192 162.576 53.192ZM162.576 51.992C163.152 51.992 163.669 51.848 164.128 51.56C164.597 51.272 164.965 50.8773 165.232 50.376C165.509 49.8747 165.648 49.3147 165.648 48.696C165.648 48.0773 165.509 47.5227 165.232 47.032C164.965 46.5413 164.597 46.152 164.128 45.864C163.669 45.576 163.152 45.432 162.576 45.432C162 45.432 161.477 45.576 161.008 45.864C160.549 46.152 160.181 46.5413 159.904 47.032C159.627 47.5227 159.488 48.0773 159.488 48.696C159.488 49.3147 159.627 49.8747 159.904 50.376C160.181 50.8773 160.549 51.272 161.008 51.56C161.477 51.848 162 51.992 162.576 51.992ZM172.168 53.096C171.4 53.096 170.808 52.872 170.392 52.424C169.976 51.976 169.768 51.336 169.768 50.504V45.624H168.184V44.424H168.584C168.947 44.424 169.235 44.3067 169.448 44.072C169.662 43.8267 169.768 43.5227 169.768 43.16V42.44H170.968V44.424H172.856V45.624H170.968V50.504C170.968 50.792 171.011 51.048 171.096 51.272C171.182 51.4853 171.326 51.656 171.528 51.784C171.742 51.912 172.024 51.976 172.376 51.976C172.462 51.976 172.563 51.9707 172.68 51.96C172.798 51.9493 172.899 51.9387 172.984 51.928V53C172.856 53.032 172.712 53.0533 172.552 53.064C172.392 53.0853 172.264 53.096 172.168 53.096ZM175.091 53V44.424H176.291V45.832L176.131 45.624C176.334 45.2187 176.638 44.8987 177.043 44.664C177.459 44.4293 177.961 44.312 178.547 44.312H179.091V45.512H178.339C177.721 45.512 177.225 45.704 176.851 46.088C176.478 46.472 176.291 47.016 176.291 47.72V53H175.091ZM184.402 53.192C183.602 53.192 182.876 53 182.226 52.616C181.586 52.2213 181.079 51.6827 180.706 51C180.332 50.3173 180.146 49.544 180.146 48.68C180.146 47.816 180.327 47.0533 180.69 46.392C181.052 45.72 181.543 45.192 182.162 44.808C182.791 44.424 183.495 44.232 184.274 44.232C184.892 44.232 185.442 44.3493 185.922 44.584C186.412 44.808 186.828 45.1173 187.17 45.512C187.511 45.896 187.772 46.3333 187.954 46.824C188.135 47.304 188.226 47.8 188.226 48.312C188.226 48.4187 188.22 48.5413 188.21 48.68C188.199 48.808 188.183 48.9413 188.162 49.08H180.914V47.96H187.474L186.898 48.44C186.994 47.8533 186.924 47.3307 186.69 46.872C186.466 46.4027 186.14 46.0347 185.714 45.768C185.287 45.4907 184.807 45.352 184.274 45.352C183.74 45.352 183.244 45.4907 182.786 45.768C182.338 46.0453 181.986 46.4347 181.73 46.936C181.474 47.4267 181.372 48.0133 181.426 48.696C181.372 49.3787 181.479 49.976 181.746 50.488C182.023 50.9893 182.396 51.3787 182.866 51.656C183.346 51.9333 183.858 52.072 184.402 52.072C185.031 52.072 185.559 51.9227 185.986 51.624C186.412 51.3253 186.759 50.952 187.026 50.504L188.05 51.048C187.879 51.432 187.618 51.7893 187.266 52.12C186.914 52.44 186.492 52.7013 186.002 52.904C185.522 53.096 184.988 53.192 184.402 53.192ZM195.348 53L192.004 44.424H193.348L196.164 51.944H195.732L198.564 44.424H199.924L196.548 53H195.348ZM201.326 53V44.424H202.526V53H201.326ZM201.326 42.84V41.08H202.526V42.84H201.326ZM207.958 53.192C207.137 53.192 206.417 52.984 205.798 52.568C205.179 52.152 204.731 51.5867 204.454 50.872L205.462 50.392C205.707 50.9147 206.049 51.3307 206.486 51.64C206.934 51.9493 207.425 52.104 207.958 52.104C208.47 52.104 208.902 51.9813 209.254 51.736C209.606 51.48 209.782 51.1493 209.782 50.744C209.782 50.4453 209.697 50.2107 209.526 50.04C209.355 49.8587 209.158 49.72 208.934 49.624C208.71 49.528 208.513 49.4587 208.342 49.416L207.11 49.064C206.321 48.84 205.75 48.5253 205.398 48.12C205.046 47.7147 204.87 47.2453 204.87 46.712C204.87 46.2107 204.998 45.7733 205.254 45.4C205.51 45.0267 205.857 44.7387 206.294 44.536C206.731 44.3333 207.217 44.232 207.75 44.232C208.475 44.232 209.131 44.424 209.718 44.808C210.315 45.1813 210.737 45.704 210.982 46.376L209.958 46.856C209.745 46.376 209.435 46.0027 209.03 45.736C208.635 45.4587 208.193 45.32 207.702 45.32C207.222 45.32 206.838 45.4427 206.55 45.688C206.262 45.9333 206.118 46.2427 206.118 46.616C206.118 46.904 206.193 47.1333 206.342 47.304C206.491 47.4747 206.662 47.6027 206.854 47.688C207.057 47.7733 207.233 47.8373 207.382 47.88L208.806 48.296C209.499 48.4987 210.038 48.8133 210.422 49.24C210.817 49.6667 211.014 50.168 211.014 50.744C211.014 51.2133 210.881 51.6347 210.614 52.008C210.358 52.3813 210.001 52.6747 209.542 52.888C209.083 53.0907 208.555 53.192 207.958 53.192ZM215.603 53.192C215.059 53.192 214.573 53.0907 214.147 52.888C213.72 52.6747 213.384 52.3867 213.139 52.024C212.893 51.6613 212.771 51.2453 212.771 50.776C212.771 50.328 212.867 49.9227 213.059 49.56C213.251 49.1867 213.549 48.872 213.955 48.616C214.36 48.36 214.877 48.1787 215.507 48.072L218.867 47.512V48.6L215.795 49.112C215.176 49.2187 214.728 49.416 214.451 49.704C214.184 49.992 214.051 50.3333 214.051 50.728C214.051 51.112 214.2 51.4373 214.499 51.704C214.808 51.9707 215.203 52.104 215.683 52.104C216.269 52.104 216.781 51.9813 217.219 51.736C217.656 51.48 217.997 51.1387 218.243 50.712C218.488 50.2853 218.611 49.8107 218.611 49.288V47.112C218.611 46.6 218.424 46.184 218.051 45.864C217.677 45.544 217.192 45.384 216.595 45.384C216.072 45.384 215.613 45.5173 215.219 45.784C214.824 46.04 214.531 46.376 214.339 46.792L213.251 46.2C213.411 45.8373 213.661 45.5067 214.003 45.208C214.355 44.9093 214.755 44.6747 215.203 44.504C215.651 44.3227 216.115 44.232 216.595 44.232C217.224 44.232 217.779 44.3547 218.259 44.6C218.749 44.8453 219.128 45.1867 219.395 45.624C219.672 46.0507 219.811 46.5467 219.811 47.112V53H218.611V51.288L218.787 51.464C218.637 51.784 218.403 52.0773 218.083 52.344C217.773 52.6 217.405 52.808 216.979 52.968C216.563 53.1173 216.104 53.192 215.603 53.192Z" fill="#00647b"/>
</svg>
