<svg width="345" height="60" viewBox="0 0 345 60" fill="none" xmlns="http://www.w3.org/2000/svg">
<rect x="0.249412" y="0.249412" width="283.48" height="59.36" rx="9.72706" fill="white" stroke="#E3DBD8" stroke-width="0.498824"/>
<path d="M102.366 37.192C101.523 37.192 100.782 36.9947 100.142 36.6C99.5019 36.2053 99.0005 35.672 98.6379 35C98.2752 34.3173 98.0939 33.5493 98.0939 32.696C98.0939 31.8427 98.2752 31.08 98.6379 30.408C99.0005 29.736 99.5019 29.208 100.142 28.824C100.782 28.4293 101.523 28.232 102.366 28.232C102.899 28.232 103.401 28.328 103.87 28.52C104.339 28.712 104.755 28.9733 105.118 29.304C105.481 29.624 105.753 29.9973 105.934 30.424L104.846 30.984C104.633 30.5253 104.307 30.152 103.87 29.864C103.433 29.576 102.931 29.432 102.366 29.432C101.801 29.432 101.289 29.576 100.83 29.864C100.382 30.1413 100.025 30.5307 99.7579 31.032C99.5019 31.5227 99.3739 32.0827 99.3739 32.712C99.3739 33.3307 99.5019 33.8907 99.7579 34.392C100.025 34.8827 100.382 35.272 100.83 35.56C101.289 35.848 101.801 35.992 102.366 35.992C102.931 35.992 103.427 35.848 103.854 35.56C104.291 35.272 104.622 34.888 104.846 34.408L105.934 35C105.753 35.416 105.481 35.7893 105.118 36.12C104.755 36.4507 104.339 36.712 103.87 36.904C103.401 37.096 102.899 37.192 102.366 37.192ZM112.056 37.192C111.245 37.192 110.509 37 109.848 36.616C109.186 36.2213 108.658 35.688 108.264 35.016C107.88 34.3333 107.688 33.56 107.688 32.696C107.688 31.8427 107.88 31.08 108.264 30.408C108.648 29.736 109.165 29.208 109.816 28.824C110.477 28.4293 111.224 28.232 112.056 28.232C112.888 28.232 113.629 28.424 114.28 28.808C114.941 29.192 115.458 29.72 115.832 30.392C116.216 31.064 116.408 31.832 116.408 32.696C116.408 33.5707 116.21 34.3493 115.816 35.032C115.421 35.704 114.893 36.232 114.232 36.616C113.581 37 112.856 37.192 112.056 37.192ZM112.056 35.992C112.632 35.992 113.149 35.848 113.608 35.56C114.077 35.272 114.445 34.8773 114.712 34.376C114.989 33.8747 115.128 33.3147 115.128 32.696C115.128 32.0773 114.989 31.5227 114.712 31.032C114.445 30.5413 114.077 30.152 113.608 29.864C113.149 29.576 112.632 29.432 112.056 29.432C111.48 29.432 110.957 29.576 110.488 29.864C110.029 30.152 109.661 30.5413 109.384 31.032C109.106 31.5227 108.968 32.0773 108.968 32.696C108.968 33.3147 109.106 33.8747 109.384 34.376C109.661 34.8773 110.029 35.272 110.488 35.56C110.957 35.848 111.48 35.992 112.056 35.992ZM118.524 37V28.424H119.724V30.056L119.532 29.816C119.767 29.3147 120.113 28.9253 120.572 28.648C121.041 28.3707 121.553 28.232 122.108 28.232C122.769 28.232 123.367 28.4187 123.9 28.792C124.433 29.1653 124.812 29.6507 125.036 30.248L124.7 30.264C124.913 29.6027 125.281 29.1013 125.804 28.76C126.337 28.408 126.924 28.232 127.564 28.232C128.14 28.232 128.668 28.3707 129.148 28.648C129.639 28.9253 130.028 29.3093 130.316 29.8C130.615 30.28 130.764 30.824 130.764 31.432V37H129.564V31.896C129.564 31.3733 129.468 30.9307 129.276 30.568C129.095 30.2053 128.844 29.928 128.524 29.736C128.204 29.5333 127.836 29.432 127.42 29.432C127.015 29.432 126.647 29.5333 126.316 29.736C125.985 29.928 125.724 30.2107 125.532 30.584C125.34 30.9467 125.244 31.384 125.244 31.896V37H124.044V31.896C124.044 31.3733 123.948 30.9307 123.756 30.568C123.575 30.2053 123.324 29.928 123.004 29.736C122.684 29.5333 122.316 29.432 121.9 29.432C121.484 29.432 121.111 29.5333 120.78 29.736C120.46 29.928 120.204 30.2107 120.012 30.584C119.82 30.9467 119.724 31.384 119.724 31.896V37H118.524ZM133.055 40.2V28.424H134.255V30.344L134.063 30.008C134.405 29.464 134.858 29.032 135.423 28.712C135.999 28.392 136.655 28.232 137.391 28.232C138.202 28.232 138.922 28.4293 139.551 28.824C140.191 29.208 140.693 29.736 141.055 30.408C141.429 31.08 141.615 31.848 141.615 32.712C141.615 33.5653 141.429 34.3333 141.055 35.016C140.693 35.688 140.191 36.2213 139.551 36.616C138.922 37 138.202 37.192 137.391 37.192C136.655 37.192 135.989 37.0267 135.391 36.696C134.805 36.3547 134.362 35.8747 134.063 35.256L134.255 35.08V40.2H133.055ZM137.327 35.992C137.903 35.992 138.415 35.848 138.863 35.56C139.322 35.272 139.679 34.8827 139.935 34.392C140.202 33.8907 140.335 33.3307 140.335 32.712C140.335 32.0827 140.202 31.5227 139.935 31.032C139.679 30.5413 139.322 30.152 138.863 29.864C138.415 29.576 137.903 29.432 137.327 29.432C136.751 29.432 136.229 29.576 135.759 29.864C135.301 30.152 134.933 30.5467 134.655 31.048C134.389 31.5387 134.255 32.0933 134.255 32.712C134.255 33.3307 134.389 33.8907 134.655 34.392C134.933 34.8827 135.301 35.272 135.759 35.56C136.229 35.848 136.751 35.992 137.327 35.992ZM143.727 37V24.888H144.927V37H143.727ZM151.287 37.192C150.487 37.192 149.762 37 149.111 36.616C148.471 36.2213 147.965 35.6827 147.591 35C147.218 34.3173 147.031 33.544 147.031 32.68C147.031 31.816 147.213 31.0533 147.575 30.392C147.938 29.72 148.429 29.192 149.047 28.808C149.677 28.424 150.381 28.232 151.159 28.232C151.778 28.232 152.327 28.3493 152.807 28.584C153.298 28.808 153.714 29.1173 154.055 29.512C154.397 29.896 154.658 30.3333 154.839 30.824C155.021 31.304 155.111 31.8 155.111 32.312C155.111 32.4187 155.106 32.5413 155.095 32.68C155.085 32.808 155.069 32.9413 155.047 33.08H147.799V31.96H154.359L153.783 32.44C153.879 31.8533 153.81 31.3307 153.575 30.872C153.351 30.4027 153.026 30.0347 152.599 29.768C152.173 29.4907 151.693 29.352 151.159 29.352C150.626 29.352 150.13 29.4907 149.671 29.768C149.223 30.0453 148.871 30.4347 148.615 30.936C148.359 31.4267 148.258 32.0133 148.311 32.696C148.258 33.3787 148.365 33.976 148.631 34.488C148.909 34.9893 149.282 35.3787 149.751 35.656C150.231 35.9333 150.743 36.072 151.287 36.072C151.917 36.072 152.445 35.9227 152.871 35.624C153.298 35.3253 153.645 34.952 153.911 34.504L154.935 35.048C154.765 35.432 154.503 35.7893 154.151 36.12C153.799 36.44 153.378 36.7013 152.887 36.904C152.407 37.096 151.874 37.192 151.287 37.192ZM150.471 26.76L151.863 24.36H153.511L151.687 26.76H150.471ZM160.507 37.096C159.739 37.096 159.147 36.872 158.731 36.424C158.315 35.976 158.107 35.336 158.107 34.504V29.624H156.523V28.424H156.923C157.286 28.424 157.574 28.3067 157.787 28.072C158 27.8267 158.107 27.5227 158.107 27.16V26.44H159.307V28.424H161.195V29.624H159.307V34.504C159.307 34.792 159.35 35.048 159.435 35.272C159.52 35.4853 159.664 35.656 159.867 35.784C160.08 35.912 160.363 35.976 160.715 35.976C160.8 35.976 160.902 35.9707 161.019 35.96C161.136 35.9493 161.238 35.9387 161.323 35.928V37C161.195 37.032 161.051 37.0533 160.891 37.064C160.731 37.0853 160.603 37.096 160.507 37.096ZM167.022 37.192C166.222 37.192 165.496 37 164.846 36.616C164.206 36.2213 163.699 35.6827 163.326 35C162.952 34.3173 162.766 33.544 162.766 32.68C162.766 31.816 162.947 31.0533 163.31 30.392C163.672 29.72 164.163 29.192 164.782 28.808C165.411 28.424 166.115 28.232 166.894 28.232C167.512 28.232 168.062 28.3493 168.542 28.584C169.032 28.808 169.448 29.1173 169.79 29.512C170.131 29.896 170.392 30.3333 170.574 30.824C170.755 31.304 170.846 31.8 170.846 32.312C170.846 32.4187 170.84 32.5413 170.83 32.68C170.819 32.808 170.803 32.9413 170.782 33.08H163.534V31.96H170.094L169.518 32.44C169.614 31.8533 169.544 31.3307 169.31 30.872C169.086 30.4027 168.76 30.0347 168.334 29.768C167.907 29.4907 167.427 29.352 166.894 29.352C166.36 29.352 165.864 29.4907 165.406 29.768C164.958 30.0453 164.606 30.4347 164.35 30.936C164.094 31.4267 163.992 32.0133 164.046 32.696C163.992 33.3787 164.099 33.976 164.366 34.488C164.643 34.9893 165.016 35.3787 165.486 35.656C165.966 35.9333 166.478 36.072 167.022 36.072C167.651 36.072 168.179 35.9227 168.606 35.624C169.032 35.3253 169.379 34.952 169.646 34.504L170.67 35.048C170.499 35.432 170.238 35.7893 169.886 36.12C169.534 36.44 169.112 36.7013 168.622 36.904C168.142 37.096 167.608 37.192 167.022 37.192ZM172.081 37V35.96L177.249 29.16L177.473 29.624H172.353V28.424H178.529V29.464L173.377 36.264L173.153 35.8H178.561V37H172.081ZM182.868 37V24.888H184.068V37H182.868ZM190.428 37.192C189.628 37.192 188.903 37 188.252 36.616C187.612 36.2213 187.105 35.6827 186.732 35C186.359 34.3173 186.172 33.544 186.172 32.68C186.172 31.816 186.353 31.0533 186.716 30.392C187.079 29.72 187.569 29.192 188.188 28.808C188.817 28.424 189.521 28.232 190.3 28.232C190.919 28.232 191.468 28.3493 191.948 28.584C192.439 28.808 192.855 29.1173 193.196 29.512C193.537 29.896 193.799 30.3333 193.98 30.824C194.161 31.304 194.252 31.8 194.252 32.312C194.252 32.4187 194.247 32.5413 194.236 32.68C194.225 32.808 194.209 32.9413 194.188 33.08H186.94V31.96H193.5L192.924 32.44C193.02 31.8533 192.951 31.3307 192.716 30.872C192.492 30.4027 192.167 30.0347 191.74 29.768C191.313 29.4907 190.833 29.352 190.3 29.352C189.767 29.352 189.271 29.4907 188.812 29.768C188.364 30.0453 188.012 30.4347 187.756 30.936C187.5 31.4267 187.399 32.0133 187.452 32.696C187.399 33.3787 187.505 33.976 187.772 34.488C188.049 34.9893 188.423 35.3787 188.892 35.656C189.372 35.9333 189.884 36.072 190.428 36.072C191.057 36.072 191.585 35.9227 192.012 35.624C192.439 35.3253 192.785 34.952 193.052 34.504L194.076 35.048C193.905 35.432 193.644 35.7893 193.292 36.12C192.94 36.44 192.519 36.7013 192.028 36.904C191.548 37.096 191.015 37.192 190.428 37.192ZM199.966 37V29.624H198.254V28.424H199.966V27.656C199.966 27.0587 200.1 26.5573 200.366 26.152C200.633 25.736 200.985 25.4213 201.422 25.208C201.86 24.9947 202.329 24.888 202.83 24.888C202.937 24.888 203.06 24.8987 203.198 24.92C203.337 24.9307 203.449 24.9467 203.534 24.968V26.056C203.46 26.0347 203.358 26.024 203.23 26.024C203.102 26.0133 203.012 26.008 202.958 26.008C202.446 26.008 202.02 26.1307 201.678 26.376C201.337 26.6213 201.166 27.048 201.166 27.656V28.424H203.262V29.624H201.166V37H199.966ZM208.899 37.192C208.089 37.192 207.353 37 206.691 36.616C206.03 36.2213 205.502 35.688 205.107 35.016C204.723 34.3333 204.531 33.56 204.531 32.696C204.531 31.8427 204.723 31.08 205.107 30.408C205.491 29.736 206.009 29.208 206.659 28.824C207.321 28.4293 208.067 28.232 208.899 28.232C209.731 28.232 210.473 28.424 211.123 28.808C211.785 29.192 212.302 29.72 212.675 30.392C213.059 31.064 213.251 31.832 213.251 32.696C213.251 33.5707 213.054 34.3493 212.659 35.032C212.265 35.704 211.737 36.232 211.075 36.616C210.425 37 209.699 37.192 208.899 37.192ZM208.899 35.992C209.475 35.992 209.993 35.848 210.451 35.56C210.921 35.272 211.289 34.8773 211.555 34.376C211.833 33.8747 211.971 33.3147 211.971 32.696C211.971 32.0773 211.833 31.5227 211.555 31.032C211.289 30.5413 210.921 30.152 210.451 29.864C209.993 29.576 209.475 29.432 208.899 29.432C208.323 29.432 207.801 29.576 207.331 29.864C206.873 30.152 206.505 30.5413 206.227 31.032C205.95 31.5227 205.811 32.0773 205.811 32.696C205.811 33.3147 205.95 33.8747 206.227 34.376C206.505 34.8773 206.873 35.272 207.331 35.56C207.801 35.848 208.323 35.992 208.899 35.992ZM215.368 37V28.424H216.568V29.832L216.408 29.624C216.61 29.2187 216.914 28.8987 217.32 28.664C217.736 28.4293 218.237 28.312 218.824 28.312H219.368V29.512H218.616C217.997 29.512 217.501 29.704 217.128 30.088C216.754 30.472 216.568 31.016 216.568 31.72V37H215.368ZM220.774 37V28.424H221.974V30.056L221.782 29.816C222.017 29.3147 222.363 28.9253 222.822 28.648C223.291 28.3707 223.803 28.232 224.358 28.232C225.019 28.232 225.617 28.4187 226.15 28.792C226.683 29.1653 227.062 29.6507 227.286 30.248L226.95 30.264C227.163 29.6027 227.531 29.1013 228.054 28.76C228.587 28.408 229.174 28.232 229.814 28.232C230.39 28.232 230.918 28.3707 231.398 28.648C231.889 28.9253 232.278 29.3093 232.566 29.8C232.865 30.28 233.014 30.824 233.014 31.432V37H231.814V31.896C231.814 31.3733 231.718 30.9307 231.526 30.568C231.345 30.2053 231.094 29.928 230.774 29.736C230.454 29.5333 230.086 29.432 229.67 29.432C229.265 29.432 228.897 29.5333 228.566 29.736C228.235 29.928 227.974 30.2107 227.782 30.584C227.59 30.9467 227.494 31.384 227.494 31.896V37H226.294V31.896C226.294 31.3733 226.198 30.9307 226.006 30.568C225.825 30.2053 225.574 29.928 225.254 29.736C224.934 29.5333 224.566 29.432 224.15 29.432C223.734 29.432 223.361 29.5333 223.03 29.736C222.71 29.928 222.454 30.2107 222.262 30.584C222.07 30.9467 221.974 31.384 221.974 31.896V37H220.774ZM238.345 37.192C237.748 37.192 237.204 37.0533 236.713 36.776C236.223 36.488 235.833 36.0933 235.545 35.592C235.268 35.08 235.129 34.4933 235.129 33.832V28.424H236.329V33.688C236.329 34.1467 236.42 34.552 236.601 34.904C236.793 35.2453 237.055 35.512 237.385 35.704C237.727 35.896 238.116 35.992 238.553 35.992C238.991 35.992 239.38 35.896 239.721 35.704C240.063 35.5013 240.329 35.2187 240.521 34.856C240.713 34.4827 240.809 34.04 240.809 33.528V28.424H242.009V37H240.809V35.336L241.081 35.4C240.879 35.9547 240.532 36.392 240.041 36.712C239.551 37.032 238.985 37.192 238.345 37.192ZM244.477 37V24.888H245.677V37H244.477ZM250.613 37.192C250.069 37.192 249.584 37.0907 249.157 36.888C248.731 36.6747 248.395 36.3867 248.149 36.024C247.904 35.6613 247.781 35.2453 247.781 34.776C247.781 34.328 247.877 33.9227 248.069 33.56C248.261 33.1867 248.56 32.872 248.965 32.616C249.371 32.36 249.888 32.1787 250.517 32.072L253.877 31.512V32.6L250.805 33.112C250.187 33.2187 249.739 33.416 249.461 33.704C249.195 33.992 249.061 34.3333 249.061 34.728C249.061 35.112 249.211 35.4373 249.509 35.704C249.819 35.9707 250.213 36.104 250.693 36.104C251.28 36.104 251.792 35.9813 252.229 35.736C252.667 35.48 253.008 35.1387 253.253 34.712C253.499 34.2853 253.621 33.8107 253.621 33.288V31.112C253.621 30.6 253.435 30.184 253.061 29.864C252.688 29.544 252.203 29.384 251.605 29.384C251.083 29.384 250.624 29.5173 250.229 29.784C249.835 30.04 249.541 30.376 249.349 30.792L248.261 30.2C248.421 29.8373 248.672 29.5067 249.013 29.208C249.365 28.9093 249.765 28.6747 250.213 28.504C250.661 28.3227 251.125 28.232 251.605 28.232C252.235 28.232 252.789 28.3547 253.269 28.6C253.76 28.8453 254.139 29.1867 254.405 29.624C254.683 30.0507 254.821 30.5467 254.821 31.112V37H253.621V35.288L253.797 35.464C253.648 35.784 253.413 36.0773 253.093 36.344C252.784 36.6 252.416 36.808 251.989 36.968C251.573 37.1173 251.115 37.192 250.613 37.192ZM257.29 37V28.424H258.49V37H257.29ZM257.29 26.84V25.08H258.49V26.84H257.29ZM260.946 37V28.424H262.146V29.832L261.986 29.624C262.189 29.2187 262.493 28.8987 262.898 28.664C263.314 28.4293 263.815 28.312 264.402 28.312H264.946V29.512H264.194C263.575 29.512 263.079 29.704 262.706 30.088C262.333 30.472 262.146 31.016 262.146 31.72V37H260.946ZM270.256 37.192C269.456 37.192 268.731 37 268.08 36.616C267.44 36.2213 266.933 35.6827 266.56 35C266.187 34.3173 266 33.544 266 32.68C266 31.816 266.181 31.0533 266.544 30.392C266.907 29.72 267.397 29.192 268.016 28.808C268.645 28.424 269.349 28.232 270.128 28.232C270.747 28.232 271.296 28.3493 271.776 28.584C272.267 28.808 272.683 29.1173 273.024 29.512C273.365 29.896 273.627 30.3333 273.808 30.824C273.989 31.304 274.08 31.8 274.08 32.312C274.08 32.4187 274.075 32.5413 274.064 32.68C274.053 32.808 274.037 32.9413 274.016 33.08H266.768V31.96H273.328L272.752 32.44C272.848 31.8533 272.779 31.3307 272.544 30.872C272.32 30.4027 271.995 30.0347 271.568 29.768C271.141 29.4907 270.661 29.352 270.128 29.352C269.595 29.352 269.099 29.4907 268.64 29.768C268.192 30.0453 267.84 30.4347 267.584 30.936C267.328 31.4267 267.227 32.0133 267.28 32.696C267.227 33.3787 267.333 33.976 267.6 34.488C267.877 34.9893 268.251 35.3787 268.72 35.656C269.2 35.9333 269.712 36.072 270.256 36.072C270.885 36.072 271.413 35.9227 271.84 35.624C272.267 35.3253 272.613 34.952 272.88 34.504L273.904 35.048C273.733 35.432 273.472 35.7893 273.12 36.12C272.768 36.44 272.347 36.7013 271.856 36.904C271.376 37.096 270.843 37.192 270.256 37.192Z" fill="#538676"/>
</svg>
