<svg width="255" height="85" viewBox="0 0 255 85" fill="none" xmlns="http://www.w3.org/2000/svg">
<rect x="0.249412" y="0.249412" width="254.501" height="84.5012" rx="9.72706" fill="white" stroke="#E3DBD8" stroke-width="0.498824"/>
<path d="M117.127 39.3164V27.3964H121.223C122.001 27.3964 122.684 27.5511 123.271 27.8604C123.857 28.1591 124.311 28.5857 124.631 29.1404C124.961 29.6844 125.127 30.3191 125.127 31.0444C125.127 31.7697 124.961 32.4044 124.631 32.9484C124.311 33.4924 123.857 33.9191 123.271 34.2284C122.695 34.5271 122.012 34.6764 121.223 34.6764H118.407V39.3164H117.127ZM118.407 33.4764H121.287C121.799 33.4764 122.247 33.3804 122.631 33.1884C123.015 32.9857 123.313 32.7031 123.527 32.3404C123.74 31.9671 123.847 31.5297 123.847 31.0284C123.847 30.5271 123.74 30.0951 123.527 29.7324C123.313 29.3697 123.015 29.0924 122.631 28.9004C122.247 28.6977 121.799 28.5964 121.287 28.5964H118.407V33.4764ZM129.071 39.5084C128.527 39.5084 128.042 39.4071 127.615 39.2044C127.189 38.9911 126.853 38.7031 126.607 38.3404C126.362 37.9777 126.239 37.5617 126.239 37.0924C126.239 36.6444 126.335 36.2391 126.527 35.8764C126.719 35.5031 127.018 35.1884 127.423 34.9324C127.829 34.6764 128.346 34.4951 128.975 34.3884L132.335 33.8284V34.9164L129.263 35.4284C128.645 35.5351 128.197 35.7324 127.919 36.0204C127.653 36.3084 127.519 36.6497 127.519 37.0444C127.519 37.4284 127.669 37.7537 127.967 38.0204C128.277 38.2871 128.671 38.4204 129.151 38.4204C129.738 38.4204 130.25 38.2977 130.687 38.0524C131.125 37.7964 131.466 37.4551 131.711 37.0284C131.957 36.6017 132.079 36.1271 132.079 35.6044V33.4284C132.079 32.9164 131.893 32.5004 131.519 32.1804C131.146 31.8604 130.661 31.7004 130.063 31.7004C129.541 31.7004 129.082 31.8337 128.687 32.1004C128.293 32.3564 127.999 32.6924 127.807 33.1084L126.719 32.5164C126.879 32.1537 127.13 31.8231 127.471 31.5244C127.823 31.2257 128.223 30.9911 128.671 30.8204C129.119 30.6391 129.583 30.5484 130.063 30.5484C130.693 30.5484 131.247 30.6711 131.727 30.9164C132.218 31.1617 132.597 31.5031 132.863 31.9404C133.141 32.3671 133.279 32.8631 133.279 33.4284V39.3164H132.079V37.6044L132.255 37.7804C132.106 38.1004 131.871 38.3937 131.551 38.6604C131.242 38.9164 130.874 39.1244 130.447 39.2844C130.031 39.4337 129.573 39.5084 129.071 39.5084ZM135.924 42.8364C135.753 42.8364 135.577 42.8204 135.396 42.7884C135.225 42.7671 135.054 42.7244 134.884 42.6604V41.5404C134.99 41.5511 135.124 41.5671 135.284 41.5884C135.454 41.6204 135.625 41.6364 135.796 41.6364C136.318 41.6364 136.718 41.5244 136.996 41.3004C137.273 41.0871 137.545 40.6711 137.812 40.0524L138.356 38.7724L138.324 39.8284L134.692 30.7404H135.988L138.964 38.2444H138.628L141.588 30.7404H142.916L138.996 40.4044C138.825 40.8204 138.606 41.2151 138.34 41.5884C138.084 41.9617 137.758 42.2604 137.364 42.4844C136.969 42.7191 136.489 42.8364 135.924 42.8364ZM148.074 39.5084C147.274 39.5084 146.548 39.3164 145.898 38.9324C145.258 38.5377 144.751 37.9991 144.378 37.3164C144.004 36.6337 143.818 35.8604 143.818 34.9964C143.818 34.1324 143.999 33.3697 144.362 32.7084C144.724 32.0364 145.215 31.5084 145.834 31.1244C146.463 30.7404 147.167 30.5484 147.946 30.5484C148.564 30.5484 149.114 30.6657 149.594 30.9004C150.084 31.1244 150.5 31.4337 150.842 31.8284C151.183 32.2124 151.444 32.6497 151.626 33.1404C151.807 33.6204 151.898 34.1164 151.898 34.6284C151.898 34.7351 151.892 34.8577 151.882 34.9964C151.871 35.1244 151.855 35.2577 151.834 35.3964H144.586V34.2764H151.146L150.57 34.7564C150.666 34.1697 150.596 33.6471 150.362 33.1884C150.138 32.7191 149.812 32.3511 149.386 32.0844C148.959 31.8071 148.479 31.6684 147.946 31.6684C147.412 31.6684 146.916 31.8071 146.458 32.0844C146.01 32.3617 145.658 32.7511 145.402 33.2524C145.146 33.7431 145.044 34.3297 145.098 35.0124C145.044 35.6951 145.151 36.2924 145.418 36.8044C145.695 37.3057 146.068 37.6951 146.538 37.9724C147.018 38.2497 147.53 38.3884 148.074 38.3884C148.703 38.3884 149.231 38.2391 149.658 37.9404C150.084 37.6417 150.431 37.2684 150.698 36.8204L151.722 37.3644C151.551 37.7484 151.29 38.1057 150.938 38.4364C150.586 38.7564 150.164 39.0177 149.674 39.2204C149.194 39.4124 148.66 39.5084 148.074 39.5084ZM153.133 39.3164V38.2764L158.301 31.4764L158.525 31.9404H153.405V30.7404H159.581V31.7804L154.429 38.5804L154.205 38.1164H159.613V39.3164H153.133ZM167.824 39.5084C167.024 39.5084 166.298 39.3164 165.648 38.9324C165.008 38.5377 164.501 37.9991 164.128 37.3164C163.754 36.6337 163.568 35.8604 163.568 34.9964C163.568 34.1324 163.749 33.3697 164.112 32.7084C164.474 32.0364 164.965 31.5084 165.584 31.1244C166.213 30.7404 166.917 30.5484 167.696 30.5484C168.314 30.5484 168.864 30.6657 169.344 30.9004C169.834 31.1244 170.25 31.4337 170.592 31.8284C170.933 32.2124 171.194 32.6497 171.376 33.1404C171.557 33.6204 171.648 34.1164 171.648 34.6284C171.648 34.7351 171.642 34.8577 171.632 34.9964C171.621 35.1244 171.605 35.2577 171.584 35.3964H164.336V34.2764H170.896L170.32 34.7564C170.416 34.1697 170.346 33.6471 170.112 33.1884C169.888 32.7191 169.562 32.3511 169.136 32.0844C168.709 31.8071 168.229 31.6684 167.696 31.6684C167.162 31.6684 166.666 31.8071 166.208 32.0844C165.76 32.3617 165.408 32.7511 165.152 33.2524C164.896 33.7431 164.794 34.3297 164.848 35.0124C164.794 35.6951 164.901 36.2924 165.168 36.8044C165.445 37.3057 165.818 37.6951 166.288 37.9724C166.768 38.2497 167.28 38.3884 167.824 38.3884C168.453 38.3884 168.981 38.2391 169.408 37.9404C169.834 37.6417 170.181 37.2684 170.448 36.8204L171.472 37.3644C171.301 37.7484 171.04 38.1057 170.688 38.4364C170.336 38.7564 169.914 39.0177 169.424 39.2204C168.944 39.4124 168.41 39.5084 167.824 39.5084ZM173.763 39.3164V30.7404H174.963V32.4044L174.691 32.3404C174.905 31.7857 175.251 31.3484 175.731 31.0284C176.222 30.7084 176.787 30.5484 177.427 30.5484C178.035 30.5484 178.579 30.6871 179.059 30.9644C179.55 31.2417 179.934 31.6257 180.211 32.1164C180.499 32.5964 180.643 33.1404 180.643 33.7484V39.3164H179.443V34.2124C179.443 33.6897 179.347 33.2471 179.155 32.8844C178.974 32.5217 178.713 32.2444 178.371 32.0524C178.041 31.8497 177.657 31.7484 177.219 31.7484C176.782 31.7484 176.393 31.8497 176.051 32.0524C175.71 32.2444 175.443 32.5271 175.251 32.9004C175.059 33.2631 174.963 33.7004 174.963 34.2124V39.3164H173.763ZM185.654 39.3164V27.2044H186.854V39.3164H185.654ZM189.31 39.3164V30.7404H190.51V39.3164H189.31ZM189.31 29.1564V27.3964H190.51V29.1564H189.31ZM197.03 42.8364C196.444 42.8364 195.9 42.7457 195.398 42.5644C194.908 42.3831 194.481 42.1324 194.118 41.8124C193.766 41.5031 193.494 41.1404 193.302 40.7244L194.406 40.1324C194.577 40.5377 194.881 40.8897 195.318 41.1884C195.756 41.4871 196.316 41.6364 196.998 41.6364C197.521 41.6364 198.001 41.5351 198.438 41.3324C198.876 41.1297 199.228 40.8311 199.494 40.4364C199.761 40.0417 199.894 39.5564 199.894 38.9804V37.0764L200.086 37.2524C199.788 37.8711 199.345 38.3511 198.758 38.6924C198.172 39.0231 197.532 39.1884 196.838 39.1884C196.038 39.1884 195.318 38.9964 194.678 38.6124C194.038 38.2284 193.532 37.7111 193.158 37.0604C192.796 36.3991 192.614 35.6684 192.614 34.8684C192.614 34.0577 192.796 33.3271 193.158 32.6764C193.532 32.0257 194.033 31.5084 194.662 31.1244C195.302 30.7404 196.028 30.5484 196.838 30.5484C197.532 30.5484 198.161 30.7084 198.726 31.0284C199.302 31.3484 199.756 31.7804 200.086 32.3244L199.894 32.6604V30.7404H201.094V38.9804C201.094 39.7164 200.918 40.3724 200.566 40.9484C200.225 41.5351 199.745 41.9937 199.126 42.3244C198.518 42.6657 197.82 42.8364 197.03 42.8364ZM196.902 37.9884C197.457 37.9884 197.958 37.8497 198.406 37.5724C198.854 37.2844 199.212 36.9057 199.478 36.4364C199.756 35.9564 199.894 35.4337 199.894 34.8684C199.894 34.3031 199.756 33.7857 199.478 33.3164C199.212 32.8364 198.854 32.4577 198.406 32.1804C197.958 31.8924 197.457 31.7484 196.902 31.7484C196.337 31.7484 195.825 31.8924 195.366 32.1804C194.908 32.4577 194.545 32.8311 194.278 33.3004C194.022 33.7697 193.894 34.2924 193.894 34.8684C193.894 35.4337 194.022 35.9564 194.278 36.4364C194.545 36.9057 194.902 37.2844 195.35 37.5724C195.809 37.8497 196.326 37.9884 196.902 37.9884ZM203.56 39.3164V30.7404H204.76V32.4044L204.488 32.3404C204.701 31.7857 205.048 31.3484 205.528 31.0284C206.019 30.7084 206.584 30.5484 207.224 30.5484C207.832 30.5484 208.376 30.6871 208.856 30.9644C209.347 31.2417 209.731 31.6257 210.008 32.1164C210.296 32.5964 210.44 33.1404 210.44 33.7484V39.3164H209.24V34.2124C209.24 33.6897 209.144 33.2471 208.952 32.8844C208.771 32.5217 208.509 32.2444 208.168 32.0524C207.837 31.8497 207.453 31.7484 207.016 31.7484C206.579 31.7484 206.189 31.8497 205.848 32.0524C205.507 32.2444 205.24 32.5271 205.048 32.9004C204.856 33.2631 204.76 33.7004 204.76 34.2124V39.3164H203.56ZM216.636 39.5084C215.836 39.5084 215.111 39.3164 214.46 38.9324C213.82 38.5377 213.313 37.9991 212.94 37.3164C212.567 36.6337 212.38 35.8604 212.38 34.9964C212.38 34.1324 212.561 33.3697 212.924 32.7084C213.287 32.0364 213.777 31.5084 214.396 31.1244C215.025 30.7404 215.729 30.5484 216.508 30.5484C217.127 30.5484 217.676 30.6657 218.156 30.9004C218.647 31.1244 219.063 31.4337 219.404 31.8284C219.745 32.2124 220.007 32.6497 220.188 33.1404C220.369 33.6204 220.46 34.1164 220.46 34.6284C220.46 34.7351 220.455 34.8577 220.444 34.9964C220.433 35.1244 220.417 35.2577 220.396 35.3964H213.148V34.2764H219.708L219.132 34.7564C219.228 34.1697 219.159 33.6471 218.924 33.1884C218.7 32.7191 218.375 32.3511 217.948 32.0844C217.521 31.8071 217.041 31.6684 216.508 31.6684C215.975 31.6684 215.479 31.8071 215.02 32.0844C214.572 32.3617 214.22 32.7511 213.964 33.2524C213.708 33.7431 213.607 34.3297 213.66 35.0124C213.607 35.6951 213.713 36.2924 213.98 36.8044C214.257 37.3057 214.631 37.6951 215.1 37.9724C215.58 38.2497 216.092 38.3884 216.636 38.3884C217.265 38.3884 217.793 38.2391 218.22 37.9404C218.647 37.6417 218.993 37.2684 219.26 36.8204L220.284 37.3644C220.113 37.7484 219.852 38.1057 219.5 38.4364C219.148 38.7564 218.727 39.0177 218.236 39.2204C217.756 39.4124 217.223 39.5084 216.636 39.5084Z" fill="#00647b"/>
<mask id="path-3-outside-1_3970_266" maskUnits="userSpaceOnUse" x="22" y="19.6914" width="64" height="41" fill="black">
<rect fill="white" x="22" y="19.6914" width="64" height="41"/>
<path d="M38.7 59.2914C35.7333 59.2914 33.1333 58.4914 30.9 56.8914C28.6667 55.2914 26.9167 53.0414 25.65 50.1414C24.4167 47.2414 23.8 43.8747 23.8 40.0414C23.8 36.1747 24.4167 32.8081 25.65 29.9414C26.8833 27.0747 28.6167 24.8414 30.85 23.2414C33.0833 21.6414 35.6833 20.8414 38.65 20.8414C41.6833 20.8414 44.3 21.6414 46.5 23.2414C48.7333 24.8414 50.4833 27.0914 51.75 29.9914C53.0167 32.8581 53.65 36.2081 53.65 40.0414C53.65 43.8747 53.0167 47.2414 51.75 50.1414C50.5167 53.0081 48.7833 55.2581 46.55 56.8914C44.3167 58.4914 41.7 59.2914 38.7 59.2914ZM38.75 53.0914C40.45 53.0914 41.9 52.5747 43.1 51.5414C44.3 50.4747 45.2167 48.9747 45.85 47.0414C46.5167 45.0747 46.85 42.7414 46.85 40.0414C46.85 37.3414 46.5167 35.0247 45.85 33.0914C45.2167 31.1247 44.2833 29.6247 43.05 28.5914C41.85 27.5581 40.3833 27.0414 38.65 27.0414C36.9833 27.0414 35.55 27.5581 34.35 28.5914C33.15 29.6247 32.2167 31.1247 31.55 33.0914C30.9167 35.0247 30.6 37.3414 30.6 40.0414C30.6 42.7081 30.9167 45.0247 31.55 46.9914C32.2167 48.9247 33.15 50.4247 34.35 51.4914C35.5833 52.5581 37.05 53.0914 38.75 53.0914ZM71.0504 59.2914C69.0171 59.2914 67.0837 58.9247 65.2504 58.1914C63.4504 57.4247 61.9004 56.3581 60.6004 54.9914C59.3337 53.5914 58.4671 51.9414 58.0004 50.0414L63.9504 47.9414C64.5504 49.6414 65.4671 50.9414 66.7004 51.8414C67.9337 52.7081 69.3837 53.1414 71.0504 53.1414C72.3837 53.1414 73.5337 52.8914 74.5004 52.3914C75.5004 51.8914 76.2837 51.1747 76.8504 50.2414C77.4171 49.2747 77.7004 48.1414 77.7004 46.8414C77.7004 45.5414 77.4171 44.4414 76.8504 43.5414C76.3171 42.6081 75.5504 41.8914 74.5504 41.3914C73.5504 40.8914 72.3671 40.6414 71.0004 40.6414C70.3671 40.6414 69.7004 40.7081 69.0004 40.8414C68.3337 40.9747 67.7337 41.1747 67.2004 41.4414L65.6504 38.1914L75.3004 27.1914H60.1004V21.4414H82.9504V26.7914L73.2504 38.1414L73.3504 35.5914C75.5837 35.6247 77.5337 36.1081 79.2004 37.0414C80.8671 37.9747 82.1671 39.2581 83.1004 40.8914C84.0337 42.5247 84.5004 44.4414 84.5004 46.6414C84.5004 49.0414 83.9171 51.2081 82.7504 53.1414C81.5837 55.0414 79.9837 56.5414 77.9504 57.6414C75.9171 58.7414 73.6171 59.2914 71.0504 59.2914Z"/>
</mask>
<path d="M30.9 56.8914L30.3176 57.7043L30.9 56.8914ZM25.65 50.1414L24.7297 50.5328L24.7336 50.5417L25.65 50.1414ZM25.65 29.9414L24.7314 29.5462H24.7314L25.65 29.9414ZM30.85 23.2414L30.2676 22.4285L30.85 23.2414ZM46.5 23.2414L45.9118 24.0502L45.9176 24.0543L46.5 23.2414ZM51.75 29.9914L50.8336 30.3917L50.8353 30.3956L51.75 29.9914ZM51.75 50.1414L50.8336 49.7411L50.8314 49.7462L51.75 50.1414ZM46.55 56.8914L47.1324 57.7044L47.1403 57.6986L46.55 56.8914ZM43.1 51.5414L43.7525 52.2992L43.7585 52.294L43.7644 52.2888L43.1 51.5414ZM45.85 47.0414L44.9029 46.7203L44.8997 46.7301L45.85 47.0414ZM45.85 33.0914L44.8981 33.3979L44.9013 33.4077L44.9046 33.4174L45.85 33.0914ZM43.05 28.5914L42.3974 29.3492L42.4078 29.3579L43.05 28.5914ZM34.35 28.5914L33.6975 27.8336L33.6975 27.8336L34.35 28.5914ZM31.55 33.0914L30.6029 32.7703L30.5997 32.7801L31.55 33.0914ZM31.55 46.9914L30.5981 47.2979L30.6013 47.3077L30.6046 47.3174L31.55 46.9914ZM34.35 51.4914L33.6856 52.2389L33.6958 52.2478L34.35 51.4914ZM38.7 58.2914C35.9246 58.2914 33.5321 57.547 31.4824 56.0785L30.3176 57.7043C32.7345 59.4358 35.542 60.2914 38.7 60.2914V58.2914ZM31.4824 56.0785C29.4166 54.5985 27.7721 52.5015 26.5664 49.7411L24.7336 50.5417C26.0613 53.5813 27.9167 55.9843 30.3176 57.7043L31.4824 56.0785ZM26.5702 49.75C25.3996 46.9975 24.8 43.7686 24.8 40.0414H22.8C22.8 43.9808 23.4337 47.4853 24.7298 50.5328L26.5702 49.75ZM24.8 40.0414C24.8 36.2791 25.4002 33.0524 26.5686 30.3366L24.7314 29.5462C23.4332 32.5637 22.8 36.0704 22.8 40.0414H24.8ZM26.5686 30.3366C27.74 27.614 29.3663 25.5345 31.4324 24.0543L30.2676 22.4285C27.867 24.1483 26.0267 26.5355 24.7314 29.5462L26.5686 30.3366ZM31.4324 24.0543C33.4821 22.5858 35.8746 21.8414 38.65 21.8414V19.8414C35.492 19.8414 32.6845 20.697 30.2676 22.4285L31.4324 24.0543ZM38.65 21.8414C41.4975 21.8414 43.9023 22.5886 45.9118 24.0501L47.0882 22.4327C44.6977 20.6942 41.8692 19.8414 38.65 19.8414V21.8414ZM45.9176 24.0543C47.9834 25.5343 49.6279 27.6313 50.8336 30.3917L52.6664 29.5911C51.3387 26.5515 49.4833 24.1485 47.0824 22.4285L45.9176 24.0543ZM50.8353 30.3956C52.0346 33.1098 52.65 36.3169 52.65 40.0414H54.65C54.65 36.0992 53.9987 32.6063 52.6647 29.5872L50.8353 30.3956ZM52.65 40.0414C52.65 43.7655 52.0348 46.9911 50.8336 49.7411L52.6664 50.5417C53.9986 47.4917 54.65 43.984 54.65 40.0414H52.65ZM50.8314 49.7462C49.6595 52.4701 48.031 54.5694 45.9597 56.0842L47.1403 57.6986C49.5357 55.9467 51.3738 53.546 52.6686 50.5366L50.8314 49.7462ZM45.9676 56.0785C43.9198 57.5456 41.5113 58.2914 38.7 58.2914V60.2914C41.8887 60.2914 44.7135 59.4372 47.1324 57.7043L45.9676 56.0785ZM38.75 54.0914C40.6705 54.0914 42.3571 53.5008 43.7525 52.2992L42.4475 50.7836C41.4429 51.6487 40.2296 52.0914 38.75 52.0914V54.0914ZM43.7644 52.2888C45.1275 51.0772 46.1264 49.4099 46.8003 47.3527L44.8997 46.7301C44.3069 48.5395 43.4725 49.8723 42.4356 50.794L43.7644 52.2888ZM46.7971 47.3624C47.5075 45.2666 47.85 42.8196 47.85 40.0414H45.85C45.85 42.6632 45.5258 44.8828 44.9029 46.7204L46.7971 47.3624ZM47.85 40.0414C47.85 37.2639 47.5077 34.8311 46.7954 32.7654L44.9046 33.4174C45.5256 35.2183 45.85 37.4189 45.85 40.0414H47.85ZM46.8019 32.7849C46.1269 30.6891 45.1058 29.0093 43.6922 27.8249L42.4078 29.3579C43.4608 30.2402 44.3064 31.5604 44.8981 33.3979L46.8019 32.7849ZM43.7025 27.8336C42.3034 26.6288 40.5985 26.0414 38.65 26.0414V28.0414C40.1682 28.0414 41.3966 28.4873 42.3975 29.3492L43.7025 27.8336ZM38.65 26.0414C36.7575 26.0414 35.0891 26.6353 33.6975 27.8336L35.0025 29.3492C36.0109 28.4808 37.2092 28.0414 38.65 28.0414V26.0414ZM33.6975 27.8336C32.3261 29.0145 31.3096 30.6858 30.6029 32.7704L32.4971 33.4124C33.1238 31.5637 33.9739 30.235 35.0025 29.3492L33.6975 27.8336ZM30.5997 32.7801C29.9247 34.8407 29.6 37.2681 29.6 40.0414H31.6C31.6 37.4147 31.9087 35.2088 32.5003 33.4027L30.5997 32.7801ZM29.6 40.0414C29.6 42.7835 29.9252 45.2082 30.5981 47.2979L32.5019 46.6849C31.9081 44.8412 31.6 42.6326 31.6 40.0414H29.6ZM30.6046 47.3174C31.3122 49.3695 32.3269 51.031 33.6856 52.2388L35.0144 50.744C33.9731 49.8185 33.1211 48.48 32.4954 46.6654L30.6046 47.3174ZM33.6958 52.2478C35.1192 53.4787 36.8209 54.0914 38.75 54.0914V52.0914C37.2791 52.0914 36.0475 51.6374 35.0042 50.735L33.6958 52.2478ZM65.2504 58.1914L64.8585 59.1114L64.8687 59.1158L64.879 59.1199L65.2504 58.1914ZM60.6004 54.9914L59.8589 55.6623L59.8672 55.6716L59.8758 55.6806L60.6004 54.9914ZM58.0004 50.0414L57.6676 49.0984L56.8131 49.4L57.0293 50.2799L58.0004 50.0414ZM63.9504 47.9414L64.8934 47.6086L64.5606 46.6656L63.6176 46.9984L63.9504 47.9414ZM66.7004 51.8414L66.1109 52.6492L66.1181 52.6545L66.1254 52.6596L66.7004 51.8414ZM74.5004 52.3914L74.0531 51.4969L74.041 51.5032L74.5004 52.3914ZM76.8504 50.2414L77.7052 50.7604L77.7092 50.7538L77.7131 50.7471L76.8504 50.2414ZM76.8504 43.5414L75.9821 44.0375L75.9928 44.0561L76.0042 44.0742L76.8504 43.5414ZM74.5504 41.3914L74.1032 42.2858L74.5504 41.3914ZM69.0004 40.8414L68.8133 39.859L68.8043 39.8608L69.0004 40.8414ZM67.2004 41.4414L66.2978 41.8719L66.7364 42.7915L67.6476 42.3358L67.2004 41.4414ZM65.6504 38.1914L64.8987 37.5319L64.4642 38.0272L64.7478 38.6219L65.6504 38.1914ZM75.3004 27.1914L76.0521 27.8509L77.5079 26.1914H75.3004V27.1914ZM60.1004 27.1914H59.1004V28.1914H60.1004V27.1914ZM60.1004 21.4414V20.4414H59.1004V21.4414H60.1004ZM82.9504 21.4414H83.9504V20.4414H82.9504V21.4414ZM82.9504 26.7914L83.7106 27.4411L83.9504 27.1605V26.7914H82.9504ZM73.2504 38.1414L72.2512 38.1022L72.1382 40.982L74.0106 38.7911L73.2504 38.1414ZM73.3504 35.5914L73.3653 34.5915L72.3894 34.577L72.3512 35.5522L73.3504 35.5914ZM83.1004 40.8914L82.2322 41.3875L83.1004 40.8914ZM82.7504 53.1414L83.6026 53.6647L83.6066 53.6581L82.7504 53.1414ZM77.9504 57.6414L78.4262 58.521H78.4262L77.9504 57.6414ZM71.0504 58.2914C69.1404 58.2914 67.3335 57.9476 65.6218 57.2629L64.879 59.1199C66.834 59.9019 68.8937 60.2914 71.0504 60.2914V58.2914ZM65.6423 57.2714C63.963 56.5561 62.5274 55.5663 61.3249 54.3022L59.8758 55.6806C61.2733 57.1498 62.9378 58.2934 64.8585 59.1114L65.6423 57.2714ZM61.3419 54.3205C60.1906 53.0479 59.4002 51.548 58.9715 49.8029L57.0293 50.2799C57.534 52.3348 58.4769 54.1349 59.8589 55.6623L61.3419 54.3205ZM58.3332 50.9844L64.2832 48.8844L63.6176 46.9984L57.6676 49.0984L58.3332 50.9844ZM63.0074 48.2742C63.6622 50.1294 64.6867 51.6099 66.1109 52.6492L67.2899 51.0336C66.2474 50.2729 65.4386 49.1534 64.8934 47.6086L63.0074 48.2742ZM66.1254 52.6596C67.5449 53.657 69.2007 54.1414 71.0504 54.1414V52.1414C69.5668 52.1414 68.3226 51.7591 67.2753 51.0232L66.1254 52.6596ZM71.0504 54.1414C72.5081 54.1414 73.8227 53.8678 74.9598 53.2796L74.041 51.5032C73.2448 51.915 72.2593 52.1414 71.0504 52.1414V54.1414ZM74.9476 53.2858C76.1119 52.7037 77.0383 51.8588 77.7052 50.7604L75.9956 49.7224C75.5292 50.4907 74.8889 51.0791 74.0532 51.497L74.9476 53.2858ZM77.7131 50.7471C78.3832 49.604 78.7004 48.2903 78.7004 46.8414H76.7004C76.7004 47.9925 76.4509 48.9455 75.9877 49.7357L77.7131 50.7471ZM78.7004 46.8414C78.7004 45.3949 78.384 44.1003 77.6966 43.0086L76.0042 44.0742C76.4501 44.7825 76.7004 45.6879 76.7004 46.8414H78.7004ZM77.7186 43.0453C77.0833 41.9334 76.1667 41.0815 74.9976 40.497L74.1032 42.2858C74.9341 42.7013 75.5508 43.2827 75.9821 44.0375L77.7186 43.0453ZM74.9976 40.497C73.8313 39.9138 72.4883 39.6414 71.0004 39.6414V41.6414C72.2458 41.6414 73.2695 41.869 74.1032 42.2858L74.9976 40.497ZM71.0004 39.6414C70.297 39.6414 69.5674 39.7154 68.8133 39.8591L69.1875 41.8237C69.8334 41.7007 70.4371 41.6414 71.0004 41.6414V39.6414ZM68.8043 39.8608C68.0624 40.0092 67.3762 40.2355 66.7532 40.547L67.6476 42.3358C68.0912 42.114 68.605 41.9403 69.1965 41.822L68.8043 39.8608ZM68.103 41.0109L66.553 37.7609L64.7478 38.6219L66.2978 41.8719L68.103 41.0109ZM66.4021 38.8509L76.0521 27.8509L74.5487 26.5319L64.8987 37.5319L66.4021 38.8509ZM75.3004 26.1914H60.1004V28.1914H75.3004V26.1914ZM61.1004 27.1914V21.4414H59.1004V27.1914H61.1004ZM60.1004 22.4414H82.9504V20.4414H60.1004V22.4414ZM81.9504 21.4414V26.7914H83.9504V21.4414H81.9504ZM82.1902 26.1417L72.4902 37.4917L74.0106 38.7911L83.7106 27.4411L82.1902 26.1417ZM74.2496 38.1806L74.3496 35.6306L72.3512 35.5522L72.2512 38.1022L74.2496 38.1806ZM73.3355 36.5913C75.431 36.6226 77.2128 37.0745 78.7118 37.9139L79.689 36.1689C77.8547 35.1417 75.7365 34.6269 73.3653 34.5915L73.3355 36.5913ZM78.7118 37.9139C80.2227 38.76 81.3903 39.9143 82.2322 41.3875L83.9686 40.3953C82.9438 38.6018 81.5114 37.1895 79.689 36.1689L78.7118 37.9139ZM82.2322 41.3875C83.0655 42.8459 83.5004 44.5857 83.5004 46.6414H85.5004C85.5004 44.2971 85.002 42.2036 83.9686 40.3953L82.2322 41.3875ZM83.5004 46.6414C83.5004 48.8712 82.9608 50.8572 81.8942 52.6247L83.6066 53.6581C84.8733 51.5589 85.5004 49.2116 85.5004 46.6414H83.5004ZM81.8982 52.6181C80.827 54.3627 79.3593 55.7423 77.4746 56.7619L78.4262 58.521C80.6082 57.3405 82.3405 55.7201 83.6026 53.6647L81.8982 52.6181ZM77.4746 56.7619C75.603 57.7744 73.4696 58.2914 71.0504 58.2914V60.2914C73.7645 60.2914 76.2312 59.7084 78.4262 58.521L77.4746 56.7619Z" fill="#00647b" mask="url(#path-3-outside-1_3970_266)"/>
</svg>
