<svg width="65" height="53" viewBox="0 0 65 53" fill="none" xmlns="http://www.w3.org/2000/svg">
<path d="M64.1113 13.3256H54.6152L51.1042 0.824258C51.0518 0.637685 50.9398 0.473362 50.7853 0.356301C50.6308 0.23924 50.4424 0.17585 50.2486 0.175781H14.7499C14.5561 0.17585 14.3676 0.23924 14.2132 0.356301C14.0587 0.473362 13.9467 0.637685 13.8943 0.824258L10.3827 13.3256H0.888672C0.653245 13.3256 0.427439 13.419 0.260824 13.5853C0.0942094 13.7517 0.000403589 13.9773 0 14.2127L0 48.3829C0.00134403 49.561 0.469914 50.6904 1.30291 51.5234C2.13591 52.3564 3.26532 52.825 4.44336 52.8263H60.5566C61.7347 52.825 62.8641 52.3564 63.6971 51.5234C64.5301 50.6904 64.9987 49.561 65 48.3829V14.2127C64.9997 13.9773 64.906 13.7515 64.7393 13.5852C64.5727 13.4188 64.3468 13.3255 64.1113 13.3256ZM15.4233 1.95313H49.5767L52.7704 13.3256H49.3426L47.257 5.90238C47.2047 5.71581 47.0929 5.55145 46.9385 5.43437C46.7841 5.3173 46.5956 5.25392 46.4019 5.25391H18.5981C18.4043 5.25398 18.2158 5.31737 18.0614 5.43443C17.9069 5.55149 17.7949 5.71581 17.7425 5.90238L15.6574 13.3256H12.2286L15.4233 1.95313ZM47.4967 13.3256H17.5038L19.2715 7.03125H45.7285L47.4967 13.3256ZM1.77734 15.1029H63.2227V25.8416C63.2219 26.5485 62.9407 27.2261 62.4409 27.7259C61.9411 28.2257 61.2635 28.5069 60.5566 28.5077H4.44336C3.73654 28.5069 3.05889 28.2257 2.55909 27.7259C2.05929 27.2261 1.77815 26.5485 1.77734 25.8416V15.1029ZM44.7383 30.283V35.5134H41.4375V30.283H44.7383ZM23.5625 30.283V35.5134H20.2617V30.283H23.5625ZM63.2227 48.3845C63.2219 49.0913 62.9407 49.7689 62.4409 50.2687C61.9411 50.7685 61.2635 51.0497 60.5566 51.0505H4.44336C3.73654 51.0497 3.05889 50.7685 2.55909 50.2687C2.05929 49.7689 1.77815 49.0913 1.77734 48.3845V29.3923C2.54755 29.9673 3.48218 30.2796 4.44336 30.283H18.4844V36.4041C18.4844 36.6398 18.578 36.8659 18.7447 37.0325C18.9113 37.1992 19.1374 37.2928 19.373 37.2928H24.4512C24.6868 37.2927 24.9128 37.199 25.0794 37.0324C25.246 36.8658 25.3397 36.6398 25.3398 36.4041V30.2825H39.6602V36.4041C39.6602 36.6398 39.7538 36.8659 39.9204 37.0325C40.0871 37.1992 40.3131 37.2928 40.5488 37.2928H45.627C45.8626 37.2927 46.0886 37.199 46.2552 37.0324C46.4218 36.8658 46.5155 36.6398 46.5156 36.4041V30.2825H60.5566C61.5178 30.2788 62.4523 29.9666 63.2227 29.3918V48.3845Z" fill="#00647b"/>
</svg>
