<svg width="699" height="679" viewBox="0 0 699 679" fill="none" xmlns="http://www.w3.org/2000/svg">
<g clip-path="url(#clip0_3843_1050)">
<path d="M696.371 377.434C688.769 433.129 659.428 497.901 600.801 527.715C512.237 572.692 519.646 641.852 346.81 671.923C321.596 676.411 295.896 678.519 270.158 678.207C257.563 678.011 244.996 677.119 232.532 675.536C122.668 661.631 48.7133 595.447 21.5976 515.556C-14.1012 410.481 57.1738 341.701 104.416 300.245C151.658 258.789 186.236 129.593 355.919 98.8543C381.818 94.0723 408.268 91.8973 434.743 92.3725C495.105 93.6628 560.95 110.831 606.528 146.701C609.938 149.393 613.266 152.181 616.513 155.065C679.818 211.413 706.723 301.49 696.371 377.434Z" fill="#46709B"/>
<path d="M696.371 377.434C688.769 433.129 659.428 497.901 600.801 527.715C512.237 572.692 519.646 641.852 346.81 671.923C321.596 676.411 295.896 678.519 270.158 678.207C257.563 678.011 244.996 677.119 232.532 675.536C122.668 661.631 48.7133 595.447 21.5976 515.556C-14.1012 410.481 57.1738 341.701 104.416 300.245C151.658 258.789 186.236 129.593 355.919 98.8543C381.818 94.0723 408.268 91.8973 434.743 92.3725C495.105 93.6628 560.95 110.831 606.528 146.701C609.938 149.393 613.266 152.181 616.513 155.065C679.818 211.413 706.723 301.49 696.371 377.434Z" fill="white"/>
<g opacity="0.15">
<path d="M469.356 106.444C461.053 111.438 438.737 114.793 438.72 114.793C438.702 114.793 440.629 101.374 440.874 100.539C443.747 90.8697 455.834 73.6406 468.726 72.9575C477.992 72.4718 484.806 79.4545 484.491 87.181C484.175 94.9075 476.433 102.148 469.356 106.444Z" fill="#D9D9D9"/>
<path d="M407.889 349.789C407.889 350.244 407.889 350.669 407.889 351.125L400.182 355.39C400.182 353.569 400.182 351.732 400.182 349.819C400.182 344.446 400.305 338.693 400.48 332.788C394.086 331.753 387.769 330.389 381.562 328.704C376.465 335.884 361.488 345.842 359.544 347.117C362.889 351.55 366.218 355.815 369.406 359.823C371.613 362.57 373.75 365.197 375.817 367.732L367.426 369.159C365.99 367.337 364.553 365.47 363.082 363.527C359.579 359.049 356.075 354.191 352.485 349.182C350.207 350.017 331.465 356.772 322.006 356.544C313.405 356.347 302.51 354.009 297.22 347.588C291.93 341.167 293.331 332.226 301.406 328.234C312.617 322.678 333.619 331.361 342.115 338.101C342.623 338.495 347.51 343.338 350.54 346.434C349.086 344.385 347.632 342.396 346.161 340.271C343.218 336.066 340.433 331.801 337.403 327.232L333.234 320.401C331.797 318.139 330.606 315.604 329.258 313.175C326.262 307.513 323.565 301.654 320.99 295.703C316.751 297.935 301.529 305.646 292.963 306.572C284.398 307.498 273.257 306.572 266.899 300.971C260.54 295.369 260.365 286.292 267.652 281.237C277.759 274.285 300.04 280.114 309.692 285.654C310.305 285.988 316.698 290.648 320.096 293.244C318.572 289.647 317.049 286.064 315.647 282.391C311.618 271.765 307.922 260.926 304.174 250.118C303.006 246.809 301.838 243.51 300.671 240.221C299.182 241.026 281.402 250.543 271.716 251.576C263.168 252.517 251.992 251.576 245.651 245.974C239.31 240.373 239.117 231.295 246.404 226.241C256.511 219.288 278.792 225.117 288.444 230.658C289.162 231.083 298.306 237.777 300.53 239.584C297.938 232.312 295.275 225.102 292.333 218.089C288.34 208.64 283.641 199.427 278.267 190.507C277.566 190.872 258.999 200.875 249.154 201.938C240.606 202.864 229.431 201.938 223.072 196.336C216.714 190.735 216.538 181.657 223.825 176.603C233.932 169.65 256.213 175.479 265.865 181.02C266.601 181.46 276.375 188.61 278.127 190.128C277.829 189.612 277.566 189.05 277.251 188.61C271.622 179.743 265.098 171.326 257.755 163.457C253.779 159.055 249.68 155.062 245.493 151.313C242.253 153.484 227.329 163.259 218.588 165.066C210.215 166.796 198.987 166.994 191.963 162.03C184.939 157.066 183.607 148.064 190.211 142.402C199.39 134.524 222.266 138.198 232.496 142.797C233.057 143.04 238.382 146.121 242.235 148.414C240.361 146.713 238.452 144.937 236.63 143.344C229.746 137.272 223.037 132.202 217.046 127.693C213.543 125.158 210.46 122.927 207.465 120.862C203.016 121.545 184.991 124.141 176.426 122.289C167.86 120.437 158.016 116.217 154.442 108.916C150.869 101.614 154.442 93.1894 163.341 90.791C175.602 87.4666 194.012 99.8989 200.651 108.02C201.229 108.734 208.726 120.65 208.498 120.695H208.236C211.143 122.623 214.244 124.733 217.589 127.101C223.703 131.503 230.569 136.513 237.611 142.418C245.287 148.701 252.528 155.371 259.296 162.394C266.941 170.212 273.759 178.61 279.668 187.486L279.861 187.82C279.055 184.617 277.181 175.601 277.128 174.887C276.375 164.929 281.665 145.287 293.664 141.158C302.3 138.122 311.286 142.979 313.72 150.417C316.155 157.855 311.548 166.675 306.293 172.625C300.443 179.35 281.945 188.033 280.474 188.731C286.231 197.886 291.275 207.364 295.573 217.102C298.113 222.764 300.478 228.548 302.755 234.362C302.177 231.569 301.669 229.064 301.651 228.715C300.898 218.757 306.188 199.114 318.187 194.985C326.823 191.949 335.809 196.807 338.244 204.245C340.678 211.683 336.072 220.67 330.817 226.62C325.562 232.571 309.954 240.282 305.785 242.331C306.644 244.578 307.537 246.794 308.36 249.041C312.372 259.788 316.33 270.535 320.622 280.918C322.111 284.592 323.74 288.159 325.369 291.741C324.843 289.267 324.441 287.188 324.405 286.854C323.652 276.896 328.942 257.253 340.941 253.124C349.577 250.164 358.563 254.946 360.998 262.384C363.432 269.822 358.843 278.869 353.588 284.819C348.333 290.77 334.32 297.798 329.31 300.166C331.062 303.794 332.813 307.422 334.793 310.792C336.159 313.115 337.298 315.437 338.822 317.714C340.346 319.991 341.729 322.268 343.148 324.469C346.091 328.674 349.086 333.031 352.064 337.068C354.114 339.892 356.128 342.548 358.142 345.235C356.601 341.577 353.746 334.397 353.588 333.759C351.784 325.133 352.55 316.251 355.813 307.953C355.561 306.996 355.415 306.02 355.375 305.039C355.059 297.328 361.908 290.375 371.14 290.907C384.014 291.635 395.996 308.925 398.798 318.61C398.973 319.171 399.972 325.547 400.55 329.57C400.655 327.171 400.708 324.818 400.83 322.344C401.058 317.441 401.426 312.538 401.811 307.27C402.109 304.735 402.407 302.17 402.705 299.589C403.002 297.009 403.563 294.322 403.966 291.666C405.087 285.594 406.558 279.34 408.205 273.131C403.248 272.964 385.643 272.129 377.901 268.805C370.159 265.48 361.418 259.408 359.719 251.667C358.02 243.925 363.625 236.29 372.874 235.606C385.731 234.635 400.62 250.149 405.087 259.348C405.367 259.925 407.714 266.847 408.923 270.657C409.939 266.938 410.937 263.219 412.111 259.5C415.509 248.707 419.328 237.899 423.076 227.091C424.232 223.781 425.336 220.472 426.457 217.148C424.705 217.148 403.685 216.51 395.067 212.776C387.36 209.467 378.584 203.395 376.885 195.638C375.186 187.881 380.791 180.276 390.058 179.578C402.897 178.621 417.786 194.12 422.253 203.334C422.586 204.017 425.949 213.96 426.667 216.556C429.12 209.254 431.502 201.968 433.499 194.712C436.266 184.915 438.29 174.971 439.559 164.944C438.736 164.944 416.788 164.383 408.03 160.557C400.305 157.248 391.546 151.176 389.847 143.419C388.148 135.663 393.736 128.057 403.002 127.359C415.859 126.403 430.731 141.901 435.198 151.116C435.566 151.829 439.174 162.546 439.665 164.535C439.665 163.958 439.875 163.351 439.945 162.774C440.905 152.668 440.823 142.508 439.7 132.414C439.174 126.843 438.298 121.545 437.317 116.415C433.236 116.673 414.546 117.69 406.12 115.018C398.028 112.468 388.604 107.261 385.889 99.7168C383.174 92.1724 387.815 84.0664 396.924 82.5028C409.589 80.3169 426.334 94.3127 431.957 103.041C432.255 103.512 434.742 108.627 436.494 112.392C436.004 110.069 435.566 107.671 435.058 105.47C433.148 97.1817 430.819 89.6829 428.682 83.0645C427.438 79.2999 426.229 75.93 425.056 72.7726C420.887 71.2546 404.211 64.7728 398.255 59.1107C392.3 53.4487 386.782 45.206 388.429 37.434C390.075 29.6619 398.431 24.4704 407.364 26.6866C419.766 29.8137 427.175 48.9251 427.525 58.9134C427.525 59.7635 426.212 73.3039 426.002 73.228L425.739 73.1369C426.947 76.1728 428.191 79.3758 429.47 82.943C431.765 89.5311 434.287 96.9996 436.476 105.303C438.88 114.211 440.681 123.233 441.872 132.323C443.252 142.503 443.586 152.77 442.87 163.001V163.366C444.254 160.33 448.423 151.89 448.826 151.222C454.536 142.554 471.457 128.71 484.087 131.002C493.178 132.657 497.627 140.945 494.929 148.323C492.232 155.7 482.668 160.952 474.505 163.502C465.344 166.295 444.376 164.702 442.712 164.565C441.687 174.961 439.862 185.286 437.247 195.471C435.758 201.406 434.059 207.357 432.255 213.292C433.551 210.681 434.725 208.359 434.917 208.055C440.628 199.387 457.549 185.528 470.178 187.836C479.287 189.49 483.719 197.778 481.021 205.141C478.324 212.503 468.759 217.785 460.597 220.32C452.434 222.855 434.462 221.838 429.715 221.459C429.014 223.736 428.314 226.013 427.596 228.275C424.092 239.174 420.589 250.027 417.471 260.775C416.385 264.554 415.474 268.365 414.546 272.068C415.684 269.761 416.665 267.818 416.858 267.514C422.568 258.847 439.489 245.003 452.119 247.295C461.21 248.95 465.659 257.238 462.962 264.615C460.264 271.992 450.7 277.245 442.537 279.795C434.374 282.345 418.137 281.313 412.514 280.979C411.691 284.865 410.867 288.751 410.272 292.531C409.939 295.127 409.396 297.601 409.238 300.227C409.081 302.853 408.765 305.388 408.538 307.923C408.31 312.841 408.03 317.896 407.942 322.693C407.942 326.033 407.837 329.205 407.819 332.408C408.853 328.628 411.06 321.266 411.323 320.674C415.457 311.354 429.768 295.445 442.642 296.053C451.926 296.493 457.759 304.113 456.375 311.748C454.991 319.384 446.426 325.85 438.859 329.372C430.503 333.243 410.324 334.457 407.802 334.594C407.644 339.77 407.679 344.932 407.889 349.789Z" fill="#D9D9D9"/>
<path d="M245.546 149.039C245.37 149.176 238.539 136.895 238.259 136.106C234.493 126.679 233.617 106.52 243.934 99.7956C251.361 94.9532 261.451 97.5186 266.11 104.137C270.769 110.755 268.965 120.486 265.777 127.423C262.029 135.544 245.563 149.024 245.546 149.039Z" fill="#D9D9D9"/>
</g>
<g opacity="0.15">
<path d="M129.255 387.681C127.819 392.022 120.181 399.688 120.181 399.703C120.181 399.719 115.89 393.798 115.662 393.404C113.157 388.728 111.493 378.436 116.363 374.505C117.197 373.876 118.175 373.406 119.233 373.125C120.291 372.844 121.404 372.759 122.503 372.874C123.601 372.99 124.658 373.305 125.607 373.798C126.556 374.29 127.375 374.95 128.011 375.734C130.831 378.983 130.464 383.977 129.255 387.681Z" fill="#D9D9D9"/>
<path d="M196.518 502.194L197.026 502.71L195.589 506.596L193.487 504.379C191.455 502.239 189.336 499.917 187.181 497.503C184.237 498.9 181.202 500.147 178.09 501.237C178.773 505.548 176.549 513.761 176.251 514.808C179.264 515.628 182.189 516.402 185.009 517.085C186.936 517.571 188.775 518.011 190.562 518.421L187.742 521.457L183.888 520.44C180.823 519.62 177.582 518.694 174.254 517.707C173.658 518.694 168.736 526.694 164.883 529.29C161.379 531.642 156.124 533.843 151.605 532.735C150.53 532.515 149.52 532.101 148.641 531.52C147.762 530.94 147.034 530.206 146.504 529.365C145.973 528.525 145.653 527.598 145.563 526.643C145.473 525.689 145.616 524.728 145.982 523.825C148.347 518.436 159.995 515.946 165.934 516.235C166.284 516.235 170.068 516.797 172.432 517.176C171.083 516.766 169.752 516.387 168.368 515.946C165.618 515.112 162.886 514.201 159.96 513.229L155.721 511.711C154.285 511.226 152.849 510.558 151.412 509.966C148.084 508.554 144.791 506.93 141.516 505.336C140.657 507.431 137.504 514.808 134.509 517.616C131.514 520.424 126.661 523.218 122.002 522.762C120.9 522.687 119.829 522.412 118.858 521.954C117.887 521.497 117.038 520.868 116.366 520.108C115.694 519.348 115.213 518.474 114.956 517.542C114.699 516.611 114.67 515.643 114.873 514.702C116.274 509.07 127.362 505.078 133.283 504.577C133.651 504.577 137.942 504.577 140.289 504.653C138.327 503.651 136.366 502.664 134.421 501.617C128.816 498.581 123.246 495.256 117.675 492.008C115.924 491.006 114.172 490.035 112.543 488.972C112.245 489.716 108.707 498.566 105.274 501.708C102.226 504.501 97.4263 507.309 92.7669 506.854C91.6652 506.778 90.5941 506.503 89.6232 506.046C88.6522 505.589 87.803 504.96 87.1307 504.2C86.4585 503.439 85.9781 502.565 85.7209 501.634C85.4637 500.703 85.4353 499.735 85.6377 498.793C87.039 493.162 98.127 489.169 104.048 488.668C104.485 488.668 110.669 488.668 112.228 488.79C108.462 486.634 104.678 484.509 100.86 482.551C95.7089 479.871 90.3606 477.488 84.8494 475.416C84.7268 475.765 81.0833 485.025 77.5625 488.228C74.4971 491.021 69.7151 493.845 65.0382 493.389C63.9362 493.312 62.8653 493.035 61.895 492.576C60.9247 492.117 60.0767 491.486 59.406 490.725C58.7353 489.963 58.257 489.088 58.0021 488.155C57.7472 487.223 57.7214 486.255 57.9264 485.314C59.3278 479.682 70.4158 475.69 76.3188 475.189C76.7918 475.189 83.4306 475.189 84.6392 475.325C84.3239 475.219 83.9911 475.067 83.6758 474.946C78.0955 472.978 72.3205 471.454 66.422 470.392C63.1639 469.769 60.0284 469.329 56.963 468.965C56.4901 470.741 54.2129 478.877 51.4103 482.065C48.6076 485.253 44.3161 488.395 39.6216 488.38C38.5177 488.41 37.4188 488.239 36.3963 487.877C35.3739 487.515 34.4509 486.97 33.6875 486.279C32.9241 485.587 32.3373 484.764 31.9654 483.863C31.5935 482.961 31.4448 482.002 31.529 481.048C32.2121 475.31 42.7221 470.286 48.5376 469.223C48.8529 469.223 52.146 468.889 54.5457 468.707C53.1444 468.57 51.7256 468.388 50.3943 468.267C45.3846 467.826 40.7602 467.675 36.6788 467.584C34.3491 467.584 32.2472 467.584 30.2853 467.584C28.7614 469.102 22.543 475.249 18.4441 476.934C14.3452 478.619 8.79246 479.712 4.62351 477.83C3.62567 477.417 2.73952 476.826 2.02287 476.097C1.30622 475.367 0.775189 474.514 0.464435 473.595C0.153682 472.675 0.0701847 471.709 0.219398 470.76C0.368612 469.81 0.747184 468.899 1.3304 468.084C4.99136 463.272 16.9902 463.014 22.7181 464.396C23.2086 464.502 30.7057 467.143 30.6356 467.219L30.5305 467.31C32.4223 467.31 34.4542 467.219 36.6788 467.219C40.7777 467.219 45.4371 467.295 50.4469 467.659C55.8779 467.997 61.2819 468.605 66.6322 469.481C72.6031 470.445 78.4646 471.862 84.1488 473.716L84.359 473.792C82.835 472.745 78.6836 469.678 78.3858 469.42C74.322 465.656 69.0319 456.32 72.255 451.205C72.8208 450.381 73.5799 449.669 74.4832 449.116C75.3865 448.562 76.4139 448.179 77.4988 447.992C78.5837 447.805 79.7019 447.817 80.7811 448.027C81.8602 448.238 82.8763 448.643 83.7634 449.216C87.617 451.538 89.0183 456.396 89.2461 460.237C89.4387 464.578 85.3399 473.276 85.0071 473.898C90.7622 475.913 96.3514 478.266 101.735 480.942C104.888 482.46 108.006 484.114 111.107 485.784C109.828 484.843 108.689 483.978 108.549 483.841C104.485 480.092 99.178 470.756 102.419 465.716C102.981 464.891 103.737 464.178 104.639 463.623C105.54 463.069 106.567 462.685 107.651 462.497C108.736 462.31 109.853 462.322 110.932 462.534C112.01 462.746 113.025 463.153 113.909 463.728C117.763 466.05 119.164 470.908 119.392 474.748C119.62 478.589 116.257 486.133 115.346 488.107L118.849 490.05C124.507 493.192 130.147 496.365 135.788 499.325C137.767 500.357 139.764 501.328 141.761 502.361C140.622 501.51 139.676 500.843 139.536 500.676C135.472 496.911 130.182 487.575 133.405 482.536C133.969 481.712 134.727 481.001 135.629 480.448C136.53 479.894 137.556 479.512 138.64 479.324C139.723 479.137 140.84 479.149 141.918 479.359C142.996 479.57 144.011 479.975 144.896 480.547C148.75 482.87 150.151 487.727 150.396 491.568C150.642 495.408 147.559 502.194 146.49 504.577C148.575 505.518 150.659 506.459 152.709 507.294C154.145 507.825 155.459 508.432 156.93 508.903L161.204 510.421C163.954 511.271 166.792 512.152 169.507 512.926C171.399 513.472 173.203 513.958 175.007 514.444C173.028 513.427 169.174 511.408 168.876 511.15C164.888 508.221 161.835 504.452 160.013 500.205C159.546 499.901 159.117 499.555 158.734 499.173C157.974 498.477 157.393 497.65 157.027 496.747C156.662 495.843 156.521 494.882 156.613 493.928C156.706 492.973 157.03 492.046 157.565 491.208C158.099 490.37 158.832 489.639 159.715 489.063C165.11 485.708 176.426 489.2 181.191 492.266C181.471 492.448 184.273 494.71 186.025 496.152C185.149 495.165 184.273 494.224 183.398 493.192C181.646 491.173 179.894 489.109 178.143 486.907L175.603 483.583C174.727 482.505 173.956 481.245 173.115 480.077C171.241 477.299 169.489 474.414 167.86 471.485C165.829 472.821 158.489 477.466 154.145 478.331C149.801 479.196 144.038 479.257 140.429 476.646C139.558 476.057 138.84 475.316 138.321 474.471C137.802 473.625 137.494 472.695 137.418 471.739C137.342 470.784 137.5 469.826 137.879 468.927C138.259 468.027 138.854 467.208 139.624 466.521C144.388 462.483 156.159 464.457 161.414 466.87C161.747 467.022 165.303 469.117 167.212 470.286C166.231 468.525 165.215 466.749 164.287 464.927C161.572 459.675 159.032 454.301 156.422 448.897C155.634 447.258 154.828 445.618 154.022 443.979C153.304 444.465 144.721 450.157 139.869 451.129C135.542 451.994 129.744 452.055 126.153 449.444C125.283 448.853 124.565 448.111 124.046 447.265C123.527 446.419 123.218 445.488 123.141 444.532C123.063 443.576 123.218 442.617 123.595 441.717C123.972 440.816 124.563 439.994 125.33 439.304C130.095 435.281 141.883 437.254 147.138 439.653C147.541 439.835 152.639 442.856 153.882 443.675C152.131 440.078 150.379 436.495 148.364 433.049C145.789 428.361 142.863 423.822 139.606 419.464C139.256 419.691 130.34 425.657 125.348 426.659C121.021 427.524 115.241 427.585 111.632 424.974C110.76 424.384 110.042 423.641 109.523 422.794C109.004 421.948 108.696 421.016 108.62 420.059C108.544 419.103 108.701 418.143 109.081 417.243C109.462 416.343 110.056 415.522 110.826 414.834C115.591 410.811 127.38 412.784 132.635 415.183C133.037 415.38 138.52 418.629 139.466 419.281C139.273 419.023 139.116 418.75 138.923 418.492C135.496 414.203 131.639 410.185 127.397 406.485C125.085 404.405 122.738 402.538 120.391 400.777C118.867 402.037 111.79 407.73 107.428 409.05C103.067 410.371 97.4964 410.932 93.5727 408.686C92.6333 408.181 91.8267 407.51 91.2052 406.718C90.5836 405.925 90.1609 405.029 89.9645 404.086C89.768 403.143 89.8021 402.175 90.0646 401.244C90.327 400.313 90.812 399.44 91.4882 398.682C95.7097 394.235 107.673 395.07 113.209 396.967C113.507 397.058 116.432 398.485 118.464 399.411C117.395 398.622 116.327 397.787 115.276 397.058C111.387 394.295 107.638 391.958 104.293 389.924C102.383 388.77 100.614 387.768 99.0378 386.888C96.7782 387.434 87.7046 389.59 83.2729 389.028C78.8412 388.466 73.4461 386.736 71.1865 383.169C70.6162 382.345 70.2536 381.427 70.1225 380.473C69.9913 379.52 70.0946 378.553 70.4255 377.637C70.7565 376.721 71.3076 375.876 72.0426 375.157C72.7775 374.439 73.6797 373.863 74.6898 373.469C80.8031 371.207 90.9802 376.717 94.8864 380.603C95.2192 380.937 99.791 386.675 99.6684 386.675H99.5458C101.157 387.54 102.874 388.482 104.801 389.544C108.199 391.517 112.018 393.779 115.994 396.481C120.282 399.362 124.376 402.454 128.255 405.741C132.643 409.409 136.647 413.407 140.219 417.688L140.342 417.854C139.729 416.245 138.222 411.783 138.152 411.342C137.154 406.257 138.678 395.95 144.581 393.294C145.575 392.872 146.66 392.637 147.766 392.604C148.872 392.571 149.973 392.741 150.998 393.102C152.023 393.463 152.948 394.007 153.714 394.7C154.48 395.392 155.068 396.216 155.441 397.119C157.193 400.899 155.301 405.65 153.006 408.944C150.396 412.648 141.445 417.946 140.745 418.371C144.254 422.809 147.419 427.444 150.221 432.245C151.868 435.038 153.427 437.892 154.951 440.761C154.478 439.364 154.075 438.104 154.04 437.922C153.041 432.837 154.565 422.53 160.468 419.873C161.462 419.452 162.548 419.217 163.653 419.184C164.759 419.151 165.86 419.321 166.885 419.682C167.91 420.043 168.836 420.587 169.602 421.279C170.367 421.972 170.956 422.796 171.329 423.699C173.08 427.478 171.189 432.23 168.876 435.524C166.564 438.818 159.015 443.508 157 444.723C157.561 445.831 158.156 446.924 158.752 448.047C161.467 453.375 164.147 458.673 166.967 463.864C167.966 465.686 169.017 467.447 170.068 469.208C169.647 467.963 169.314 466.9 169.279 466.733C168.281 461.663 169.805 451.341 175.708 448.685C176.703 448.266 177.789 448.034 178.895 448.003C180.001 447.972 181.102 448.144 182.126 448.506C183.151 448.868 184.076 449.413 184.841 450.106C185.606 450.798 186.195 451.623 186.568 452.525C188.32 456.305 186.428 461.041 184.116 464.335C181.804 467.629 174.99 471.925 172.607 473.322C173.728 475.098 174.867 476.874 176.111 478.559C176.952 479.682 177.687 480.82 178.598 481.913C179.509 483.006 180.35 484.099 181.226 485.192C182.977 487.211 184.729 489.306 186.568 491.264C187.794 492.615 188.985 493.89 190.177 495.165C189.161 493.374 187.269 489.807 187.146 489.488C185.289 484.615 184.992 474.217 190.352 470.802C191.263 470.26 192.296 469.89 193.382 469.716C194.469 469.542 195.586 469.567 196.66 469.79C197.735 470.013 198.744 470.429 199.621 471.012C200.499 471.594 201.226 472.329 201.755 473.17C204.137 476.676 203.104 481.625 201.405 485.177C199.53 489.078 191.946 495.287 191 496.046C192.664 498.247 194.626 500.296 196.518 502.194Z" fill="#D9D9D9"/>
<path d="M56.0703 468.088C56.0703 468.195 48.7309 465.235 48.293 465.052C43.2307 462.366 35.2782 454.563 36.8546 448.962C37.1438 448.033 37.6565 447.168 38.359 446.424C39.0615 445.679 39.9379 445.072 40.9306 444.641C41.9233 444.211 43.0099 443.968 44.1188 443.928C45.2277 443.888 46.3339 444.051 47.3646 444.408C51.7963 445.759 54.6865 450.115 56.0178 453.774C57.5592 458.039 56.0703 468.088 56.0703 468.088Z" fill="#D9D9D9"/>
</g>
<g opacity="0.15">
<path d="M556.62 387.68C558.039 392.021 565.676 399.687 565.694 399.702C565.711 399.718 569.986 393.798 570.213 393.403C572.718 388.727 574.382 378.436 569.495 374.504C568.662 373.875 567.686 373.405 566.629 373.124C565.573 372.844 564.46 372.759 563.364 372.874C562.267 372.99 561.211 373.305 560.263 373.797C559.316 374.29 558.498 374.95 557.864 375.734C555.026 378.982 555.394 383.976 556.62 387.68Z" fill="#D9D9D9"/>
<path d="M489.358 502.194L488.85 502.71L490.287 506.596L492.389 504.379C494.421 502.239 496.54 499.917 498.695 497.503C501.637 498.903 504.672 500.15 507.786 501.237C507.103 505.548 509.327 513.761 509.625 514.808C506.612 515.628 503.669 516.402 500.867 517.085C498.957 517.571 497.118 518.011 495.331 518.421L498.152 521.457L502.005 520.44C505.053 519.62 508.311 518.694 511.639 517.707C512.235 518.694 517.14 526.694 521.011 529.29C524.514 531.642 529.769 533.843 534.288 532.735C535.364 532.515 536.374 532.101 537.252 531.52C538.131 530.94 538.86 530.206 539.39 529.365C539.92 528.525 540.24 527.598 540.33 526.643C540.42 525.689 540.277 524.728 539.911 523.825C537.529 518.436 525.898 515.946 519.942 516.235C519.592 516.235 515.826 516.797 513.444 517.176C514.81 516.766 516.124 516.387 517.525 515.946C520.275 515.112 523.008 514.201 525.933 513.229L530.172 511.711C531.591 511.226 533.027 510.558 534.481 509.966C537.809 508.554 541.102 506.93 544.36 505.336C545.219 507.431 548.389 514.808 551.454 517.616C554.52 520.424 559.302 523.218 563.961 522.762C565.063 522.687 566.134 522.412 567.105 521.954C568.076 521.497 568.925 520.868 569.598 520.108C570.27 519.348 570.75 518.474 571.007 517.542C571.265 516.611 571.293 515.643 571.091 514.702C569.672 509.07 558.601 505.078 552.681 504.577C552.313 504.577 548.021 504.577 545.674 504.653C547.618 503.651 549.58 502.664 551.525 501.617C557.147 498.581 562.718 495.256 568.288 492.008C570.04 491.006 571.704 490.035 573.42 488.972C573.718 489.716 577.239 498.566 580.69 501.708C583.738 504.501 588.537 507.309 593.197 506.854C594.298 506.778 595.369 506.503 596.34 506.046C597.311 505.589 598.16 504.96 598.833 504.2C599.505 503.439 599.985 502.565 600.242 501.634C600.5 500.703 600.528 499.735 600.326 498.793C598.907 493.162 587.836 489.169 581.916 488.668C581.478 488.668 575.295 488.668 573.736 488.79C577.502 486.634 581.285 484.509 585.104 482.551C590.251 479.875 595.593 477.491 601.096 475.416C601.237 475.765 604.88 485.025 608.401 488.228C611.466 491.021 616.248 493.845 620.908 493.389C622.011 493.314 623.084 493.039 624.056 492.58C625.029 492.122 625.879 491.492 626.551 490.73C627.224 489.968 627.704 489.092 627.96 488.159C628.216 487.226 628.242 486.256 628.037 485.314C626.636 479.682 615.548 475.69 609.627 475.189C609.172 475.189 602.533 475.189 601.324 475.325C601.639 475.219 601.955 475.067 602.288 474.946C607.868 472.978 613.643 471.454 619.541 470.392C622.782 469.769 625.935 469.329 629 468.965C629.473 470.741 631.75 478.877 634.553 482.065C637.356 485.253 641.56 488.395 646.342 488.38C647.445 488.408 648.543 488.235 649.564 487.872C650.585 487.509 651.507 486.965 652.27 486.274C653.033 485.582 653.619 484.76 653.992 483.86C654.365 482.96 654.516 482.002 654.434 481.048C653.751 475.31 643.241 470.286 637.426 469.223C637.111 469.223 633.817 468.889 631.418 468.707C632.819 468.57 634.238 468.388 635.569 468.267C640.579 467.826 645.186 467.675 649.285 467.584C651.614 467.584 653.716 467.584 655.678 467.584C657.202 469.102 663.403 475.249 667.519 476.934C671.636 478.619 677.171 479.712 681.34 477.83C682.336 477.416 683.221 476.824 683.936 476.094C684.65 475.363 685.18 474.511 685.489 473.591C685.798 472.672 685.88 471.706 685.729 470.757C685.579 469.808 685.199 468.898 684.615 468.084C680.972 463.272 668.973 463.014 663.245 464.396C662.737 464.502 655.258 467.143 655.328 467.219L655.415 467.31C653.524 467.31 651.492 467.219 649.285 467.219C645.186 467.219 640.526 467.295 635.517 467.659C630.085 467.996 624.681 468.604 619.331 469.481C613.331 470.443 607.441 471.86 601.727 473.716L601.534 473.792C603.058 472.745 607.21 469.678 607.508 469.42C611.554 465.656 616.861 456.32 613.621 451.205C613.059 450.379 612.302 449.666 611.401 449.111C610.499 448.557 609.472 448.173 608.388 447.985C607.304 447.798 606.186 447.81 605.108 448.022C604.029 448.234 603.015 448.641 602.13 449.216C598.276 451.538 596.875 456.396 596.647 460.237C596.455 464.578 600.553 473.276 600.886 473.898C595.127 475.915 589.532 478.269 584.14 480.942C581.005 482.46 577.887 484.114 574.769 485.784C576.065 484.843 577.204 483.978 577.344 483.841C581.408 480.092 586.698 470.756 583.475 465.716C582.913 464.891 582.156 464.178 581.254 463.623C580.353 463.069 579.326 462.685 578.242 462.497C577.158 462.31 576.04 462.322 574.962 462.534C573.883 462.746 572.869 463.153 571.984 463.728C568.13 466.05 566.729 470.908 566.501 474.748C566.274 478.589 569.637 486.133 570.548 488.107L567.044 490.05C561.386 493.192 555.764 496.365 550.123 499.325C548.144 500.357 546.147 501.328 544.15 502.361C545.289 501.51 546.235 500.843 546.375 500.676C550.439 496.911 555.729 487.575 552.506 482.536C551.94 481.712 551.181 481 550.277 480.447C549.374 479.893 548.347 479.511 547.262 479.323C546.177 479.136 545.059 479.148 543.979 479.359C542.9 479.569 541.884 479.974 540.997 480.547C537.143 482.87 535.742 487.727 535.514 491.568C535.287 495.408 538.352 502.194 539.421 504.577C537.336 505.518 535.252 506.459 533.185 507.294C531.766 507.825 530.435 508.432 528.981 508.903L524.707 510.421C521.939 511.271 519.119 512.152 516.404 512.926C514.512 513.472 512.708 513.958 510.904 514.444C512.883 513.427 516.737 511.408 517.034 511.15C521.023 508.221 524.075 504.452 525.898 500.205C526.361 499.897 526.789 499.551 527.177 499.173C527.934 498.476 528.513 497.649 528.877 496.745C529.241 495.842 529.382 494.882 529.289 493.928C529.196 492.974 528.873 492.048 528.34 491.21C527.807 490.372 527.077 489.64 526.196 489.063C520.783 485.708 509.485 489.2 504.72 492.266C504.423 492.448 501.637 494.71 499.886 496.152C500.762 495.165 501.637 494.224 502.513 493.192C504.265 491.173 506.017 489.109 507.768 486.907L510.308 483.583C511.184 482.505 511.955 481.245 512.795 480.077C514.67 477.299 516.404 474.414 518.05 471.485C520.1 472.821 527.439 477.466 531.783 478.331C536.128 479.196 541.89 479.257 545.499 476.646C546.37 476.057 547.089 475.316 547.608 474.471C548.126 473.625 548.434 472.695 548.51 471.739C548.586 470.784 548.429 469.826 548.049 468.927C547.669 468.027 547.075 467.208 546.305 466.521C541.54 462.483 529.751 464.457 524.497 466.87C524.181 467.022 520.625 469.117 518.699 470.286C519.697 468.525 520.713 466.749 521.641 464.927C524.356 459.675 526.896 454.301 529.489 448.897C530.277 447.258 531.083 445.618 531.889 443.979C532.624 444.465 541.19 450.157 546.059 451.129C550.386 451.994 556.166 452.055 559.775 449.444C560.647 448.854 561.366 448.111 561.885 447.264C562.403 446.418 562.711 445.486 562.787 444.529C562.863 443.573 562.706 442.613 562.326 441.713C561.946 440.813 561.351 439.992 560.581 439.304C555.816 435.281 544.045 437.254 538.79 439.653C538.387 439.835 533.29 442.856 532.046 443.675C533.798 440.078 535.549 436.495 537.546 433.049C540.129 428.364 543.054 423.826 546.305 419.464C546.637 419.691 555.571 425.657 560.546 426.659C564.872 427.524 570.67 427.585 574.261 424.974C575.133 424.384 575.852 423.641 576.371 422.794C576.89 421.948 577.197 421.016 577.273 420.059C577.349 419.103 577.192 418.143 576.812 417.243C576.432 416.343 575.837 415.522 575.067 414.834C570.32 410.811 558.531 412.784 553.276 415.183C552.856 415.38 547.373 418.629 546.445 419.281C546.62 419.023 546.795 418.75 546.988 418.492C550.414 414.203 554.271 410.185 558.514 406.485C560.826 404.405 563.173 402.538 565.52 400.777C567.044 402.037 574.121 407.73 578.483 409.05C582.844 410.371 588.414 410.932 592.338 408.686C593.278 408.181 594.084 407.51 594.706 406.718C595.327 405.925 595.75 405.029 595.946 404.086C596.143 403.143 596.109 402.175 595.846 401.244C595.584 400.313 595.099 399.44 594.423 398.682C590.201 394.235 578.237 395.07 572.702 396.967C572.404 397.058 569.479 398.485 567.447 399.411C568.498 398.622 569.584 397.787 570.618 397.058C574.506 394.295 578.272 391.958 581.618 389.924C583.527 388.77 585.297 387.768 586.873 386.888C589.115 387.434 598.206 389.59 602.638 389.028C607.07 388.466 612.447 386.736 614.724 383.169C615.289 382.344 615.647 381.426 615.775 380.474C615.904 379.522 615.799 378.557 615.469 377.642C615.138 376.727 614.589 375.882 613.857 375.163C613.126 374.444 612.227 373.867 611.221 373.469C605.09 371.207 594.931 376.717 591.024 380.603C590.692 380.937 586.12 386.675 586.225 386.675H586.365C584.754 387.54 583.037 388.482 581.11 389.544C577.712 391.517 573.876 393.779 569.917 396.481C565.629 399.362 561.535 402.454 557.655 405.741C553.268 409.409 549.264 413.407 545.692 417.688L545.569 417.854C546.165 416.245 547.688 411.783 547.759 411.342C548.739 406.257 547.216 395.95 541.312 393.294C540.32 392.872 539.236 392.638 538.131 392.605C537.027 392.572 535.927 392.742 534.903 393.103C533.879 393.464 532.955 394.008 532.191 394.7C531.427 395.393 530.841 396.217 530.47 397.119C528.718 400.899 530.61 405.65 532.904 408.944C535.497 412.648 544.465 417.946 545.166 418.371C541.651 422.805 538.485 427.441 535.69 432.245C534.043 435.038 532.484 437.892 530.96 440.761C531.433 439.364 531.836 438.104 531.871 437.922C532.869 432.837 531.345 422.53 525.442 419.873C524.448 419.452 523.363 419.217 522.257 419.184C521.152 419.151 520.05 419.321 519.025 419.682C518 420.043 517.075 420.587 516.309 421.279C515.544 421.972 514.955 422.796 514.582 423.699C512.83 427.478 514.722 432.23 517.017 435.524C519.312 438.818 526.896 443.508 528.911 444.723C528.333 445.831 527.755 446.924 527.159 448.047C524.444 453.375 521.746 458.673 518.944 463.864C517.945 465.686 516.894 467.447 515.843 469.208C516.264 467.963 516.597 466.9 516.632 466.733C517.63 461.663 516.106 451.341 510.185 448.685C509.191 448.269 508.106 448.039 507.003 448.009C505.899 447.98 504.8 448.152 503.778 448.514C502.756 448.876 501.832 449.42 501.068 450.111C500.304 450.802 499.716 451.625 499.343 452.525C497.591 456.305 499.483 461.041 501.778 464.335C504.072 467.629 510.921 471.925 513.303 473.322C512.165 475.098 511.044 476.874 509.8 478.559C508.942 479.682 508.224 480.82 507.313 481.913L504.668 485.192C502.916 487.211 501.164 489.306 499.413 491.264C498.187 492.615 496.996 493.89 495.804 495.165C496.803 493.374 498.712 489.807 498.817 489.488C500.692 484.615 500.989 474.217 495.629 470.802C494.718 470.26 493.685 469.89 492.599 469.716C491.512 469.542 490.395 469.567 489.32 469.79C488.246 470.013 487.237 470.429 486.359 471.012C485.482 471.594 484.755 472.329 484.226 473.17C481.844 476.676 482.877 481.625 484.576 485.177C486.433 489.078 494.035 495.287 494.981 496.046C493.212 498.247 491.25 500.296 489.358 502.194Z" fill="#D9D9D9"/>
<path d="M629.806 468.088C629.806 468.195 637.145 465.235 637.583 465.052C642.645 462.366 650.598 454.563 649.021 448.962C648.732 448.033 648.219 447.168 647.517 446.424C646.814 445.679 645.938 445.072 644.945 444.641C643.953 444.211 642.866 443.968 641.757 443.928C640.648 443.888 639.542 444.051 638.511 444.408C634.08 445.759 631.189 450.115 629.858 453.774C628.317 458.039 629.806 468.088 629.806 468.088Z" fill="#D9D9D9"/>
</g>
<path d="M478.483 414.622L362.436 372.467L460.336 168.633L576.383 210.787L478.483 414.622Z" fill="#D9D9D9" stroke="#727272" stroke-width="1.50459" stroke-linecap="round" stroke-linejoin="round"/>
<path d="M553.085 231.598C551.094 230.883 549.301 229.808 547.829 228.443C546.356 227.079 545.237 225.458 544.547 223.688C543.857 221.918 543.612 220.041 543.827 218.182C544.043 216.324 544.715 214.527 545.799 212.911L479.236 188.715C479.065 189.231 478.86 189.737 478.622 190.233C477.856 191.836 476.731 193.292 475.312 194.517C473.894 195.741 472.209 196.711 470.356 197.368C468.503 198.026 466.518 198.359 464.515 198.348C462.513 198.338 460.532 197.984 458.689 197.307C458.391 197.2 458.111 197.064 457.83 196.942L383.98 351.078C384.278 351.169 384.576 351.245 384.856 351.351C386.858 352.055 388.661 353.126 390.142 354.489C391.622 355.852 392.746 357.476 393.436 359.25C394.126 361.024 394.367 362.906 394.14 364.768C393.914 366.63 393.227 368.427 392.126 370.038L458.776 394.234C458.937 393.718 459.136 393.211 459.372 392.716C460.143 391.123 461.27 389.676 462.687 388.46C464.103 387.243 465.783 386.28 467.629 385.626C469.475 384.972 471.452 384.64 473.446 384.648C475.441 384.656 477.414 385.004 479.253 385.673C479.831 385.886 480.392 386.144 481.005 386.402L554.925 232.144C554.296 232.004 553.681 231.821 553.085 231.598ZM458.689 311.656C454.152 310.008 450.282 307.23 447.567 303.676C444.852 300.121 443.414 295.949 443.436 291.686C443.457 287.423 444.936 283.262 447.686 279.727C450.436 276.193 454.333 273.445 458.886 271.83C463.438 270.215 468.441 269.806 473.261 270.655C478.081 271.503 482.503 273.571 485.968 276.598C489.432 279.624 491.783 283.472 492.723 287.657C493.664 291.841 493.152 296.172 491.252 300.104C489.992 302.718 488.149 305.09 485.83 307.085C483.51 309.08 480.759 310.66 477.735 311.733C474.71 312.806 471.471 313.351 468.203 313.338C464.935 313.325 461.702 312.753 458.689 311.656Z" fill="#D9D9D9" stroke="#727272" stroke-width="1.50459" stroke-linecap="round" stroke-linejoin="round"/>
<path d="M476.958 415.142L366.849 362.346L489.64 168.895L599.731 221.675L476.958 415.142Z" fill="#D9D9D9" stroke="#727272" stroke-width="1.50459" stroke-linecap="round" stroke-linejoin="round"/>
<path d="M573.983 240.174C572.237 239.339 570.698 238.214 569.454 236.863C568.21 235.512 567.286 233.961 566.735 232.3C566.183 230.639 566.015 228.901 566.24 227.183C566.465 225.466 567.078 223.804 568.045 222.292C568.363 221.822 568.707 221.366 569.078 220.926L505.843 190.566C505.614 191.085 505.351 191.592 505.055 192.084C503.103 195.135 499.832 197.389 495.963 198.351C492.094 199.313 487.942 198.904 484.421 197.215C484.142 197.088 483.873 196.946 483.615 196.79L390.952 343.093C391.239 343.197 391.52 343.314 391.793 343.442C395.316 345.132 397.92 347.965 399.034 351.318C400.148 354.671 399.679 358.27 397.731 361.324C397.421 361.799 397.076 362.255 396.698 362.69L459.915 393.05C460.149 392.531 460.418 392.024 460.721 391.532C461.684 390.019 462.983 388.685 464.542 387.607C466.101 386.53 467.89 385.729 469.807 385.251C471.723 384.773 473.73 384.627 475.711 384.822C477.693 385.017 479.611 385.548 481.355 386.386C481.9 386.658 482.427 386.957 482.932 387.282L575.77 240.857C575.156 240.667 574.559 240.438 573.983 240.174ZM470.18 310.927C465.872 308.862 462.367 305.736 460.109 301.944C457.852 298.152 456.942 293.866 457.496 289.626C458.05 285.387 460.042 281.385 463.221 278.126C466.399 274.868 470.621 272.5 475.353 271.321C480.085 270.143 485.114 270.207 489.804 271.505C494.494 272.804 498.634 275.278 501.701 278.616C504.768 281.954 506.624 286.005 507.034 290.256C507.444 294.508 506.389 298.77 504.004 302.502C500.807 307.506 495.448 311.204 489.105 312.784C482.762 314.364 475.954 313.696 470.18 310.927Z" fill="#D9D9D9" stroke="#727272" stroke-width="1.50459" stroke-linecap="round" stroke-linejoin="round"/>
<path d="M474.927 415.58L374.312 350.094L526.811 173.234L627.426 238.72L474.927 415.58Z" fill="#D9D9D9" stroke="#727272" stroke-width="1.50459" stroke-linecap="round" stroke-linejoin="round"/>
<path d="M598.96 253.944C597.356 252.907 596.003 251.606 594.982 250.115C593.96 248.623 593.289 246.971 593.007 245.254C592.725 243.537 592.839 241.788 593.34 240.109C593.842 238.43 594.722 236.853 595.93 235.47C596.312 235.036 596.727 234.625 597.174 234.241L539.369 196.625C539.053 197.101 538.708 197.562 538.336 198.006C535.915 200.792 532.319 202.631 528.335 203.121C524.351 203.61 520.306 202.71 517.088 200.617C516.825 200.45 516.597 200.268 516.352 200.101L401.216 333.866C401.479 334.018 401.741 334.154 401.987 334.321C405.205 336.419 407.331 339.537 407.899 342.992C408.468 346.447 407.431 349.956 405.017 352.749C404.635 353.183 404.22 353.594 403.773 353.979L461.578 391.579C461.877 391.103 462.217 390.646 462.594 390.213C463.792 388.832 465.293 387.668 467.01 386.79C468.728 385.911 470.628 385.334 472.602 385.091C474.577 384.849 476.588 384.946 478.519 385.377C480.45 385.807 482.265 386.564 483.859 387.602C484.36 387.927 484.834 388.283 485.278 388.665L600.572 254.84C600.014 254.571 599.475 254.272 598.96 253.944ZM484.857 311.627C480.922 309.065 477.951 305.549 476.322 301.524C474.692 297.498 474.476 293.145 475.701 289.013C476.926 284.881 479.538 281.157 483.205 278.312C486.872 275.466 491.431 273.627 496.304 273.026C501.178 272.426 506.147 273.091 510.585 274.937C515.022 276.784 518.728 279.73 521.234 283.402C523.739 287.073 524.933 291.307 524.662 295.566C524.392 299.825 522.671 303.92 519.715 307.331C517.749 309.594 515.287 311.499 512.47 312.937C509.653 314.375 506.537 315.318 503.299 315.711C500.062 316.104 496.767 315.941 493.602 315.23C490.438 314.518 487.466 313.274 484.857 311.567V311.627Z" fill="#D9D9D9" stroke="#727272" stroke-width="1.50459" stroke-linecap="round" stroke-linejoin="round"/>
<path d="M472.913 415.777L383.298 339.225L561.722 181.613L651.319 258.165L472.913 415.777Z" fill="#D9D9D9" stroke="#727272" stroke-width="1.50459" stroke-linecap="round" stroke-linejoin="round"/>
<path d="M620.77 269.971C617.902 267.522 616.274 264.185 616.244 260.694C616.214 257.204 617.786 253.847 620.612 251.361C621.06 250.977 621.534 250.618 622.031 250.283L570.585 206.262C570.2 206.689 569.791 207.099 569.359 207.491C566.532 209.977 562.681 211.388 558.654 211.414C554.627 211.439 550.752 210.077 547.884 207.628C547.66 207.437 547.449 207.234 547.253 207.021L412.498 326.258C412.726 326.44 412.971 326.607 413.199 326.805C416.067 329.255 417.695 332.592 417.725 336.082C417.754 339.572 416.183 342.929 413.356 345.415C412.901 345.795 412.428 346.159 411.938 346.493L463.384 390.514C463.765 390.075 464.18 389.659 464.627 389.27C466.026 388.039 467.69 387.06 469.525 386.387C471.361 385.714 473.331 385.361 475.324 385.349C477.316 385.336 479.292 385.664 481.139 386.313C482.985 386.962 484.666 387.921 486.085 389.133C486.528 389.521 486.943 389.932 487.329 390.363L622.206 271.034C621.704 270.705 621.224 270.35 620.77 269.971ZM498.82 313.841C495.319 310.847 492.921 307.02 491.93 302.846C490.938 298.671 491.397 294.335 493.249 290.386C495.1 286.437 498.261 283.052 502.332 280.66C506.403 278.267 511.201 276.975 516.119 276.945C521.038 276.915 525.856 278.15 529.965 280.493C534.074 282.836 537.289 286.182 539.204 290.108C541.119 294.034 541.647 298.364 540.723 302.551C539.799 306.737 537.463 310.592 534.01 313.629C531.717 315.646 528.987 317.252 525.976 318.355C522.966 319.457 519.734 320.035 516.466 320.055C513.198 320.074 509.957 319.536 506.929 318.47C503.901 317.403 501.146 315.831 498.82 313.841Z" fill="#D9D9D9" stroke="#727272" stroke-width="1.50459" stroke-linecap="round" stroke-linejoin="round"/>
<path d="M358.966 398.712L197.814 487.453L26.4492 252.895L187.602 164.153C190.42 162.603 193.833 162.085 197.091 162.714C200.349 163.343 203.186 165.068 204.978 167.508L362.908 383.654C363.79 384.867 364.389 386.218 364.668 387.632C364.948 389.045 364.904 390.492 364.538 391.891C364.172 393.289 363.491 394.611 362.535 395.782C361.579 396.952 360.366 397.948 358.966 398.712Z" fill="#D9D9D9" stroke="#727272" stroke-width="1.50459" stroke-linecap="round" stroke-linejoin="round"/>
<path d="M354.431 398.864L193.279 487.606L21.9316 253.047L183.084 164.306C185.902 162.755 189.315 162.238 192.573 162.867C195.832 163.496 198.668 165.22 200.46 167.661L358.372 383.806C359.255 385.019 359.853 386.371 360.133 387.784C360.413 389.197 360.368 390.645 360.002 392.043C359.636 393.441 358.956 394.764 358 395.934C357.044 397.105 355.831 398.1 354.431 398.864Z" fill="#D9D9D9" stroke="#727272" stroke-width="1.50459" stroke-linecap="round" stroke-linejoin="round"/>
<path d="M349.175 401.963L188.023 490.704L16.6582 256.146L177.811 167.405C180.631 165.853 184.047 165.335 187.308 165.964C190.569 166.593 193.409 168.318 195.205 170.759L353.116 386.905C353.999 388.118 354.598 389.469 354.877 390.883C355.157 392.296 355.113 393.743 354.747 395.142C354.381 396.54 353.7 397.862 352.744 399.033C351.788 400.203 350.575 401.199 349.175 401.963Z" fill="#D9D9D9" stroke="#727272" stroke-width="1.50459" stroke-linecap="round" stroke-linejoin="round"/>
<path d="M102.77 285.303L90.3857 268.424L95.2203 265.828C96.1668 265.255 97.2743 264.914 98.4259 264.841C99.3987 264.819 100.351 265.087 101.123 265.6C102.062 266.209 102.854 266.973 103.453 267.847C104.068 268.627 104.464 269.521 104.609 270.458C104.74 271.282 104.569 272.121 104.119 272.856C103.586 273.678 102.813 274.364 101.877 274.845L99.7221 276.013L105.485 283.877L102.77 285.303ZM98.4959 274.253L99.7396 273.569C100.405 273.249 100.999 272.828 101.491 272.325C101.659 272.138 101.781 271.922 101.847 271.692C101.913 271.462 101.923 271.223 101.877 270.989C101.716 270.349 101.406 269.745 100.966 269.213C100.535 268.575 100.011 267.989 99.4068 267.467C99.2119 267.299 98.9739 267.172 98.7122 267.099C98.4505 267.025 98.1723 267.005 97.9004 267.042C97.1075 267.205 96.3582 267.499 95.6933 267.907L94.4146 268.606L98.4959 274.253Z" fill="#D9D9D9"/>
<path d="M112.352 280.021L104.102 260.864L106.729 259.422L123.265 274.01L120.69 275.421L116.678 271.672L112.72 273.858L114.892 278.624L112.352 280.021ZM111.861 271.9L115.102 270.124L107.885 263.414L111.861 271.9Z" fill="#D9D9D9"/>
<path d="M129.973 270.578C129.013 271.154 127.881 271.476 126.715 271.504C125.653 271.493 124.618 271.213 123.737 270.7C122.738 270.112 121.871 269.371 121.179 268.514L123.176 266.632C123.658 267.175 124.191 267.683 124.77 268.15C125.265 268.566 125.865 268.878 126.522 269.06C126.866 269.124 127.221 269.124 127.565 269.061C127.909 268.998 128.234 268.874 128.519 268.696C128.826 268.552 129.094 268.354 129.306 268.113C129.517 267.872 129.667 267.595 129.745 267.3C129.827 266.674 129.633 266.045 129.202 265.539C128.759 264.865 128.077 264.333 127.258 264.021C126.428 263.762 125.572 263.574 124.7 263.459L119.603 262.761C118.682 262.648 117.799 262.369 117.01 261.941C116.192 261.445 115.505 260.804 114.996 260.059C114.574 259.552 114.276 258.975 114.122 258.363C113.969 257.752 113.962 257.12 114.103 256.507C114.498 255.292 115.429 254.261 116.695 253.638C117.377 253.25 118.129 252.963 118.92 252.788C119.593 252.644 120.296 252.644 120.969 252.788C121.675 252.959 122.335 253.248 122.913 253.638C123.617 254.129 124.251 254.689 124.805 255.308L122.896 257.129C122.473 256.632 121.998 256.169 121.477 255.748C121.041 255.387 120.493 255.145 119.901 255.049C119.233 255.012 118.57 255.163 118.011 255.481C117.452 255.799 117.027 256.265 116.8 256.81C116.733 257.106 116.739 257.41 116.817 257.703C116.896 257.996 117.045 258.271 117.256 258.51C117.556 258.955 117.977 259.33 118.482 259.603C119.023 259.863 119.618 260.029 120.233 260.089L125.366 260.787C126.58 260.934 127.762 261.241 128.869 261.698C130.052 262.205 131.043 262.995 131.724 263.975C132.287 264.721 132.624 265.577 132.705 266.465C132.747 267.265 132.528 268.059 132.075 268.757C131.555 269.503 130.834 270.128 129.973 270.578Z" fill="#D9D9D9"/>
<path d="M141.34 264.311C140.38 264.886 139.249 265.208 138.082 265.237C137.025 265.226 135.996 264.947 135.122 264.432C134.115 263.852 133.247 263.11 132.564 262.246L134.631 260.364C135.108 260.911 135.641 261.419 136.225 261.882C136.719 262.3 137.319 262.612 137.977 262.793C138.321 262.857 138.676 262.858 139.02 262.795C139.364 262.732 139.689 262.607 139.974 262.428C140.283 262.29 140.553 262.095 140.765 261.856C140.977 261.618 141.125 261.341 141.2 261.047C141.292 260.419 141.104 259.784 140.674 259.271C140.22 258.6 139.534 258.069 138.713 257.753C137.889 257.494 137.038 257.306 136.173 257.191L131.058 256.493C130.137 256.38 129.254 256.101 128.465 255.673C127.647 255.178 126.96 254.536 126.451 253.791C126.029 253.284 125.731 252.707 125.578 252.096C125.424 251.485 125.417 250.853 125.558 250.239C125.961 249.027 126.899 248.002 128.168 247.385C128.845 246.996 129.59 246.704 130.375 246.52C131.053 246.368 131.764 246.368 132.442 246.52C133.147 246.686 133.807 246.969 134.386 247.355C135.088 247.843 135.717 248.403 136.26 249.025L134.351 250.846C133.928 250.349 133.453 249.887 132.932 249.465C132.5 249.099 131.951 248.855 131.356 248.767C130.69 248.736 130.031 248.891 129.473 249.207C128.915 249.524 128.489 249.986 128.255 250.527C128.192 250.823 128.2 251.126 128.279 251.419C128.357 251.711 128.504 251.987 128.711 252.228C129.017 252.673 129.436 253.052 129.937 253.336C130.487 253.578 131.078 253.742 131.688 253.821L136.821 254.505C137.998 254.666 139.142 254.973 140.219 255.415C141.399 255.926 142.389 256.716 143.074 257.692C143.645 258.435 143.983 259.292 144.055 260.182C144.097 260.982 143.878 261.776 143.425 262.474C142.918 263.227 142.201 263.859 141.34 264.311Z" fill="#D9D9D9"/>
<path d="M147.981 260.39L135.597 243.51L140.431 240.854C141.373 240.271 142.482 239.924 143.637 239.852C144.608 239.838 145.558 240.105 146.334 240.611C147.273 241.226 148.065 241.995 148.664 242.873C149.286 243.65 149.682 244.546 149.82 245.484C149.951 246.303 149.779 247.137 149.33 247.867C148.802 248.692 148.027 249.379 147.088 249.856L144.933 251.04L150.696 258.888L147.981 260.39ZM143.707 249.355L144.951 248.656C145.62 248.342 146.215 247.919 146.702 247.412C146.868 247.224 146.987 247.008 147.05 246.778C147.114 246.548 147.12 246.308 147.07 246.076C146.909 245.439 146.606 244.835 146.177 244.3C145.751 243.664 145.226 243.082 144.618 242.569C144.423 242.401 144.185 242.275 143.923 242.201C143.661 242.127 143.383 242.108 143.111 242.144C142.316 242.294 141.565 242.583 140.904 242.994L139.625 243.708L143.707 249.355Z" fill="#D9D9D9"/>
<path d="M164.637 251.487C163.572 252.136 162.313 252.505 161.011 252.55C159.887 252.537 158.8 252.195 157.928 251.578C156.883 250.832 155.989 249.939 155.283 248.937L150.589 242.546C149.846 241.586 149.312 240.516 149.013 239.389C148.756 238.467 148.874 237.497 149.345 236.641C149.958 235.65 150.881 234.829 152.008 234.273C153.068 233.623 154.32 233.249 155.616 233.195C156.71 233.198 157.771 233.519 158.629 234.106C159.671 234.818 160.555 235.687 161.239 236.671L165.951 243.093C166.685 244.059 167.224 245.127 167.545 246.25C167.804 247.198 167.706 248.193 167.265 249.089C166.68 250.095 165.766 250.929 164.637 251.487ZM163.289 249.635C163.89 249.346 164.364 248.892 164.637 248.345C164.832 247.853 164.832 247.319 164.637 246.827C164.383 246.215 164.042 245.634 163.621 245.096L158.209 237.689C157.813 237.14 157.349 236.631 156.825 236.171C156.422 235.814 155.89 235.589 155.319 235.533C154.631 235.532 153.961 235.724 153.409 236.079C152.811 236.368 152.328 236.807 152.025 237.339C151.811 237.828 151.811 238.368 152.025 238.857C152.27 239.462 152.599 240.038 153.006 240.573L158.436 247.965C158.829 248.52 159.3 249.03 159.838 249.483C160.246 249.855 160.791 250.091 161.379 250.151C162.063 250.161 162.732 249.98 163.289 249.635Z" fill="#D9D9D9"/>
<path d="M172.486 246.905L160.102 230.025L164.025 227.854C165.087 227.226 166.275 226.778 167.529 226.533C168.533 226.36 169.575 226.5 170.471 226.928C171.511 227.489 172.372 228.266 172.976 229.19C173.43 229.783 173.79 230.426 174.045 231.102C174.28 231.671 174.358 232.279 174.272 232.878C174.167 233.438 173.888 233.963 173.467 234.396L182.435 241.334L179.825 242.776L171.47 236.264L169.35 237.417L175.148 245.341L172.486 246.905ZM168.159 235.793L169.193 235.231C169.866 234.901 170.46 234.463 170.944 233.941C171.29 233.53 171.44 233.019 171.365 232.514C171.227 231.838 170.923 231.196 170.471 230.632C169.989 229.842 169.22 229.212 168.282 228.841C167.758 228.768 167.223 228.793 166.712 228.917C166.201 229.04 165.726 229.257 165.322 229.554L164.113 230.207L168.159 235.793Z" fill="#D9D9D9"/>
<path d="M187.181 238.839L176.075 223.659L172.782 225.481L171.416 223.781L180.63 218.695L181.908 220.456L178.703 222.217L189.808 237.397L187.181 238.839Z" fill="#D9D9D9"/>
<path d="M256.941 343.852C264.599 315.399 244.191 286.953 211.358 280.316C178.525 273.679 145.701 291.364 138.042 319.817C130.383 348.27 150.791 376.716 183.624 383.353C216.457 389.99 249.282 372.305 256.941 343.852Z" stroke="#D9D9D9" stroke-width="1.50459" stroke-miterlimit="10"/>
<path d="M230.199 376.507C242.397 369.788 237.625 344.353 219.54 319.695C201.455 295.037 176.906 280.495 164.708 287.214C152.51 293.932 157.283 319.368 175.368 344.025C193.453 368.683 218.002 383.225 230.199 376.507Z" stroke="#D9D9D9" stroke-width="1.50459" stroke-miterlimit="10"/>
<path d="M142.899 308.83L196.938 279.047" stroke="#D9D9D9" stroke-width="1.50459" stroke-miterlimit="10"/>
<path d="M136.804 338.994L231.043 287.094" stroke="#D9D9D9" stroke-width="1.50459" stroke-miterlimit="10"/>
<path d="M164.217 376.364L258.456 324.449" stroke="#D9D9D9" stroke-width="1.50459" stroke-miterlimit="10"/>
<path d="M145.842 360.275L249.435 303.199" stroke="#D9D9D9" stroke-width="1.50459" stroke-miterlimit="10"/>
<path d="M198.83 385.084L252.869 355.316" stroke="#D9D9D9" stroke-width="1.50459" stroke-miterlimit="10"/>
<path d="M518.758 695.929C595.154 629.724 595.154 522.385 518.758 456.18C442.361 389.975 318.499 389.975 242.102 456.18C165.706 522.385 165.706 629.724 242.102 695.929C318.499 762.134 442.361 762.134 518.758 695.929Z" fill="#D9D9D9" stroke="#727272" stroke-width="1.50459" stroke-linecap="round" stroke-linejoin="round"/>
<path d="M202.304 532.152C189.857 570.148 194.008 610.786 213.963 646.296C233.918 681.806 268.276 709.696 310.468 724.632" stroke="#D9D9D9" stroke-width="1.50459" stroke-linecap="round" stroke-linejoin="round"/>
<path d="M227.194 485.988C220.504 494.534 214.779 503.618 210.098 513.115" stroke="#D9D9D9" stroke-width="1.50459" stroke-linecap="round" stroke-linejoin="round"/>
<path d="M353.909 500.762L373.861 504.344L380.657 510.446L389.52 511.63L392.341 518.917L390.274 523.85L384.231 526.249L369.429 524.154L369.026 522.59L376.015 518.355L371.181 510.629L357.938 509.05L350.896 503.813L353.909 500.762Z" fill="#D9D9D9"/>
<path d="M514.639 660.236L498.874 657.929L479.711 655.834L465.697 658.536L451.947 658.703L438.161 664.244L430.104 666.217L425.111 667.173L416.809 673.716L408.541 678.604L394.527 674.278L394.878 662.665L386.47 661.405L377.414 663.151L375.137 659.872L374.243 652.631L370.057 649.322L363.909 651.326L363.103 655.606L355.501 657.474L346.882 651.72L341.75 642.81L345.744 630.499L359.074 628.753L363.418 630.818L368.848 629.77L374.751 624.928L381.04 625.353L392.32 635.979L395.386 634.977L392.163 626.112L388.239 621.922L387.241 614.333L402.392 604.83L400.939 589.863L406.877 583.35L410.38 573.18L414.724 571.525L423.623 563.632L423.272 560.399L416.125 562.19L413.971 559.306L408.979 560.262L401.674 563.298L403.986 557.484L418.84 550.501L421.573 546.281L430.121 553.689L435.113 556.452L441.051 553.659L437.023 549.105L426.005 545.037L412.412 536.536L399.362 531.982L388.081 532.513L381.618 528.825L373.91 528.627L373.402 530.373L375.417 541.94L378.237 545.507L377.379 558.865L366.694 554.312V548.543L356.184 546.448L350.929 542.911L350.666 532.665L361.701 521.887L360.195 512.279L355.308 513.63L351.227 510.715L348.336 505.129L345.061 505.341L344.833 511.929L340.051 513.675L334.323 500.408L330.207 499.148L323.2 498.01L316.754 502.563L327.737 508.286L331.24 514.616L312.2 507.148L298.186 498.723L294.56 488.294L281.966 487.414L274.224 494.26C272.318 495.837 270.318 497.327 268.233 498.723C264.836 500.16 261.323 501.382 257.723 502.381L257.618 509.41L247.283 511.808L249.298 515.952L266.674 515.087L277.394 521.675L280.897 535.428L279.023 548.558L283.245 561.34L275.485 583.032L280.127 612.223L288.43 627.934L297.538 639.379L304.545 638.848L300.656 633.004L295.839 628.981L291.355 620.784L295.226 619.266L305.193 632.184L312.953 643.888L315.563 654.104L326.493 661.481L344.518 668.282L369.496 669.238L378.255 673.792L385.261 679.029L394.527 681.776L405.037 682.217L414.899 679.894C414.899 679.894 415.46 683.917 415.95 685.875C416.441 687.833 411.816 695.742 411.816 695.742L408.856 704.561L414.689 712.5L425.567 714.109L442.838 723.976L449.845 725.115L451.351 731.005L452.84 733.6C486.84 721.883 516.344 702.102 537.971 676.524L537.48 673.625L544.785 652.024L537.988 649.626L514.639 660.236Z" fill="#D9D9D9"/>
<path d="M522.014 496.021L515.112 489.525L506.546 482.102L501.729 470.671L510.19 470.277L509.629 466.269L503.639 467.013L508.123 464.083L512.852 460.288L511.854 456.357L504.847 451.12L501.519 442.892C468.021 420.031 426.824 407.276 384.193 406.566C341.562 405.857 299.83 417.231 265.343 438.961L277.43 443.363L272.91 451.666L264.695 454.884L266.447 465.662L263.136 467.544L259.633 472.736L261.892 479.718L269.81 479.02L268.339 486.306L276.046 484.788L285.47 467.726L285.225 461.169L297.714 457.95L299.676 452.622L312.515 448.918L312.165 441.981L321.571 439.75C321.571 439.75 327.58 435.302 328.928 435.044C331.676 435.023 334.423 435.18 337.144 435.515L345.149 438.93L354.66 437.093L361.667 431.204L372.282 429.989C373.998 430.564 375.848 430.772 377.677 430.596C379.937 430.156 386.032 426.043 386.032 426.043L400.992 430.596L407.333 433.086L408.839 438.976L415.846 438.444L417.212 434.483L423.711 435.697L424.061 438.93L411.256 444.699L421.188 451.848L439.51 456.569L448.269 463.112L458.446 461.973L459.707 457.617L463.123 456.099L449.337 450.512L441.875 451.12L447.358 448.418L440.211 442.786L447.813 440.919L459.006 443.712L463.683 452.698L469.972 456.842L476.978 467.468L488.557 471.825L491.868 484.788L503.814 488.674L504.462 493.077V498.45L508.999 504.993L510.75 508.363L518.755 508.059L520.682 500.682L522.014 496.021Z" fill="#D9D9D9"/>
<path d="M517.758 455.32L518.336 457.582L517.688 464.292L520.455 469.529L525.85 470.151L527.76 477.604L521.821 476.694L525.885 498.158L522.662 507.858L529.108 518.15L536.203 521.732L541.65 542.984L551.757 558.346L561.321 569.7L572.357 570.049L573.968 561.488L575.194 560.213C574.426 553.164 573.156 546.163 571.393 539.25C563.261 507.365 544.63 478.211 517.758 455.32Z" fill="#D9D9D9"/>
<path d="M412.431 473.007L379.605 467.375L366.555 470.305L365.294 478.365L358.55 474.312L349.091 478.198L351.491 491.329L360.967 494.866L364.943 486.274L373.264 490.858L390.027 498.752L395.667 509.62L410.767 520.307L429.089 513.901L427.127 508.102L421.347 502.198L416.407 486.669L419.227 479.124L412.431 473.007Z" fill="#D9D9D9"/>
<path d="M439.126 476.938L431.927 476.68L427.145 482.129L433.223 492.907L439.126 491.768V476.938Z" fill="#D9D9D9"/>
<path d="M483.18 476.287L465.961 472.188L461.582 468.09L458.254 469.957L463.439 477.198L468.781 486.898L476.191 487.945L477.137 486.108L471.549 481.008L484.336 482.662L483.18 476.287Z" fill="#D9D9D9"/>
<path d="M387.172 643.551L385.771 645.463L400.274 646.389L407.123 650.837L415.934 649.972L418.001 645.038L407.176 645.463L387.172 643.551Z" fill="#D9D9D9"/>
<path d="M429.422 643.25L420.506 647.44L422.678 650.324L434.467 648.047L435.92 644.48L431.944 645.648L429.422 643.25Z" fill="#D9D9D9"/>
<path d="M353.909 500.762L373.861 504.344L380.657 510.446L389.52 511.63L392.341 518.917L390.274 523.85L384.231 526.249L369.429 524.154L369.026 522.59L376.015 518.355L371.181 510.629L357.938 509.05L350.896 503.813L353.909 500.762Z" stroke="#D9D9D9" stroke-width="1.50459" stroke-linecap="round" stroke-linejoin="round"/>
<path d="M514.639 660.236L498.874 657.929L479.711 655.834L465.697 658.536L451.947 658.703L438.161 664.244L430.104 666.217L425.111 667.173L416.809 673.716L408.541 678.604L394.527 674.278L394.878 662.665L386.47 661.405L377.414 663.151L375.137 659.872L374.243 652.631L370.057 649.322L363.909 651.326L363.103 655.606L355.501 657.474L346.882 651.72L341.75 642.81L345.744 630.499L359.074 628.753L363.418 630.818L368.848 629.77L374.751 624.928L381.04 625.353L392.32 635.979L395.386 634.977L392.163 626.112L388.239 621.922L387.241 614.333L402.392 604.83L400.939 589.863L406.877 583.35L410.38 573.18L414.724 571.525L423.623 563.632L423.272 560.399L416.125 562.19L413.971 559.306L408.979 560.262L401.674 563.298L403.986 557.484L418.84 550.501L421.573 546.281L430.121 553.689L435.113 556.452L441.051 553.659L437.023 549.105L426.005 545.037L412.412 536.536L399.362 531.982L388.081 532.513L381.618 528.825L373.91 528.627L373.402 530.373L375.417 541.94L378.237 545.507L377.379 558.865L366.694 554.312V548.543L356.184 546.448L350.929 542.911L350.666 532.665L361.701 521.887L360.195 512.279L355.308 513.63L351.227 510.715L348.336 505.129L345.061 505.341L344.833 511.929L340.051 513.675L334.323 500.408L330.207 499.148L323.2 498.01L316.754 502.563L327.737 508.286L331.24 514.616L312.2 507.148L298.186 498.723L294.56 488.294L281.966 487.414L274.224 494.26C272.318 495.837 270.318 497.327 268.233 498.723C264.836 500.16 261.323 501.382 257.723 502.381L257.618 509.41L247.283 511.808L249.298 515.952L266.674 515.087L277.394 521.675L280.898 535.428L279.023 548.558L283.245 561.34L275.485 583.032L280.127 612.223L288.43 627.934L297.538 639.379L304.545 638.848L300.656 633.004L295.839 628.981L291.355 620.784L295.226 619.266L305.193 632.184L312.953 643.888L315.563 654.104L326.493 661.481L344.518 668.282L369.496 669.238L378.255 673.792L385.261 679.029L394.527 681.776L405.037 682.217L414.899 679.894C414.899 679.894 415.46 683.917 415.95 685.875C416.441 687.833 411.816 695.742 411.816 695.742L408.856 704.561L414.689 712.5L425.567 714.109L442.838 723.976L449.845 725.115L451.351 731.005L452.84 733.6C486.84 721.883 516.344 702.102 537.971 676.524L537.48 673.625L544.785 652.024L537.988 649.626L514.639 660.236Z" stroke="#D9D9D9" stroke-width="1.50459" stroke-linecap="round" stroke-linejoin="round"/>
<path d="M522.014 496.021L515.112 489.525L506.546 482.102L501.729 470.671L510.19 470.277L509.629 466.269L503.639 467.013L508.123 464.083L512.852 460.288L511.854 456.357L504.847 451.12L501.519 442.892C468.021 420.031 426.824 407.276 384.193 406.566C341.562 405.857 299.83 417.231 265.343 438.961L277.43 443.363L272.91 451.666L264.695 454.884L266.447 465.662L263.136 467.544L259.633 472.736L261.892 479.718L269.81 479.02L268.339 486.306L276.046 484.788L285.47 467.726L285.225 461.169L297.714 457.95L299.676 452.622L312.515 448.918L312.165 441.981L321.571 439.75C321.571 439.75 327.58 435.302 328.928 435.044C331.677 435.023 334.423 435.18 337.144 435.515L345.149 438.93L354.66 437.093L361.667 431.204L372.282 429.989C373.998 430.564 375.848 430.772 377.677 430.596C379.937 430.156 386.032 426.043 386.032 426.043L400.992 430.596L407.333 433.086L408.839 438.976L415.846 438.444L417.212 434.483L423.711 435.697L424.061 438.93L411.256 444.699L421.188 451.848L439.51 456.569L448.269 463.112L458.446 461.973L459.707 457.617L463.123 456.099L449.337 450.512L441.875 451.12L447.358 448.418L440.211 442.786L447.813 440.919L459.006 443.712L463.683 452.698L469.972 456.842L476.978 467.468L488.557 471.825L491.868 484.788L503.814 488.674L504.462 493.077V498.45L508.999 504.993L510.75 508.363L518.755 508.059L520.682 500.682L522.014 496.021Z" stroke="#D9D9D9" stroke-width="1.50459" stroke-linecap="round" stroke-linejoin="round"/>
<path d="M517.758 455.32L518.336 457.582L517.688 464.292L520.455 469.529L525.85 470.151L527.76 477.604L521.821 476.694L525.885 498.158L522.662 507.858L529.108 518.15L536.203 521.732L541.65 542.984L551.757 558.346L561.321 569.7L572.357 570.049L573.968 561.488L575.194 560.213C574.426 553.164 573.156 546.163 571.393 539.25C563.261 507.365 544.63 478.211 517.758 455.32Z" stroke="#D9D9D9" stroke-width="1.50459" stroke-linecap="round" stroke-linejoin="round"/>
<path d="M412.431 473.007L379.605 467.375L366.555 470.305L365.294 478.365L358.55 474.312L349.091 478.198L351.491 491.329L360.967 494.866L364.943 486.274L373.264 490.858L390.027 498.752L395.667 509.62L410.767 520.307L429.089 513.901L427.127 508.102L421.347 502.198L416.407 486.669L419.227 479.124L412.431 473.007Z" stroke="#D9D9D9" stroke-width="1.50459" stroke-linecap="round" stroke-linejoin="round"/>
<path d="M439.126 476.938L431.927 476.68L427.145 482.129L433.223 492.907L439.126 491.768V476.938Z" stroke="#D9D9D9" stroke-width="1.50459" stroke-linecap="round" stroke-linejoin="round"/>
<path d="M483.18 476.287L465.961 472.188L461.582 468.09L458.254 469.957L463.439 477.198L468.781 486.898L476.191 487.945L477.137 486.108L471.549 481.008L484.336 482.662L483.18 476.287Z" stroke="#D9D9D9" stroke-width="1.50459" stroke-linecap="round" stroke-linejoin="round"/>
<path d="M387.172 643.551L385.771 645.463L400.274 646.389L407.123 650.837L415.934 649.972L418.001 645.038L407.176 645.463L387.172 643.551Z" stroke="#D9D9D9" stroke-width="1.50459" stroke-linecap="round" stroke-linejoin="round"/>
<path d="M429.422 643.25L420.506 647.44L422.678 650.324L434.467 648.047L435.92 644.48L431.944 645.648L429.422 643.25Z" stroke="#D9D9D9" stroke-width="1.50459" stroke-linecap="round" stroke-linejoin="round"/>
<path d="M525.638 388.047C522.078 388.047 518.552 388.655 515.263 389.838C511.974 391.02 508.986 392.753 506.471 394.937C503.955 397.121 501.962 399.713 500.604 402.566C499.246 405.418 498.551 408.475 498.558 411.56C498.558 424.524 525.638 450.679 525.638 450.679C525.638 450.679 552.736 424.524 552.736 411.56C552.741 408.474 552.043 405.417 550.684 402.564C549.324 399.712 547.329 397.119 544.812 394.936C542.295 392.752 539.306 391.019 536.016 389.837C532.726 388.655 529.2 388.047 525.638 388.047ZM525.638 421.852C523.275 421.861 520.961 421.262 518.991 420.129C517.022 418.997 515.484 417.383 514.575 415.492C513.666 413.601 513.425 411.519 513.884 409.509C514.342 407.5 515.479 405.654 517.151 404.205C518.822 402.757 520.953 401.771 523.271 401.374C525.59 400.977 527.993 401.185 530.175 401.973C532.357 402.761 534.219 404.093 535.526 405.8C536.833 407.507 537.525 409.512 537.514 411.56C537.505 414.288 536.251 416.901 534.026 418.829C531.801 420.757 528.785 421.844 525.638 421.852Z" fill="#D9D9D9" stroke="#727272" stroke-width="1.50459" stroke-miterlimit="10"/>
<path d="M315.492 448.297C309.225 448.297 303.215 450.454 298.783 454.295C294.352 458.135 291.862 463.343 291.862 468.774C291.862 480.083 315.492 502.899 315.492 502.899C315.492 502.899 339.122 480.129 339.122 468.774C339.122 463.343 336.632 458.135 332.201 454.295C327.77 450.454 321.759 448.297 315.492 448.297ZM315.492 477.791C313.434 477.791 311.423 477.262 309.712 476.272C308 475.281 306.667 473.873 305.879 472.225C305.092 470.577 304.886 468.764 305.287 467.015C305.689 465.266 306.68 463.66 308.135 462.399C309.59 461.138 311.444 460.279 313.462 459.931C315.481 459.583 317.573 459.762 319.474 460.444C321.375 461.126 323 462.282 324.143 463.765C325.287 465.248 325.897 466.991 325.897 468.774C325.897 471.166 324.801 473.459 322.849 475.15C320.898 476.841 318.252 477.791 315.492 477.791Z" fill="#D9D9D9" stroke="#727272" stroke-width="1.50459" stroke-miterlimit="10"/>
<path d="M404.844 607.984C401.693 607.984 398.67 609.068 396.44 610.998C394.21 612.928 392.955 615.545 392.95 618.276C392.95 623.969 404.844 635.445 404.844 635.445C404.844 635.445 416.72 623.969 416.72 618.276C416.716 615.548 415.463 612.932 413.237 611.003C411.01 609.074 407.992 607.988 404.844 607.984ZM404.844 622.815C403.805 622.815 402.789 622.548 401.924 622.048C401.06 621.547 400.387 620.836 399.989 620.004C399.591 619.172 399.487 618.256 399.69 617.373C399.893 616.489 400.393 615.678 401.128 615.041C401.863 614.404 402.799 613.97 403.819 613.795C404.838 613.619 405.895 613.709 406.855 614.054C407.815 614.399 408.636 614.982 409.213 615.731C409.791 616.48 410.099 617.36 410.099 618.261C410.099 618.859 409.963 619.451 409.699 620.004C409.435 620.556 409.048 621.058 408.56 621.481C408.072 621.904 407.492 622.24 406.855 622.468C406.217 622.697 405.534 622.815 404.844 622.815Z" fill="#D9D9D9" stroke="#727272" stroke-width="1.50459" stroke-miterlimit="10"/>
<path d="M257.038 512.883C253.887 512.887 250.866 513.975 248.639 515.907C246.413 517.84 245.162 520.459 245.162 523.19C245.162 528.882 257.038 540.358 257.038 540.358C257.038 540.358 268.932 528.882 268.932 523.19C268.932 520.456 267.679 517.835 265.448 515.902C263.218 513.969 260.193 512.883 257.038 512.883ZM257.038 527.729C255.999 527.729 254.983 527.462 254.119 526.961C253.255 526.461 252.581 525.75 252.183 524.917C251.786 524.085 251.682 523.17 251.884 522.286C252.087 521.403 252.588 520.592 253.323 519.955C254.057 519.318 254.994 518.884 256.013 518.708C257.032 518.533 258.089 518.623 259.049 518.967C260.01 519.312 260.83 519.896 261.408 520.645C261.985 521.394 262.293 522.274 262.293 523.175C262.293 524.383 261.74 525.541 260.754 526.395C259.769 527.249 258.432 527.729 257.038 527.729Z" fill="#D9D9D9" stroke="#727272" stroke-width="1.50459" stroke-miterlimit="10"/>
<path d="M299.079 556.234C297.518 556.234 295.973 556.501 294.53 557.019C293.088 557.537 291.778 558.297 290.675 559.254C289.572 560.211 288.698 561.348 288.102 562.598C287.506 563.849 287.201 565.189 287.203 566.541C287.203 572.234 299.079 583.71 299.079 583.71C299.079 583.71 310.973 572.234 310.973 566.541C310.973 563.808 309.72 561.186 307.49 559.253C305.259 557.32 302.234 556.234 299.079 556.234ZM299.079 571.08C298.04 571.08 297.024 570.813 296.16 570.313C295.296 569.812 294.622 569.101 294.224 568.269C293.827 567.437 293.723 566.521 293.925 565.638C294.128 564.754 294.629 563.943 295.364 563.306C296.098 562.669 297.035 562.236 298.054 562.06C299.074 561.884 300.13 561.974 301.09 562.319C302.051 562.664 302.871 563.247 303.449 563.996C304.026 564.745 304.334 565.626 304.334 566.526C304.334 567.734 303.781 568.892 302.795 569.746C301.81 570.6 300.473 571.08 299.079 571.08Z" fill="#D9D9D9" stroke="#727272" stroke-width="1.50459" stroke-miterlimit="10"/>
<path d="M446.726 575.695C444.874 575.695 443.04 576.011 441.33 576.625C439.619 577.24 438.064 578.14 436.755 579.274C435.446 580.409 434.407 581.756 433.698 583.239C432.99 584.721 432.625 586.31 432.625 587.915C432.625 594.655 446.726 608.256 446.726 608.256C446.726 608.256 460.739 594.594 460.739 587.915C460.751 586.314 460.397 584.727 459.698 583.245C458.999 581.762 457.968 580.415 456.666 579.279C455.363 578.143 453.815 577.242 452.109 576.627C450.403 576.012 448.574 575.695 446.726 575.695ZM446.726 593.289C445.495 593.292 444.29 592.978 443.265 592.387C442.239 591.796 441.439 590.954 440.967 589.969C440.494 588.984 440.369 587.899 440.609 586.852C440.848 585.806 441.441 584.844 442.311 584.089C443.182 583.335 444.292 582.821 445.499 582.614C446.707 582.406 447.959 582.514 449.096 582.924C450.233 583.334 451.204 584.027 451.886 584.915C452.568 585.804 452.93 586.848 452.927 587.915C452.927 588.621 452.766 589.32 452.455 589.971C452.143 590.623 451.686 591.216 451.111 591.715C450.535 592.214 449.851 592.61 449.099 592.88C448.346 593.15 447.54 593.289 446.726 593.289Z" fill="#D9D9D9" stroke="#727272" stroke-width="1.50459" stroke-miterlimit="10"/>
<path d="M445.693 342.219C442.376 342.219 439.195 343.361 436.85 345.393C434.504 347.426 433.187 350.183 433.187 353.057C433.187 359.129 445.693 371.136 445.693 371.136C445.693 371.136 458.218 358.992 458.218 353.057C458.213 350.181 456.892 347.424 454.543 345.392C452.195 343.36 449.012 342.219 445.693 342.219ZM445.693 357.839C444.602 357.839 443.535 357.558 442.628 357.033C441.72 356.508 441.013 355.761 440.596 354.887C440.178 354.013 440.069 353.052 440.282 352.124C440.495 351.197 441.02 350.345 441.792 349.676C442.563 349.007 443.547 348.552 444.617 348.367C445.687 348.183 446.797 348.278 447.805 348.639C448.813 349.001 449.675 349.614 450.281 350.401C450.887 351.187 451.211 352.111 451.211 353.057C451.211 354.325 450.63 355.542 449.595 356.438C448.56 357.335 447.157 357.839 445.693 357.839Z" fill="#D9D9D9" stroke="#727272" stroke-width="1.50459" stroke-miterlimit="10"/>
<path d="M231.482 410.039C229.838 410.037 228.21 410.316 226.691 410.86C225.171 411.404 223.791 412.202 222.627 413.208C221.464 414.215 220.541 415.41 219.912 416.726C219.282 418.042 218.958 419.453 218.958 420.877C218.958 426.874 231.482 438.957 231.482 438.957C231.482 438.957 243.989 426.813 243.989 420.877C243.989 418.003 242.672 415.246 240.326 413.214C237.981 411.181 234.799 410.039 231.482 410.039ZM231.482 425.659C230.39 425.662 229.322 425.384 228.412 424.861C227.502 424.337 226.792 423.591 226.372 422.718C225.952 421.844 225.84 420.882 226.051 419.954C226.262 419.025 226.786 418.172 227.557 417.502C228.328 416.831 229.311 416.375 230.382 416.189C231.453 416.003 232.563 416.097 233.572 416.458C234.582 416.82 235.444 417.433 236.051 418.219C236.658 419.006 236.983 419.931 236.983 420.877C236.983 422.143 236.404 423.357 235.373 424.253C234.342 425.15 232.943 425.655 231.482 425.659Z" fill="#D9D9D9" stroke="#727272" stroke-width="1.50459" stroke-miterlimit="10"/>
<path d="M379.971 176.467C379.971 176.467 378.885 261.93 378.885 276.047C378.885 290.164 377.536 303.826 377.536 303.826C377.536 303.826 382.423 306.862 381.6 310.414C380.687 313.425 379.413 316.346 377.799 319.127C375.931 318.762 374.004 318.685 372.106 318.899C370.196 319.37 358.793 323.833 356.884 323.833C354.975 323.833 354.169 325.245 353.626 320.797C353.034 316.816 352.853 312.798 353.083 308.79C353.423 305.212 354.061 301.661 354.992 298.164L343.571 190.114L340.856 295.34C340.856 295.34 341.399 301.701 342.222 302.93C343.302 304.615 344.037 306.448 344.395 308.349C344.395 309.518 341.942 320.584 340.891 321.055C339.84 321.526 336.547 323.18 336.547 323.18C336.547 323.18 334.375 322.71 331.38 319.416C328.384 316.122 321.343 316.38 319.976 316.82L318.61 317.29C318.61 317.29 314.546 313.055 313.723 309.989C312.9 306.923 318.347 306.695 318.067 298.452C317.787 290.21 309.624 220.291 309.624 220.291L307.715 173.234L380.514 171.352L379.971 176.467Z" fill="#D9D9D9" stroke="#727272" stroke-width="1.50459" stroke-miterlimit="10"/>
<path d="M351.454 67.2344L322.394 68.889L321.308 176.468C321.308 176.468 323.48 178.123 341.399 178.351C359.319 178.578 363.137 176.711 363.137 176.711L351.454 67.2344Z" fill="#D9D9D9" stroke="#727272" stroke-width="1.50459" stroke-miterlimit="10"/>
<path d="M349.667 14.2555C349.667 14.2555 356.778 22.9535 356.673 24.2742C356.473 25.5737 356.18 26.8614 355.797 28.1299C355.797 28.1299 363.54 35.0519 362.804 35.6135L358.495 38.8013C358.495 38.8013 358.618 45.2831 358.618 46.2849C358.618 47.2868 360.264 49.8067 359.756 50.8389C359.169 51.9655 358.356 52.9933 357.356 53.8748C356.463 54.5276 349.982 54.4213 349.982 54.4213L349.859 63.3319C349.859 63.3319 350.998 68.9484 349.982 70.9218C348.966 72.8952 346.041 74.4435 338.684 74.7775C331.327 75.1114 327.736 72.9407 325.581 71.3924C323.427 69.844 323.707 55.6357 323.567 53.4346C323.427 51.2336 323.322 47.0439 321.92 45.1768C320.519 43.3097 311.41 29.997 309.869 26.6878C308.327 23.3786 308.205 19.9783 311.13 17.0182C314.055 14.0582 317.734 12.7223 318.137 11.0677C318.54 9.41315 318.137 7.77373 320.922 6.99956C322.95 6.5376 325.062 6.42415 327.14 6.6656C327.14 6.6656 332.483 1.06425 335.268 1.71698L338.071 2.36971C338.071 2.36971 345.813 0.502594 349.877 3.47784C353.941 6.45308 354.746 11.174 349.667 14.2555Z" fill="#D9D9D9" stroke="#727272" stroke-width="1.50459" stroke-miterlimit="10"/>
<path d="M351.12 29.8119C351.12 31.2085 351.611 32.347 352.241 32.347C352.872 32.347 353.362 31.2085 353.362 29.8119C353.362 28.4154 352.854 27.2617 352.241 27.2617C351.628 27.2617 351.12 28.4002 351.12 29.8119Z" fill="#D9D9D9" stroke="#727272" stroke-width="1.50459" stroke-miterlimit="10"/>
<path d="M318.049 11.0677C318.417 9.41315 318.049 7.77373 320.834 6.99956C322.862 6.5376 324.974 6.42415 327.052 6.6656C327.052 6.6656 332.395 1.06425 335.18 1.71698L337.983 2.36971C337.983 2.36971 345.725 0.502594 349.789 3.47784C353.853 6.45308 354.746 11.174 349.666 14.2555C349.666 14.2555 335.653 15.5762 337.405 17.7772C339.156 19.9783 339.945 21.7392 338.561 22.3312C337.177 22.9232 330.819 25.7315 331.449 27.0521C332.08 28.3727 332.71 31.8945 331.834 32.1222C330.959 32.3499 331.064 31.8945 328.331 30.1336C325.599 28.3727 322.481 29.6934 322.113 33.1696C321.972 34.4346 322.318 35.7045 323.098 36.781C323.877 37.8575 325.046 38.68 326.422 39.1201C327.823 39.3326 327.052 43.674 324.39 45.2831C323.779 45.6354 323.12 45.921 322.428 46.1331C322.278 45.758 322.084 45.3969 321.85 45.0554C320.449 43.1883 311.34 29.8755 309.799 26.5663C308.257 23.2571 308.135 19.8569 311.06 16.8968C313.985 13.9367 317.664 12.7223 318.049 11.0677Z" fill="#D9D9D9" stroke="#727272" stroke-width="1.50459" stroke-miterlimit="10"/>
<path d="M357.092 42.2042C357.092 42.2042 351.382 43.0847 348.089 39.5781" stroke="#D9D9D9" stroke-width="1.50459" stroke-miterlimit="10"/>
<path d="M349.911 54.4217L338.228 51.2188L349.648 61.2374L349.911 54.4217Z" fill="#D9D9D9" stroke="#727272" stroke-width="1.50459" stroke-miterlimit="10"/>
<path d="M353.854 24.2083C353.854 24.2083 349.72 22.2501 347.32 25.195" stroke="#D9D9D9" stroke-width="1.50459" stroke-miterlimit="10"/>
<path d="M380.934 108.215C380.934 108.215 396.786 131.227 397.224 135.675C397.662 140.123 388.869 155.409 386.294 155.91C383.719 156.411 376.432 149.231 375.591 146.255C374.751 143.28 373.437 109.702 374.943 106.788C376.45 103.873 380.934 108.215 380.934 108.215Z" fill="#D9D9D9" stroke="#727272" stroke-width="1.50459" stroke-miterlimit="10"/>
<path d="M354.641 66.9755L369.846 67.9774C369.846 67.9774 378.218 66.2924 380.741 66.9755C383.263 67.6586 419.12 79.6355 423.026 82.0035C426.932 84.3716 426.336 92.9633 425.356 96.5154C425.019 97.7546 424.231 98.8669 423.108 99.6872C421.984 100.507 420.586 100.992 419.12 101.069C417.368 101.236 381.144 99.2174 381.144 99.2174L390.48 181.431L371.002 186.896L357.181 188.414L350.35 85.9351L354.641 66.9755Z" fill="#D9D9D9" stroke="#727272" stroke-width="1.50459" stroke-miterlimit="10"/>
<path d="M349.666 61.2539L354.641 66.9767C354.641 66.9767 355.219 75.5837 353.87 79.1205C352.918 81.5053 351.746 83.82 350.367 86.0425L344.131 73.5496C346.806 69.7692 348.68 65.6053 349.666 61.2539Z" fill="#D9D9D9" stroke="#727272" stroke-width="1.50459" stroke-miterlimit="10"/>
<path d="M325.564 89.2134L327.315 188.778C327.315 188.778 310.184 187.108 304.544 185.059C301.329 183.895 298.184 182.593 295.12 181.158C295.12 181.158 300.69 144.726 300.9 141.811C301.111 138.897 301.111 136.423 301.111 136.423C301.111 136.423 288.481 140.324 283.769 139.034C279.057 137.743 278.409 133.463 278.847 128.074C279.096 125.093 279.131 122.102 278.952 119.118C278.952 118.192 280.231 102.815 285.381 91.3082C290.531 79.8019 287.413 79.4376 291.056 77.4035C294.7 75.3694 321.255 67.1875 321.255 67.1875L324.25 72.5763L325.564 89.2134Z" fill="#D9D9D9" stroke="#727272" stroke-width="1.50459" stroke-miterlimit="10"/>
<path d="M305.333 72.7617C305.333 72.7617 309.187 112.108 304.685 125.102L297.678 125.299C298.116 129.853 301.304 121.762 302.163 97.0798C302.53 86.4539 297.03 75.1753 297.03 75.1753C299.725 74.194 302.5 73.3872 305.333 72.7617Z" fill="#D9D9D9" stroke="#727272" stroke-width="1.50459" stroke-miterlimit="10"/>
<path d="M324.056 61.8626C324.056 61.8626 326.596 67.4336 328.138 70.3025C329.679 73.1715 330.818 75.0386 330.818 75.0386L325.563 89.2166C323.374 83.971 321.761 78.5582 320.746 73.0501C319.958 66.629 319.257 67.6157 319.257 67.6157C319.257 67.6157 322.69 60.6785 324.056 61.8626Z" fill="#D9D9D9" stroke="#727272" stroke-width="1.50459" stroke-miterlimit="10"/>
<path d="M376.853 43.2951C375.278 42.8287 373.773 42.202 372.369 41.428C371.195 40.5931 368.865 37.3749 368.077 36.707C367.289 36.0391 363.435 37.208 362.822 35.6141C362.209 34.0202 361.771 32.3808 364.083 32.8514C366.369 33.207 368.681 33.4201 371.002 33.4889L367.341 23.1211H384.14C384.14 23.1211 389.009 37.4812 389.009 38.65C388.873 39.9612 388.615 41.2607 388.239 42.5361C388.239 42.5361 411.22 64.8201 416.09 70.391C420.96 75.962 427.003 83.5671 427.598 86.4361C428.194 89.3051 426.425 98.413 422.343 99.597C418.262 100.781 414.549 99.43 410.274 95.8932C406 92.3563 393.126 69.5562 392.548 68.7061C391.97 67.856 382.038 46.5891 381.442 45.9364C380.003 44.9429 378.468 44.0592 376.853 43.2951Z" fill="#D9D9D9" stroke="#727272" stroke-width="1.50459" stroke-miterlimit="10"/>
<path d="M368.304 68.1151C368.304 68.1151 373.226 95.9701 378.586 109.708C383.946 123.446 388.431 132.159 388.431 132.159L386.083 144.303C379.75 134.373 374.377 124.005 370.021 113.305C362.734 95.4843 358.67 67.6445 358.67 67.6445L368.304 68.1151Z" fill="#D9D9D9" stroke="#727272" stroke-width="1.50459" stroke-miterlimit="10"/>
<path d="M325.423 94.7993L331.203 139.261L298.22 135.861L289.619 91.5508L325.423 94.7993Z" fill="#D9D9D9" stroke="#727272" stroke-width="1.50459" stroke-miterlimit="10"/>
<path d="M321.167 95.0284L331.676 138.837L298.465 138.094L285.188 94.6641L321.167 95.0284Z" fill="#D9D9D9" stroke="#727272" stroke-width="1.50459" stroke-miterlimit="10"/>
<path d="M289.043 120.289C292.659 121.979 296.378 123.499 300.183 124.843C301.9 125.435 303.741 125.709 305.588 125.646C307.435 125.583 309.246 125.185 310.904 124.478C312.779 123.733 314.455 122.657 315.826 121.321C315.826 121.321 316.894 116.311 318.173 115.568C319.452 114.824 322.464 114.262 323.743 112.532C325.022 110.801 325.67 111.014 326.108 112.714C326.546 114.414 326.966 116.251 325.67 116.995C324.918 117.423 324.384 118.086 324.181 118.846C324.181 118.846 324.391 120.152 326.108 119.59C327.825 119.029 328.893 117.177 330.61 117.738C330.987 117.792 331.344 117.922 331.652 118.119C331.96 118.315 332.209 118.572 332.38 118.869C332.551 119.165 332.639 119.492 332.635 119.823C332.632 120.155 332.538 120.481 332.361 120.774C331.872 121.685 331.285 122.554 330.61 123.37C330.61 123.37 332.747 127.651 331.678 130.429C330.61 133.207 325.25 134.892 322.675 135.074C320.1 135.256 312.83 135.438 312.83 135.438C312.83 135.438 302.32 138.474 295.909 140.083C289.498 141.692 287.554 141.389 283.911 138.975C282.036 137.72 280.658 135.991 279.968 134.027C279.277 132.064 279.308 129.963 280.057 128.015C281.546 123.628 283.262 121.215 289.043 120.289Z" fill="#D9D9D9" stroke="#727272" stroke-width="1.50459" stroke-miterlimit="10"/>
<path d="M376.17 315.601C376.17 315.601 379.673 322.887 380.514 324.299C382.322 326.832 384.849 328.923 387.853 330.371C391.935 332.481 396.822 333.893 395.736 335.775C394.65 337.657 389.763 338.128 385.681 338.598C381.6 339.069 372.106 337.657 368.287 337.657C364.469 337.657 356.026 336.488 355.255 334.834C354.484 333.179 355.535 321.415 355.535 321.415C355.535 321.415 361.771 315.358 376.17 315.601Z" fill="#D9D9D9" stroke="#727272" stroke-width="1.50459" stroke-miterlimit="10"/>
<path d="M355.342 334.899C355.04 333.631 354.939 332.334 355.044 331.043L364.836 333.563C370.826 334.863 376.931 335.727 383.088 336.143C387.34 336.331 391.592 335.757 395.577 334.458C395.777 334.639 395.908 334.868 395.952 335.115C395.996 335.363 395.951 335.616 395.823 335.84C394.736 337.722 389.849 338.193 385.768 338.663C381.687 339.134 372.193 337.722 368.374 337.722C364.555 337.722 356.077 336.553 355.342 334.899Z" fill="#D9D9D9" stroke="#727272" stroke-width="1.50459" stroke-miterlimit="10"/>
<path d="M337.353 321.997C337.353 321.997 336.547 334.141 336.354 335.021C336.162 335.901 335.163 336.539 332.395 336.827C329.628 337.116 328.419 336.994 326.843 337.662C325.266 338.33 321.886 339.803 312.374 339.803C302.863 339.803 299.885 338.285 301.076 335.355C302.267 332.425 311.376 326.611 313.565 324.304C315.388 322.031 316.932 319.599 318.172 317.048C318.172 317.048 320.887 315.075 326.247 316.061C331.607 317.048 332.991 318.87 333.587 319.689C334.704 320.616 335.973 321.393 337.353 321.997Z" fill="#D9D9D9" stroke="#727272" stroke-width="1.50459" stroke-miterlimit="10"/>
<path d="M301.041 335.414C301.122 335.22 301.221 335.032 301.339 334.853C302.264 335.706 303.37 336.396 304.597 336.887C308.1 338.405 322.254 337.555 325.424 336.067C329.047 334.684 332.783 333.532 336.6 332.621C336.495 333.927 336.407 334.898 336.354 335.111C336.162 335.93 335.163 336.629 332.396 336.917C329.628 337.205 328.419 337.084 326.843 337.752C325.266 338.42 321.886 339.892 312.374 339.892C302.863 339.892 299.885 338.374 301.041 335.414Z" fill="#D9D9D9" stroke="#727272" stroke-width="1.50459" stroke-miterlimit="10"/>
<path d="M362.874 25.443L375.836 24.6992V33.4883L362.874 32.7445C362.261 32.7445 361.753 31.1203 361.753 29.1014C361.753 27.0824 362.348 25.443 362.874 25.443Z" fill="#D9D9D9" stroke="#727272" stroke-width="1.50459" stroke-miterlimit="10"/>
<path d="M359.318 24.5664H363.4C363.506 24.567 363.61 24.5901 363.703 24.6337C363.796 24.6773 363.876 24.7401 363.935 24.8165C363.993 24.8929 364.03 24.9806 364.04 25.072C364.051 25.1634 364.035 25.2556 363.995 25.3406C363.548 26.5567 363.341 27.8294 363.382 29.1052C363.339 30.3761 363.547 31.6441 363.995 32.8546C364.035 32.9396 364.051 33.0318 364.04 33.1232C364.03 33.2145 363.993 33.3023 363.935 33.3787C363.876 33.4551 363.796 33.5178 363.703 33.5614C363.61 33.605 363.506 33.6281 363.4 33.6288H359.318C358.548 33.6288 357.917 31.5947 357.917 29.0748C357.917 26.555 358.548 24.5664 359.318 24.5664Z" fill="#D9D9D9" stroke="#727272" stroke-width="1.50459" stroke-miterlimit="10"/>
<path d="M372.175 23.1245L400.324 21.9102V36.3006L372.175 35.1014C371.159 35.1014 370.423 32.4146 370.423 29.1206C370.423 25.8265 371.106 23.1245 372.175 23.1245Z" fill="#D9D9D9" stroke="#727272" stroke-width="1.50459" stroke-miterlimit="10"/>
<path d="M398.118 29.1054C398.118 33.0673 399.117 36.3006 400.325 36.3006C401.534 36.3006 402.532 33.0673 402.532 29.1054C402.532 25.1435 401.551 21.9102 400.325 21.9102C399.099 21.9102 398.118 25.1283 398.118 29.1054Z" fill="#D9D9D9" stroke="#727272" stroke-width="1.50459" stroke-miterlimit="10"/>
<path d="M357.951 25.443L370.913 24.6992V33.4883L357.951 32.7445C357.338 32.7445 356.83 31.1203 356.83 29.1014C356.83 27.0824 357.338 25.443 357.951 25.443Z" fill="#D9D9D9" stroke="#727272" stroke-width="1.50459" stroke-miterlimit="10"/>
<path d="M354.395 24.5664H358.477C358.583 24.567 358.687 24.5901 358.78 24.6337C358.873 24.6773 358.953 24.7401 359.012 24.8165C359.07 24.8929 359.107 24.9806 359.117 25.072C359.128 25.1634 359.112 25.2556 359.072 25.3406C358.633 26.5578 358.431 27.8303 358.477 29.1052C358.43 30.3752 358.631 31.6429 359.072 32.8546C359.112 32.9396 359.128 33.0318 359.117 33.1232C359.107 33.2145 359.07 33.3023 359.012 33.3787C358.953 33.4551 358.873 33.5178 358.78 33.5614C358.687 33.605 358.583 33.6281 358.477 33.6288H354.395C353.625 33.6288 352.994 31.5947 352.994 29.0748C352.994 26.555 353.59 24.5664 354.395 24.5664Z" fill="#D9D9D9" stroke="#727272" stroke-width="1.50459" stroke-miterlimit="10"/>
<path d="M367.254 23.1245L395.403 21.9102V36.3006L367.254 35.1014C366.255 35.1014 365.502 32.4146 365.502 29.1206C365.502 25.8265 366.255 23.1245 367.254 23.1245Z" fill="#D9D9D9" stroke="#727272" stroke-width="1.50459" stroke-miterlimit="10"/>
<path d="M393.195 29.1054C393.195 33.0673 394.194 36.3006 395.402 36.3006C396.611 36.3006 397.61 33.0673 397.61 29.1054C397.61 25.1435 396.629 21.9102 395.402 21.9102C394.176 21.9102 393.195 25.1283 393.195 29.1054Z" fill="#D9D9D9" stroke="#727272" stroke-width="1.50459" stroke-miterlimit="10"/>
<path d="M383.579 22.2562C383.579 22.2562 379.953 18.8711 378.604 18.8711C377.255 18.8711 375.101 21.9071 374.715 22.2562C374.33 22.6053 374.575 23.1822 376.047 23.3036C377.167 23.2719 378.249 22.9434 379.147 22.3625L383.579 22.2562Z" fill="#D9D9D9" stroke="#727272" stroke-width="1.50459" stroke-miterlimit="10"/>
<path d="M378.604 18.8702C376.759 18.4585 374.868 18.2243 372.964 18.1719C371.878 18.3996 369.863 22.3615 370.266 22.9535C370.669 23.5455 374.716 22.2553 374.716 22.2553C374.716 22.2553 377.396 18.7487 378.604 18.8702Z" fill="#D9D9D9" stroke="#727272" stroke-width="1.50459" stroke-miterlimit="10"/>
<path d="M372.019 18.5235C372.019 18.5235 369.864 17.3547 368.796 18.1744C367.727 18.9941 365.432 21.7872 365.975 22.8346C366.518 23.882 370.267 22.956 370.267 22.956C370.267 22.956 371.108 18.8727 372.019 18.5235Z" fill="#D9D9D9" stroke="#727272" stroke-width="1.50459" stroke-miterlimit="10"/>
<path d="M367.726 18.8686C367.726 18.8686 365.028 17.9426 364.082 18.8686C363.137 19.7945 360.737 22.7091 362.331 23.4225C363.925 24.136 365.554 22.026 365.554 22.026L367.726 18.8686Z" fill="#D9D9D9" stroke="#727272" stroke-width="1.50459" stroke-miterlimit="10"/>
</g>
<defs>
<clipPath id="clip0_3843_1050">
<rect width="698.526" height="677.263" fill="white" transform="translate(0 0.898438)"/>
</clipPath>
</defs>
</svg>
