<svg width="48" height="10" viewBox="0 0 48 10" fill="none" xmlns="http://www.w3.org/2000/svg">
<path d="M0.789505 2.14437C1.58938 2.36766 2.41161 2.50135 3.24102 2.54299L9.92455 3.26714C11.4366 3.43986 12.9277 3.76256 14.3758 4.23048C15.165 4.49614 15.9243 4.84349 16.6413 5.2669C17.4175 5.78994 18.2251 6.26475 19.0596 6.68864C19.5625 6.92402 20.1122 7.04215 20.6674 7.03411C21.2786 6.99856 21.8565 6.7438 22.2951 6.3166C23.1388 5.44628 23.3713 4.38993 23.9228 3.71228C24.1509 3.37951 24.494 3.14288 24.8861 3.04791C25.3064 2.95474 25.7447 2.98472 26.1484 3.13427C27.0548 3.46398 27.8151 4.10423 28.2943 4.94135C28.8723 5.79839 29.3241 6.775 29.9818 7.69183C30.6219 8.67698 31.5705 9.42226 32.6791 9.81116C33.261 9.97733 33.8777 9.97733 34.4596 9.81116C35.0109 9.64765 35.5192 9.36403 35.9478 8.9807C36.7142 8.27735 37.3115 7.40973 37.6951 6.44282C38.0804 5.55257 38.3595 4.68889 38.7448 3.93151C39.1867 2.89622 39.989 2.05634 41.003 1.56765C42.0171 1.07897 43.1739 0.974642 44.259 1.27404C44.8354 1.41933 45.3741 1.6859 45.8393 2.05594C46.3044 2.42599 46.6852 2.89102 46.9564 3.41996C47.39 4.23627 47.5965 5.15404 47.5543 6.07742C47.5377 6.66905 47.4115 7.25247 47.1822 7.79813C47.0294 8.18346 46.9231 8.37613 46.9564 8.40271C46.9896 8.42928 47.149 8.26318 47.3749 7.89778C47.701 7.3528 47.9029 6.74258 47.9662 6.11063C48.0934 5.09968 47.9274 4.07346 47.4879 3.1542C47.2001 2.52884 46.7812 1.97266 46.2596 1.52332C45.7381 1.07399 45.126 0.742013 44.465 0.549886C43.6576 0.314234 42.8078 0.262331 41.9777 0.397987C41.1477 0.533642 40.3586 0.85342 39.6682 1.33384C38.9171 1.89515 38.3149 2.63192 37.9143 3.47975C37.4825 4.31021 37.1769 5.18716 36.7982 6.01762C36.464 6.84506 35.946 7.58567 35.2834 8.18347C34.9811 8.47409 34.6083 8.68086 34.2017 8.78339C33.7951 8.88592 33.3687 8.88064 32.9648 8.7681C32.0933 8.44143 31.3501 7.84273 30.8455 7.06068C30.2675 6.2568 29.8157 5.28018 29.1845 4.33678C28.8635 3.84764 28.4818 3.40117 28.0485 3.00804C27.5919 2.61118 27.0613 2.30862 26.4872 2.11779C25.8948 1.91517 25.2578 1.88068 24.6469 2.01814C24.0271 2.17131 23.4813 2.53834 23.1056 3.05455C22.4014 3.99795 22.1622 5.04765 21.5908 5.5725C21.3315 5.83263 20.9872 5.99065 20.6209 6.01762C20.2173 6.02071 19.8179 5.9345 19.4516 5.76517C18.6493 5.36762 17.8707 4.92396 17.1196 4.43644C16.342 3.99071 15.5177 3.632 14.6615 3.36681C13.1463 2.91365 11.5874 2.62192 10.0109 2.49649C7.15414 2.25731 4.86208 2.18423 3.2676 2.1045C2.44264 2.02614 1.61152 2.03952 0.789505 2.14437Z" fill="#538676"/>
</svg>
