<svg width="1616" height="873" viewBox="0 0 1616 873" fill="none" xmlns="http://www.w3.org/2000/svg">
<path d="M1613.77 889.215C1577.17 784.428 1468.67 717.523 1358.86 701.24C1249.05 684.957 1137.56 711.08 1031.24 742.963C924.919 774.846 819.079 812.988 708.421 821.757C597.762 830.526 478.538 805.566 399.855 727.252C345.744 673.363 311.59 595.991 242.489 563.443C179.959 534.015 106.796 549.874 38.7469 561.837C-29.3023 573.8 -107.099 578.803 -159.733 534.145C-213.161 488.785 -219.881 404.766 -191.45 340.705C-163.019 276.643 -106.878 229.289 -48.7424 190.151C9.39303 151.012 71.8484 117.265 122.821 69.154C173.793 21.0432 213.005 -45.6953 207.744 -115.572C202.482 -185.449 140.156 -252.409 70.5376 -244.305" stroke="#538676" stroke-width="3.00923" stroke-miterlimit="10" stroke-linecap="round" stroke-dasharray="6.3 11.82"/>
</svg>
