<svg width="230" height="70" viewBox="0 0 543 80" fill="none" xmlns="http://www.w3.org/2000/svg">
<g clip-path="url(#clip0_5704_14915)">
<path d="M44.331 79.9922C36.4153 79.9922 28.6774 77.6463 22.0957 73.251C15.5141 68.8557 10.3843 62.6086 7.35513 55.2995C4.32593 47.9905 3.53336 39.9478 5.07763 32.1886C6.6219 24.4294 10.4337 17.302 16.0309 11.7079C21.6281 6.11384 28.7594 2.3042 36.523 0.760795C44.2866 -0.782614 52.3337 0.00951789 59.6469 3.03702C66.96 6.06453 73.2106 11.1914 77.6084 17.7694C82.0061 24.3474 84.3533 32.081 84.3533 39.9922C84.3416 50.5973 80.1212 60.7646 72.6181 68.2635C65.115 75.7624 54.942 79.9805 44.331 79.9922Z" fill="#538676"/>
<path d="M44.3302 77.554C51.7635 77.554 59.0298 75.351 65.2103 71.2236C71.3908 67.0962 76.2079 61.2298 79.0525 54.3662C81.8971 47.5027 82.6414 39.9502 81.1912 32.6638C79.7411 25.3775 76.1616 18.6846 70.9055 13.4314C65.6494 8.17824 58.9527 4.60079 51.6623 3.15145C44.3719 1.70211 36.8152 2.44596 29.9478 5.28895C23.0804 8.13194 17.2107 12.9464 13.081 19.1234C8.95128 25.3005 6.74707 32.5628 6.74707 39.9918C6.75881 49.9503 10.7222 59.4976 17.7679 66.5393C24.8136 73.5811 34.3662 77.5422 44.3302 77.554Z" fill="white"/>
<path d="M93.7672 25.8053C93.1336 25.571 91.4483 23.5827 83.8772 24.2159C81.3429 24.4312 73.9999 26.7488 64.7182 29.6426L42.9869 20.8789L36.4358 21.5754L53.9032 33.0176C47.8526 34.8792 41.4853 36.7725 35.3461 38.4189L22.567 29.5539L19.0254 30.5164L29.8467 44.3331L26.7232 50.8045L31.2532 50.2663L34.2563 45.9288C42.7747 45.6571 51.2538 44.6508 59.599 42.921L55.3541 60.0177L60.7204 57.7128L69.0328 40.8757C95.218 34.6196 97.4735 29.8325 97.9677 28.4964C98.4999 26.9767 94.4071 26.0459 93.7672 25.8053Z" fill="#538676"/>
<path d="M10.415 66.9059L53.9157 58.9907L54.7393 54.2227L10.415 66.9059Z" fill="#538676"/>
<path d="M5.45508 60.2204L55.5955 50.2346L56.6092 45.1562L5.45508 60.2204Z" fill="#538676"/>
<path d="M25.8426 48.7893L2.51465 53.589L27.3061 45.8828L25.8426 48.7893Z" fill="#538676"/>
<path d="M25.9904 41.9003L1.07227 47.4916L24.2164 39.8867L25.9904 41.9003Z" fill="#538676"/>
<path d="M22.1621 36.2817L0 41.398L20.3882 34.2617L22.1621 36.2817Z" fill="#538676"/>
</g>
<path d="M118.8 60L108.528 33.888H115.392L122.832 54.432H120.288L127.776 33.888H134.64L124.368 60H118.8ZM136.675 60V33.888H142.963V60H136.675ZM136.675 30.96V24.24H142.963V30.96H136.675ZM157.265 60.576C154.481 60.576 152.049 59.92 149.969 58.608C147.921 57.264 146.513 55.456 145.745 53.184L150.449 50.928C151.121 52.4 152.049 53.552 153.233 54.384C154.449 55.216 155.793 55.632 157.265 55.632C158.417 55.632 159.329 55.376 160.001 54.864C160.673 54.352 161.009 53.68 161.009 52.848C161.009 52.336 160.865 51.92 160.577 51.6C160.321 51.248 159.953 50.96 159.473 50.736C159.025 50.48 158.529 50.272 157.985 50.112L153.713 48.912C151.505 48.272 149.825 47.296 148.673 45.984C147.553 44.672 146.993 43.12 146.993 41.328C146.993 39.728 147.393 38.336 148.193 37.152C149.025 35.936 150.161 34.992 151.601 34.32C153.073 33.648 154.753 33.312 156.641 33.312C159.105 33.312 161.281 33.904 163.169 35.088C165.057 36.272 166.401 37.936 167.201 40.08L162.401 42.336C161.953 41.152 161.201 40.208 160.145 39.504C159.089 38.8 157.905 38.448 156.593 38.448C155.537 38.448 154.705 38.688 154.097 39.168C153.489 39.648 153.185 40.272 153.185 41.04C153.185 41.52 153.313 41.936 153.569 42.288C153.825 42.64 154.177 42.928 154.625 43.152C155.105 43.376 155.649 43.584 156.257 43.776L160.433 45.024C162.577 45.664 164.225 46.624 165.377 47.904C166.561 49.184 167.153 50.752 167.153 52.608C167.153 54.176 166.737 55.568 165.905 56.784C165.073 57.968 163.921 58.896 162.449 59.568C160.977 60.24 159.249 60.576 157.265 60.576ZM178.466 60.576C176.642 60.576 175.058 60.272 173.714 59.664C172.37 59.056 171.33 58.192 170.594 57.072C169.858 55.92 169.49 54.592 169.49 53.088C169.49 51.648 169.81 50.368 170.45 49.248C171.09 48.096 172.082 47.136 173.426 46.368C174.77 45.6 176.466 45.056 178.514 44.736L187.058 43.344V48.144L179.714 49.392C178.466 49.616 177.538 50.016 176.93 50.592C176.322 51.168 176.018 51.92 176.018 52.848C176.018 53.744 176.354 54.464 177.026 55.008C177.73 55.52 178.594 55.776 179.618 55.776C180.93 55.776 182.082 55.504 183.074 54.96C184.098 54.384 184.882 53.6 185.426 52.608C186.002 51.616 186.29 50.528 186.29 49.344V42.624C186.29 41.504 185.842 40.576 184.946 39.84C184.082 39.072 182.93 38.688 181.49 38.688C180.146 38.688 178.946 39.056 177.89 39.792C176.866 40.496 176.114 41.44 175.634 42.624L170.498 40.128C171.01 38.752 171.81 37.568 172.898 36.576C174.018 35.552 175.33 34.752 176.834 34.176C178.338 33.6 179.97 33.312 181.73 33.312C183.874 33.312 185.762 33.712 187.394 34.512C189.026 35.28 190.29 36.368 191.186 37.776C192.114 39.152 192.578 40.768 192.578 42.624V60H186.626V55.536L187.97 55.44C187.298 56.56 186.498 57.504 185.57 58.272C184.642 59.008 183.586 59.584 182.402 60C181.218 60.384 179.906 60.576 178.466 60.576Z" fill="#538676"/>
<path d="M206.885 60.576C204.101 60.576 201.669 59.92 199.589 58.608C197.541 57.264 196.133 55.456 195.365 53.184L200.069 50.928C200.741 52.4 201.669 53.552 202.853 54.384C204.069 55.216 205.413 55.632 206.885 55.632C208.037 55.632 208.949 55.376 209.621 54.864C210.293 54.352 210.629 53.68 210.629 52.848C210.629 52.336 210.485 51.92 210.197 51.6C209.941 51.248 209.573 50.96 209.093 50.736C208.645 50.48 208.149 50.272 207.605 50.112L203.333 48.912C201.125 48.272 199.445 47.296 198.293 45.984C197.173 44.672 196.613 43.12 196.613 41.328C196.613 39.728 197.013 38.336 197.813 37.152C198.645 35.936 199.781 34.992 201.221 34.32C202.693 33.648 204.373 33.312 206.261 33.312C208.725 33.312 210.901 33.904 212.789 35.088C214.677 36.272 216.021 37.936 216.821 40.08L212.021 42.336C211.573 41.152 210.821 40.208 209.765 39.504C208.709 38.8 207.525 38.448 206.213 38.448C205.157 38.448 204.325 38.688 203.717 39.168C203.109 39.648 202.805 40.272 202.805 41.04C202.805 41.52 202.933 41.936 203.189 42.288C203.445 42.64 203.797 42.928 204.245 43.152C204.725 43.376 205.269 43.584 205.877 43.776L210.053 45.024C212.197 45.664 213.845 46.624 214.997 47.904C216.181 49.184 216.773 50.752 216.773 52.608C216.773 54.176 216.357 55.568 215.525 56.784C214.693 57.968 213.541 58.896 212.069 59.568C210.597 60.24 208.869 60.576 206.885 60.576ZM229.478 60.576C227.462 60.576 225.702 60.128 224.198 59.232C222.726 58.336 221.59 57.088 220.79 55.488C220.022 53.888 219.638 52.016 219.638 49.872V33.888H225.926V49.344C225.926 50.432 226.134 51.392 226.55 52.224C226.998 53.024 227.622 53.664 228.422 54.144C229.254 54.592 230.182 54.816 231.206 54.816C232.23 54.816 233.142 54.592 233.942 54.144C234.742 53.664 235.366 53.008 235.814 52.176C236.262 51.344 236.486 50.352 236.486 49.2V33.888H242.774V60H236.822V54.864L237.35 55.776C236.742 57.376 235.734 58.576 234.326 59.376C232.95 60.176 231.334 60.576 229.478 60.576ZM222.134 29.28L227.75 21.36H235.19L240.854 29.28H234.614L231.494 24.96L228.374 29.28H222.134ZM247.179 60V33.888H253.083V39.696L252.603 38.832C253.211 36.88 254.155 35.52 255.435 34.752C256.747 33.984 258.315 33.6 260.139 33.6H261.675V39.168H259.419C257.627 39.168 256.187 39.728 255.099 40.848C254.011 41.936 253.467 43.472 253.467 45.456V60H247.179ZM276.076 60.576C273.388 60.576 271.036 59.968 269.02 58.752C267.004 57.536 265.436 55.888 264.316 53.808C263.196 51.728 262.636 49.424 262.636 46.896C262.636 44.272 263.196 41.952 264.316 39.936C265.468 37.888 267.02 36.272 268.972 35.088C270.956 33.904 273.164 33.312 275.596 33.312C277.644 33.312 279.436 33.648 280.972 34.32C282.54 34.992 283.868 35.92 284.956 37.104C286.044 38.288 286.876 39.648 287.452 41.184C288.028 42.688 288.316 44.32 288.316 46.08C288.316 46.528 288.284 46.992 288.22 47.472C288.188 47.952 288.108 48.368 287.98 48.72H267.82V43.92H284.428L281.452 46.176C281.74 44.704 281.66 43.392 281.212 42.24C280.796 41.088 280.092 40.176 279.1 39.504C278.14 38.832 276.972 38.496 275.596 38.496C274.284 38.496 273.116 38.832 272.092 39.504C271.068 40.144 270.284 41.104 269.74 42.384C269.228 43.632 269.036 45.152 269.164 46.944C269.036 48.544 269.244 49.968 269.788 51.216C270.364 52.432 271.196 53.376 272.284 54.048C273.404 54.72 274.684 55.056 276.124 55.056C277.564 55.056 278.78 54.752 279.772 54.144C280.796 53.536 281.596 52.72 282.172 51.696L287.26 54.192C286.748 55.44 285.948 56.544 284.86 57.504C283.772 58.464 282.476 59.216 280.972 59.76C279.5 60.304 277.868 60.576 276.076 60.576ZM292.938 49.728V44.208H313.338V49.728H292.938Z" fill="#D83131"/>
<path d="M331.56 60.576C328.968 60.576 326.632 59.984 324.552 58.8C322.504 57.584 320.888 55.952 319.704 53.904C318.52 51.824 317.928 49.488 317.928 46.896C317.928 44.304 318.52 41.984 319.704 39.936C320.888 37.888 322.504 36.272 324.552 35.088C326.632 33.904 328.968 33.312 331.56 33.312C333.416 33.312 335.144 33.648 336.744 34.32C338.344 34.96 339.72 35.856 340.872 37.008C342.056 38.128 342.904 39.472 343.416 41.04L337.896 43.44C337.416 42.128 336.6 41.072 335.448 40.272C334.328 39.472 333.032 39.072 331.56 39.072C330.184 39.072 328.952 39.408 327.864 40.08C326.808 40.752 325.976 41.68 325.368 42.864C324.76 44.048 324.456 45.408 324.456 46.944C324.456 48.48 324.76 49.84 325.368 51.024C325.976 52.208 326.808 53.136 327.864 53.808C328.952 54.48 330.184 54.816 331.56 54.816C333.064 54.816 334.376 54.416 335.496 53.616C336.616 52.816 337.416 51.744 337.896 50.4L343.416 52.896C342.904 54.368 342.072 55.696 340.92 56.88C339.768 58.032 338.392 58.944 336.792 59.616C335.192 60.256 333.448 60.576 331.56 60.576ZM354.573 60.576C352.749 60.576 351.165 60.272 349.821 59.664C348.477 59.056 347.437 58.192 346.701 57.072C345.965 55.92 345.597 54.592 345.597 53.088C345.597 51.648 345.917 50.368 346.557 49.248C347.197 48.096 348.189 47.136 349.533 46.368C350.877 45.6 352.573 45.056 354.621 44.736L363.165 43.344V48.144L355.821 49.392C354.573 49.616 353.645 50.016 353.037 50.592C352.429 51.168 352.125 51.92 352.125 52.848C352.125 53.744 352.461 54.464 353.133 55.008C353.837 55.52 354.701 55.776 355.725 55.776C357.037 55.776 358.189 55.504 359.181 54.96C360.205 54.384 360.989 53.6 361.533 52.608C362.109 51.616 362.397 50.528 362.397 49.344V42.624C362.397 41.504 361.949 40.576 361.053 39.84C360.189 39.072 359.037 38.688 357.597 38.688C356.253 38.688 355.053 39.056 353.997 39.792C352.973 40.496 352.221 41.44 351.741 42.624L346.605 40.128C347.117 38.752 347.917 37.568 349.005 36.576C350.125 35.552 351.437 34.752 352.941 34.176C354.445 33.6 356.077 33.312 357.837 33.312C359.981 33.312 361.869 33.712 363.501 34.512C365.133 35.28 366.397 36.368 367.293 37.776C368.221 39.152 368.685 40.768 368.685 42.624V60H362.733V55.536L364.077 55.44C363.405 56.56 362.605 57.504 361.677 58.272C360.749 59.008 359.693 59.584 358.509 60C357.325 60.384 356.013 60.576 354.573 60.576ZM373.057 60V33.888H378.961V39.936L378.289 38.928C378.769 37.04 379.729 35.632 381.169 34.704C382.609 33.776 384.305 33.312 386.257 33.312C388.401 33.312 390.289 33.872 391.921 34.992C393.553 36.112 394.609 37.584 395.089 39.408L393.313 39.552C394.113 37.472 395.313 35.92 396.913 34.896C398.513 33.84 400.353 33.312 402.433 33.312C404.289 33.312 405.937 33.728 407.377 34.56C408.849 35.392 410.001 36.56 410.833 38.064C411.665 39.536 412.081 41.248 412.081 43.2V60H405.793V44.688C405.793 43.536 405.585 42.544 405.169 41.712C404.753 40.88 404.177 40.24 403.441 39.792C402.705 39.312 401.809 39.072 400.753 39.072C399.761 39.072 398.881 39.312 398.113 39.792C397.345 40.24 396.753 40.88 396.337 41.712C395.921 42.544 395.713 43.536 395.713 44.688V60H389.425V44.688C389.425 43.536 389.217 42.544 388.801 41.712C388.385 40.88 387.793 40.24 387.025 39.792C386.289 39.312 385.409 39.072 384.385 39.072C383.393 39.072 382.513 39.312 381.745 39.792C380.977 40.24 380.385 40.88 379.969 41.712C379.553 42.544 379.345 43.536 379.345 44.688V60H373.057ZM428.345 60.576C425.657 60.576 423.305 59.968 421.289 58.752C419.273 57.536 417.705 55.888 416.585 53.808C415.465 51.728 414.905 49.424 414.905 46.896C414.905 44.272 415.465 41.952 416.585 39.936C417.737 37.888 419.289 36.272 421.241 35.088C423.225 33.904 425.433 33.312 427.865 33.312C429.913 33.312 431.705 33.648 433.241 34.32C434.809 34.992 436.137 35.92 437.225 37.104C438.313 38.288 439.145 39.648 439.721 41.184C440.297 42.688 440.585 44.32 440.585 46.08C440.585 46.528 440.553 46.992 440.489 47.472C440.457 47.952 440.377 48.368 440.249 48.72H420.089V43.92H436.697L433.721 46.176C434.009 44.704 433.929 43.392 433.481 42.24C433.065 41.088 432.361 40.176 431.369 39.504C430.409 38.832 429.241 38.496 427.865 38.496C426.553 38.496 425.385 38.832 424.361 39.504C423.337 40.144 422.553 41.104 422.009 42.384C421.497 43.632 421.305 45.152 421.433 46.944C421.305 48.544 421.513 49.968 422.057 51.216C422.633 52.432 423.465 53.376 424.553 54.048C425.673 54.72 426.953 55.056 428.393 55.056C429.833 55.056 431.049 54.752 432.041 54.144C433.065 53.536 433.865 52.72 434.441 51.696L439.529 54.192C439.017 55.44 438.217 56.544 437.129 57.504C436.041 58.464 434.745 59.216 433.241 59.76C431.769 60.304 430.137 60.576 428.345 60.576ZM443.911 60V33.888H449.815V39.696L449.335 38.832C449.943 36.88 450.887 35.52 452.167 34.752C453.479 33.984 455.047 33.6 456.871 33.6H458.407V39.168H456.151C454.359 39.168 452.919 39.728 451.831 40.848C450.743 41.936 450.199 43.472 450.199 45.456V60H443.911ZM473.192 60.576C470.632 60.576 468.296 59.984 466.184 58.8C464.104 57.616 462.44 56 461.192 53.952C459.976 51.904 459.368 49.568 459.368 46.944C459.368 44.32 459.976 41.984 461.192 39.936C462.44 37.888 464.104 36.272 466.184 35.088C468.264 33.904 470.6 33.312 473.192 33.312C475.752 33.312 478.072 33.904 480.152 35.088C482.232 36.272 483.88 37.888 485.096 39.936C486.344 41.952 486.968 44.288 486.968 46.944C486.968 49.568 486.344 51.904 485.096 53.952C483.848 56 482.184 57.616 480.104 58.8C478.024 59.984 475.72 60.576 473.192 60.576ZM473.192 54.816C474.6 54.816 475.832 54.48 476.888 53.808C477.976 53.136 478.824 52.208 479.432 51.024C480.072 49.808 480.392 48.448 480.392 46.944C480.392 45.408 480.072 44.064 479.432 42.912C478.824 41.728 477.976 40.8 476.888 40.128C475.832 39.424 474.6 39.072 473.192 39.072C471.752 39.072 470.488 39.424 469.4 40.128C468.312 40.8 467.448 41.728 466.808 42.912C466.2 44.064 465.896 45.408 465.896 46.944C465.896 48.448 466.2 49.808 466.808 51.024C467.448 52.208 468.312 53.136 469.4 53.808C470.488 54.48 471.752 54.816 473.192 54.816ZM499.609 60.576C497.593 60.576 495.833 60.128 494.329 59.232C492.857 58.336 491.721 57.088 490.921 55.488C490.153 53.888 489.769 52.016 489.769 49.872V33.888H496.057V49.344C496.057 50.432 496.265 51.392 496.681 52.224C497.129 53.024 497.753 53.664 498.553 54.144C499.385 54.592 500.313 54.816 501.337 54.816C502.361 54.816 503.273 54.592 504.073 54.144C504.873 53.664 505.497 53.008 505.945 52.176C506.393 51.344 506.617 50.352 506.617 49.2V33.888H512.905V60H506.953V54.864L507.481 55.776C506.873 57.376 505.865 58.576 504.457 59.376C503.081 60.176 501.465 60.576 499.609 60.576ZM517.31 60V33.888H523.214V39.024L522.734 38.112C523.342 36.544 524.334 35.36 525.71 34.56C527.118 33.728 528.75 33.312 530.606 33.312C532.526 33.312 534.222 33.728 535.694 34.56C537.198 35.392 538.366 36.56 539.198 38.064C540.03 39.536 540.446 41.248 540.446 43.2V60H534.158V44.688C534.158 43.536 533.934 42.544 533.486 41.712C533.038 40.88 532.414 40.24 531.614 39.792C530.846 39.312 529.934 39.072 528.878 39.072C527.854 39.072 526.942 39.312 526.142 39.792C525.342 40.24 524.718 40.88 524.27 41.712C523.822 42.544 523.598 43.536 523.598 44.688V60H517.31Z" fill="#EBCC27"/>
<defs>
<clipPath id="clip0_5704_14915">
<rect width="98" height="80" fill="white"/>
</clipPath>
</defs>
</svg>
