<svg width="169" height="40" viewBox="0 0 169 40" fill="none" xmlns="http://www.w3.org/2000/svg">
<g clip-path="url(#clip0_3984_113)">
<path d="M18.0945 36.3315C14.8636 36.3315 11.7052 35.3734 9.01885 33.5784C6.33247 31.7834 4.23868 29.2322 3.00227 26.2472C1.76587 23.2623 1.44237 19.9777 2.07268 16.8089C2.703 13.6401 4.25882 10.7294 6.5434 8.44477C8.82798 6.16019 11.7387 4.60436 14.9075 3.97405C18.0763 3.34373 21.3609 3.66723 24.3458 4.90364C27.3308 6.14005 29.8821 8.23383 31.6771 10.9202C33.472 13.6066 34.4301 16.7649 34.4301 19.9958C34.4253 24.3268 32.7027 28.4791 29.6402 31.5416C26.5777 34.6041 22.4255 36.3267 18.0945 36.3315Z" fill="#538676"/>
<path d="M18.094 35.3364C21.1279 35.3364 24.0938 34.4367 26.6164 32.7511C29.1391 31.0655 31.1053 28.6697 32.2663 25.8667C33.4274 23.0637 33.7312 19.9793 33.1393 17.0036C32.5474 14.0279 31.0864 11.2946 28.941 9.14926C26.7957 7.00391 24.0623 5.54291 21.0867 4.95101C18.111 4.35911 15.0266 4.6629 12.2236 5.82395C9.42055 6.985 7.02476 8.95118 5.33917 11.4738C3.65358 13.9965 2.75391 16.9623 2.75391 19.9963C2.7587 24.0633 4.37642 27.9623 7.2522 30.8381C10.128 33.7139 14.027 35.3316 18.094 35.3364Z" fill="white"/>
<path d="M38.2725 14.2033C38.0139 14.1076 37.326 13.2956 34.2358 13.5542C33.2014 13.6421 30.2042 14.5886 26.4157 15.7704L17.5458 12.1914L14.8719 12.4759L22.0015 17.1487C19.5318 17.909 16.9329 18.6822 14.4271 19.3546L9.21119 15.7342L7.76562 16.1273L12.1825 21.7699L10.9076 24.4128L12.7566 24.193L13.9823 22.4216C17.4592 22.3106 20.9201 21.8996 24.3263 21.1932L22.5937 28.1754L24.784 27.2341L28.1768 20.3579C38.8647 17.803 39.7853 15.848 39.987 15.3023C40.2042 14.6817 38.5337 14.3016 38.2725 14.2033Z" fill="#538676"/>
<path d="M4.25098 30.9883L22.0063 27.7558L22.3425 25.8086L4.25098 30.9883Z" fill="#00647b"/>
<path d="M2.22656 28.2575L22.692 24.1794L23.1058 22.1055L2.22656 28.2575Z" fill="#00647b"/>
<path d="M10.548 23.5893L1.02637 25.5495L11.1453 22.4023L10.548 23.5893Z" fill="#00647b"/>
<path d="M10.6082 20.7755L0.4375 23.0589L9.8841 19.9531L10.6082 20.7755Z" fill="#00647b"/>
<path d="M9.04577 18.4812L0 20.5707L8.3217 17.6562L9.04577 18.4812Z" fill="#00647b"/>
</g>
<path d="M57.2 33L50.352 15.592H54.928L59.888 29.288H58.192L63.184 15.592H67.76L60.912 33H57.2ZM68.637 33V15.592H72.829V33H68.637ZM68.637 13.64V9.16H72.829V13.64H68.637ZM81.8835 33.384C80.0275 33.384 78.4062 32.9467 77.0195 32.072C75.6542 31.176 74.7155 29.9707 74.2035 28.456L77.3395 26.952C77.7875 27.9333 78.4062 28.7013 79.1955 29.256C80.0062 29.8107 80.9022 30.088 81.8835 30.088C82.6515 30.088 83.2595 29.9173 83.7075 29.576C84.1555 29.2347 84.3795 28.7867 84.3795 28.232C84.3795 27.8907 84.2835 27.6133 84.0915 27.4C83.9208 27.1653 83.6755 26.9733 83.3555 26.824C83.0568 26.6533 82.7262 26.5147 82.3635 26.408L79.5155 25.608C78.0435 25.1813 76.9235 24.5307 76.1555 23.656C75.4088 22.7813 75.0355 21.7467 75.0355 20.552C75.0355 19.4853 75.3022 18.5573 75.8355 17.768C76.3902 16.9573 77.1475 16.328 78.1075 15.88C79.0888 15.432 80.2088 15.208 81.4675 15.208C83.1102 15.208 84.5608 15.6027 85.8195 16.392C87.0782 17.1813 87.9742 18.2907 88.5075 19.72L85.3075 21.224C85.0088 20.4347 84.5075 19.8053 83.8035 19.336C83.0995 18.8667 82.3102 18.632 81.4355 18.632C80.7315 18.632 80.1768 18.792 79.7715 19.112C79.3662 19.432 79.1635 19.848 79.1635 20.36C79.1635 20.68 79.2488 20.9573 79.4195 21.192C79.5902 21.4267 79.8248 21.6187 80.1235 21.768C80.4435 21.9173 80.8062 22.056 81.2115 22.184L83.9955 23.016C85.4248 23.4427 86.5235 24.0827 87.2915 24.936C88.0808 25.7893 88.4755 26.8347 88.4755 28.072C88.4755 29.1173 88.1982 30.0453 87.6435 30.856C87.0888 31.6453 86.3208 32.264 85.3395 32.712C84.3582 33.16 83.2062 33.384 81.8835 33.384ZM95.537 33.384C94.321 33.384 93.265 33.1813 92.369 32.776C91.473 32.3707 90.7797 31.7947 90.289 31.048C89.7983 30.28 89.553 29.3947 89.553 28.392C89.553 27.432 89.7663 26.5787 90.193 25.832C90.6197 25.064 91.281 24.424 92.177 23.912C93.073 23.4 94.2037 23.0373 95.569 22.824L101.265 21.896V25.096L96.369 25.928C95.537 26.0773 94.9183 26.344 94.513 26.728C94.1077 27.112 93.905 27.6133 93.905 28.232C93.905 28.8293 94.129 29.3093 94.577 29.672C95.0463 30.0133 95.6223 30.184 96.305 30.184C97.1797 30.184 97.9477 30.0027 98.609 29.64C99.2917 29.256 99.8143 28.7333 100.177 28.072C100.561 27.4107 100.753 26.6853 100.753 25.896V21.416C100.753 20.6693 100.454 20.0507 99.857 19.56C99.281 19.048 98.513 18.792 97.553 18.792C96.657 18.792 95.857 19.0373 95.153 19.528C94.4703 19.9973 93.969 20.6267 93.649 21.416L90.225 19.752C90.5663 18.8347 91.0997 18.0453 91.825 17.384C92.5717 16.7013 93.4463 16.168 94.449 15.784C95.4517 15.4 96.5397 15.208 97.713 15.208C99.1423 15.208 100.401 15.4747 101.489 16.008C102.577 16.52 103.42 17.2453 104.017 18.184C104.636 19.1013 104.945 20.1787 104.945 21.416V33H100.977V30.024L101.873 29.96C101.425 30.7067 100.892 31.336 100.273 31.848C99.6543 32.3387 98.9503 32.7227 98.161 33C97.3717 33.256 96.497 33.384 95.537 33.384ZM114.003 33.384C112.147 33.384 110.526 32.9467 109.139 32.072C107.774 31.176 106.835 29.9707 106.323 28.456L109.459 26.952C109.907 27.9333 110.526 28.7013 111.315 29.256C112.126 29.8107 113.022 30.088 114.003 30.088C114.771 30.088 115.379 29.9173 115.827 29.576C116.275 29.2347 116.499 28.7867 116.499 28.232C116.499 27.8907 116.403 27.6133 116.211 27.4C116.041 27.1653 115.795 26.9733 115.475 26.824C115.177 26.6533 114.846 26.5147 114.483 26.408L111.635 25.608C110.163 25.1813 109.043 24.5307 108.275 23.656C107.529 22.7813 107.155 21.7467 107.155 20.552C107.155 19.4853 107.422 18.5573 107.955 17.768C108.51 16.9573 109.267 16.328 110.227 15.88C111.209 15.432 112.329 15.208 113.587 15.208C115.23 15.208 116.681 15.6027 117.939 16.392C119.198 17.1813 120.094 18.2907 120.627 19.72L117.427 21.224C117.129 20.4347 116.627 19.8053 115.923 19.336C115.219 18.8667 114.43 18.632 113.555 18.632C112.851 18.632 112.297 18.792 111.891 19.112C111.486 19.432 111.283 19.848 111.283 20.36C111.283 20.68 111.369 20.9573 111.539 21.192C111.71 21.4267 111.945 21.6187 112.243 21.768C112.563 21.9173 112.926 22.056 113.331 22.184L116.115 23.016C117.545 23.4427 118.643 24.0827 119.411 24.936C120.201 25.7893 120.595 26.8347 120.595 28.072C120.595 29.1173 120.318 30.0453 119.763 30.856C119.209 31.6453 118.441 32.264 117.459 32.712C116.478 33.16 115.326 33.384 114.003 33.384ZM128.585 33.384C127.241 33.384 126.068 33.0853 125.065 32.488C124.084 31.8907 123.326 31.0587 122.793 29.992C122.281 28.9253 122.025 27.6773 122.025 26.248V15.592H126.217V25.896C126.217 26.6213 126.356 27.2613 126.633 27.816C126.932 28.3493 127.348 28.776 127.881 29.096C128.436 29.3947 129.054 29.544 129.737 29.544C130.42 29.544 131.028 29.3947 131.561 29.096C132.094 28.776 132.51 28.3387 132.809 27.784C133.108 27.2293 133.257 26.568 133.257 25.8V15.592H137.449V33H133.481V29.576L133.833 30.184C133.428 31.2507 132.756 32.0507 131.817 32.584C130.9 33.1173 129.822 33.384 128.585 33.384ZM139.906 33V15.592H143.842V19.464L143.522 18.888C143.927 17.5867 144.556 16.68 145.41 16.168C146.284 15.656 147.33 15.4 148.546 15.4H149.57V19.112H148.066C146.871 19.112 145.911 19.4853 145.186 20.232C144.46 20.9573 144.098 21.9813 144.098 23.304V33H139.906ZM158.69 33.384C156.898 33.384 155.33 32.9787 153.986 32.168C152.642 31.3573 151.597 30.2587 150.85 28.872C150.104 27.4853 149.73 25.9493 149.73 24.264C149.73 22.5147 150.104 20.968 150.85 19.624C151.618 18.2587 152.653 17.1813 153.954 16.392C155.277 15.6027 156.749 15.208 158.37 15.208C159.736 15.208 160.93 15.432 161.954 15.88C163 16.328 163.885 16.9467 164.61 17.736C165.336 18.5253 165.89 19.432 166.274 20.456C166.658 21.4587 166.85 22.5467 166.85 23.72C166.85 24.0187 166.829 24.328 166.786 24.648C166.765 24.968 166.712 25.2453 166.626 25.48H153.186V22.28H164.258L162.274 23.784C162.466 22.8027 162.413 21.928 162.114 21.16C161.837 20.392 161.368 19.784 160.706 19.336C160.066 18.888 159.288 18.664 158.37 18.664C157.496 18.664 156.717 18.888 156.034 19.336C155.352 19.7627 154.829 20.4027 154.466 21.256C154.125 22.088 153.997 23.1013 154.082 24.296C153.997 25.3627 154.136 26.312 154.498 27.144C154.882 27.9547 155.437 28.584 156.162 29.032C156.909 29.48 157.762 29.704 158.722 29.704C159.682 29.704 160.493 29.5013 161.154 29.096C161.837 28.6907 162.37 28.1467 162.754 27.464L166.146 29.128C165.805 29.96 165.272 30.696 164.546 31.336C163.821 31.976 162.957 32.4773 161.954 32.84C160.973 33.2027 159.885 33.384 158.69 33.384Z" fill="white"/>
<defs>
<clipPath id="clip0_3984_113">
<rect width="40" height="32.6713" fill="white" transform="translate(0 3.66406)"/>
</clipPath>
</defs>
</svg>
