<svg width="48" height="10" viewBox="0 0 48 10" fill="none" xmlns="http://www.w3.org/2000/svg">
<path d="M47.2095 2.14437C46.4096 2.36766 45.5874 2.50135 44.758 2.54299L38.0745 3.26714C36.5625 3.43986 35.0713 3.76256 33.6232 4.23048C32.834 4.49614 32.0748 4.84349 31.3577 5.2669C30.5815 5.78994 29.7739 6.26475 28.9394 6.68864C28.4366 6.92402 27.8868 7.04215 27.3317 7.03411C26.7204 6.99856 26.1425 6.7438 25.704 6.3166C24.8602 5.44628 24.6277 4.38993 24.0763 3.71228C23.8482 3.37951 23.505 3.14288 23.1129 3.04791C22.6926 2.95474 22.2543 2.98472 21.8506 3.13427C20.9442 3.46398 20.1839 4.10423 19.7047 4.94135C19.1267 5.79839 18.675 6.775 18.0172 7.69183C17.3771 8.67698 16.4285 9.42226 15.3199 9.81116C14.738 9.97733 14.1213 9.97733 13.5394 9.81116C12.9881 9.64765 12.4799 9.36403 12.0512 8.9807C11.2848 8.27735 10.6875 7.40973 10.3039 6.44282C9.91861 5.55257 9.63957 4.68889 9.25423 3.93151C8.81236 2.89622 8.01001 2.05634 6.99598 1.56765C5.98195 1.07897 4.82509 0.974642 3.74 1.27404C3.16364 1.41933 2.62491 1.6859 2.15977 2.05594C1.69463 2.42599 1.3138 2.89102 1.04267 3.41996C0.609026 4.23627 0.40251 5.15404 0.444721 6.07742C0.461366 6.66905 0.587529 7.25247 0.816785 7.79813C0.969589 8.18346 1.07589 8.37613 1.04267 8.40271C1.00945 8.42928 0.849998 8.26318 0.624113 7.89778C0.297997 7.3528 0.0960956 6.74258 0.0328167 6.11063C-0.094422 5.09968 0.0716196 4.07346 0.511162 3.1542C0.798973 2.52884 1.21785 1.97266 1.73939 1.52332C2.26094 1.07399 2.87299 0.742013 3.53404 0.549886C4.3414 0.314234 5.19125 0.262331 6.02128 0.397987C6.85131 0.533642 7.64045 0.85342 8.33077 1.33384C9.08192 1.89515 9.6841 2.63192 10.0847 3.47975C10.5165 4.31021 10.8221 5.18716 11.2008 6.01762C11.535 6.84506 12.053 7.58567 12.7156 8.18347C13.0179 8.47409 13.3907 8.68086 13.7973 8.78339C14.204 8.88592 14.6303 8.88064 15.0342 8.7681C15.9058 8.44143 16.6489 7.84273 17.1536 7.06068C17.7316 6.2568 18.1833 5.28018 18.8145 4.33678C19.1355 3.84764 19.5172 3.40117 19.9505 3.00804C20.4071 2.61118 20.9377 2.30862 21.5118 2.11779C22.1043 1.91517 22.7412 1.88068 23.3521 2.01814C23.9719 2.17131 24.5177 2.53834 24.8934 3.05455C25.5977 3.99795 25.8368 5.04765 26.4082 5.5725C26.6675 5.83263 27.0118 5.99065 27.3782 6.01762C27.7818 6.02071 28.1811 5.9345 28.5475 5.76517C29.3497 5.36762 30.1284 4.92396 30.8794 4.43644C31.657 3.99071 32.4814 3.632 33.3375 3.36681C34.8527 2.91365 36.4116 2.62192 37.9881 2.49649C40.8449 2.25731 43.1369 2.18423 44.7314 2.1045C45.5564 2.02614 46.3875 2.03952 47.2095 2.14437Z" fill="#538676"/>
</svg>
