<svg width="25" height="26" viewBox="0 0 25 26" fill="none" xmlns="http://www.w3.org/2000/svg">
<path d="M0 13.4336C0 6.54883 5.56641 0.933594 12.5 0.933594C19.3848 0.933594 25 6.54883 25 13.4336C25 20.3672 19.3848 25.9336 12.5 25.9336C5.56641 25.9336 0 20.3672 0 13.4336ZM18.1152 11.2852C18.6523 10.748 18.6523 9.91797 18.1152 9.38086C17.5781 8.84375 16.748 8.84375 16.2109 9.38086L10.9375 14.6543L8.74023 12.5059C8.20312 11.9688 7.37305 11.9688 6.83594 12.5059C6.29883 13.043 6.29883 13.873 6.83594 14.4102L9.96094 17.5352C10.498 18.0723 11.3281 18.0723 11.8652 17.5352L18.1152 11.2852Z" fill="#00647b"/>
</svg>
